<?xml version="1.0" encoding="UTF-8" standalone="no"?>
<!DOCTYPE svg PUBLIC "-//W3C//DTD SVG 1.0//EN"
 "http://www.w3.org/TR/2001/REC-SVG-20010904/DTD/svg10.dtd" [
 <!ATTLIST svg xmlns:xlink CDATA #FIXED "http://www.w3.org/1999/xlink">
]>
<!-- Generated by Graphviz version 2.20.2 (Sun Oct 12 21:27:53 UTC 2008)
     For user: (peter) Peter Krefting,,, -->
<!-- Title: sentencebreak Pages: 1 -->
<svg width="1369pt" height="708pt"
 viewBox="0.00 0.00 1369.00 708.00" xmlns="http://www.w3.org/2000/svg" xmlns:xlink="http://www.w3.org/1999/xlink">
<g id="graph0" class="graph" transform="scale(1 1) rotate(0) translate(4 704)">
<title>sentencebreak</title>
<polygon style="fill:white;stroke:white;" points="-4,4 -4,-704 1365,-704 1365,4 -4,4"/>
<!-- any -->
<g id="node1" class="node"><title>any</title>
<ellipse style="fill:none;stroke:black;" cx="353" cy="-682" rx="27" ry="18"/>
<text text-anchor="middle" x="353" y="-677.9" style="font-family:Times New Roman;font-size:14.00;">any</text>
</g>
<!-- any&#45;&gt;any -->
<g id="edge2" class="edge"><title>any&#45;&gt;any</title>
<path style="fill:none;stroke:red;" d="M378,-690C389,-691 398,-688 398,-682 398,-678 394,-675 388,-674"/>
<polygon style="fill:red;stroke:red;" points="388,-670.5 378,-674 388,-677.5 388,-670.5"/>
<text text-anchor="middle" x="408" y="-677.9" style="font-family:Times New Roman;font-size:14.00;fill:red;">any</text>
</g>
<!-- cr -->
<g id="node4" class="node"><title>cr</title>
<ellipse style="fill:none;stroke:black;" cx="68" cy="-538" rx="27" ry="18"/>
<text text-anchor="middle" x="68" y="-533.9" style="font-family:Times New Roman;font-size:14.00;">cr</text>
</g>
<!-- any&#45;&gt;cr -->
<g id="edge4" class="edge"><title>any&#45;&gt;cr</title>
<path style="fill:none;stroke:green;" d="M331,-671C281,-645 156,-583 99,-554"/>
<polygon style="fill:green;stroke:green;" points="100.441,-550.797 90,-549 97.0418,-556.916 100.441,-550.797"/>
<text text-anchor="middle" x="292" y="-632.9" style="font-family:Times New Roman;font-size:14.00;fill:green;">CR</text>
</g>
<!-- Sep -->
<g id="node6" class="node"><title>Sep</title>
<ellipse style="fill:none;stroke:black;" cx="150" cy="-214" rx="27" ry="18"/>
<text text-anchor="middle" x="150" y="-209.9" style="font-family:Times New Roman;font-size:14.00;">Sep</text>
</g>
<!-- any&#45;&gt;Sep -->
<g id="edge6" class="edge"><title>any&#45;&gt;Sep</title>
<path style="fill:none;stroke:red;" d="M326,-681C243,-677 0,-658 0,-592 0,-592 0,-592 0,-304 0,-251 69,-228 114,-220"/>
<polygon style="fill:red;stroke:red;" points="114.881,-223.393 124,-218 113.508,-216.529 114.881,-223.393"/>
<text text-anchor="middle" x="24" y="-434.9" style="font-family:Times New Roman;font-size:14.00;fill:red;">Sep | LF</text>
</g>
<!-- ATerm -->
<g id="node8" class="node"><title>ATerm</title>
<ellipse style="fill:none;stroke:black;" cx="353" cy="-592" rx="37.0233" ry="18"/>
<text text-anchor="middle" x="353" y="-587.9" style="font-family:Times New Roman;font-size:14.00;">ATerm</text>
</g>
<!-- any&#45;&gt;ATerm -->
<g id="edge8" class="edge"><title>any&#45;&gt;ATerm</title>
<path style="fill:none;stroke:red;" d="M353,-664C353,-651 353,-635 353,-620"/>
<polygon style="fill:red;stroke:red;" points="356.5,-620 353,-610 349.5,-620 356.5,-620"/>
<text text-anchor="middle" x="372" y="-632.9" style="font-family:Times New Roman;font-size:14.00;fill:red;">ATerm</text>
</g>
<!-- Upper -->
<g id="node10" class="node"><title>Upper</title>
<ellipse style="fill:none;stroke:black;" cx="1252" cy="-592" rx="34.9399" ry="18"/>
<text text-anchor="middle" x="1252" y="-587.9" style="font-family:Times New Roman;font-size:14.00;">Upper</text>
</g>
<!-- any&#45;&gt;Upper -->
<g id="edge10" class="edge"><title>any&#45;&gt;Upper</title>
<path style="fill:none;stroke:red;" d="M380,-681C522,-678 1165,-664 1203,-646 1216,-640 1227,-628 1235,-618"/>
<polygon style="fill:red;stroke:red;" points="1238.37,-619.262 1241,-609 1232.54,-615.379 1238.37,-619.262"/>
<text text-anchor="middle" x="1241" y="-632.9" style="font-family:Times New Roman;font-size:14.00;fill:red;">Upper</text>
</g>
<!-- cr&#45;&gt;cr -->
<g id="edge12" class="edge"><title>cr&#45;&gt;cr</title>
<path style="fill:none;stroke:red;" d="M91,-547C103,-549 113,-546 113,-538 113,-533 108,-529 101,-529"/>
<polygon style="fill:red;stroke:red;" points="101,-525.5 91,-529 101,-532.5 101,-525.5"/>
<text text-anchor="middle" x="122" y="-533.9" style="font-family:Times New Roman;font-size:14.00;fill:red;">LF</text>
</g>
<!-- cr&#45;&gt;Sep -->
<g id="edge14" class="edge"><title>cr&#45;&gt;Sep</title>
<path style="fill:none;stroke:green;" d="M67,-520C65,-500 63,-467 63,-439 63,-439 63,-439 63,-304 63,-270 94,-245 119,-230"/>
<polygon style="fill:green;stroke:green;" points="120.958,-232.916 128,-225 117.559,-226.797 120.958,-232.916"/>
<text text-anchor="middle" x="89" y="-389.9" style="font-family:Times New Roman;font-size:14.00;fill:green;">Sep | CR</text>
</g>
<!-- any&#39; -->
<g id="node14" class="node"><title>any&#39;</title>
<ellipse style="fill:none;stroke:black;" cx="368" cy="-18" rx="27.1004" ry="18"/>
<text text-anchor="middle" x="368" y="-13.9" style="font-family:Times New Roman;font-size:14.00;">any&#39;</text>
</g>
<!-- Sep&#45;&gt;any&#39; -->
<g id="edge16" class="edge"><title>Sep&#45;&gt;any&#39;</title>
<path style="fill:none;stroke:green;" d="M146,-196C143,-172 140,-132 159,-106 200,-50 283,-30 331,-22"/>
<polygon style="fill:green;stroke:green;" points="331.398,-25.4778 341,-21 330.701,-18.5125 331.398,-25.4778"/>
<text text-anchor="middle" x="188" y="-128.4" style="font-family:Times New Roman;font-size:14.00;fill:green;">see output</text>
<text text-anchor="middle" x="188" y="-111.4" style="font-family:Times New Roman;font-size:14.00;fill:green;">for any</text>
</g>
<!-- ATerm&#45;&gt;Sep -->
<g id="edge18" class="edge"><title>ATerm&#45;&gt;Sep</title>
<path style="fill:none;stroke:red;" d="M316,-589C258,-582 150,-558 150,-484 150,-484 150,-484 150,-304 150,-283 150,-260 150,-242"/>
<polygon style="fill:red;stroke:red;" points="153.5,-242 150,-232 146.5,-242 153.5,-242"/>
<text text-anchor="middle" x="189" y="-389.9" style="font-family:Times New Roman;font-size:14.00;fill:red;">Sep | CR | LF</text>
</g>
<!-- ATerm Close* Sp* -->
<g id="node17" class="node"><title>ATerm Close* Sp*</title>
<ellipse style="fill:none;stroke:black;" cx="353" cy="-484" rx="84.9707" ry="18"/>
<text text-anchor="middle" x="353" y="-479.9" style="font-family:Times New Roman;font-size:14.00;">ATerm Close* Sp*</text>
</g>
<!-- ATerm&#45;&gt;ATerm Close* Sp* -->
<g id="edge20" class="edge"><title>ATerm&#45;&gt;ATerm Close* Sp*</title>
<path style="fill:none;stroke:red;" d="M353,-574C353,-557 353,-532 353,-512"/>
<polygon style="fill:red;stroke:red;" points="356.5,-512 353,-502 349.5,-512 356.5,-512"/>
<text text-anchor="middle" x="369" y="-533.9" style="font-family:Times New Roman;font-size:14.00;fill:red;">Close</text>
</g>
<!-- STerm -->
<g id="node19" class="node"><title>STerm</title>
<ellipse style="fill:none;stroke:black;" cx="532" cy="-304" rx="37.0233" ry="18"/>
<text text-anchor="middle" x="532" y="-299.9" style="font-family:Times New Roman;font-size:14.00;">STerm</text>
</g>
<!-- ATerm&#45;&gt;STerm -->
<g id="edge22" class="edge"><title>ATerm&#45;&gt;STerm</title>
<path style="fill:none;stroke:red;" d="M332,-577C311,-560 279,-532 259,-502 246,-480 246,-472 241,-448 234,-398 233,-371 271,-340 287,-327 415,-314 485,-308"/>
<polygon style="fill:red;stroke:red;" points="485.398,-311.478 495,-307 484.701,-304.512 485.398,-311.478"/>
<text text-anchor="middle" x="263" y="-434.9" style="font-family:Times New Roman;font-size:14.00;fill:red;">STerm</text>
</g>
<!-- ATerm Close* Sp* not(...)* -->
<g id="node21" class="node"><title>ATerm Close* Sp* not(...)*</title>
<ellipse style="fill:none;stroke:black;" cx="881" cy="-394" rx="118.825" ry="18"/>
<text text-anchor="middle" x="881" y="-389.9" style="font-family:Times New Roman;font-size:14.00;">ATerm Close* Sp* not(...)*</text>
</g>
<!-- ATerm&#45;&gt;ATerm Close* Sp* not(...)* -->
<g id="edge24" class="edge"><title>ATerm&#45;&gt;ATerm Close* Sp* not(...)*</title>
<path style="fill:none;stroke:red;" d="M390,-591C483,-587 719,-575 748,-556 787,-530 769,-501 797,-466 811,-448 830,-431 847,-418"/>
<polygon style="fill:red;stroke:red;" points="849.1,-420.8 855,-412 844.9,-415.2 849.1,-420.8"/>
<text text-anchor="middle" x="986" y="-479.9" style="font-family:Times New Roman;font-size:14.00;fill:red;">Numeric, STerm, ATerm, not(OLetter, Upper, Lower, Sep, CR, LF)</text>
</g>
<!-- Upper ATerm -->
<g id="node38" class="node"><title>Upper ATerm</title>
<ellipse style="fill:none;stroke:black;" cx="1297" cy="-484" rx="63.9292" ry="18"/>
<text text-anchor="middle" x="1297" y="-479.9" style="font-family:Times New Roman;font-size:14.00;">Upper ATerm</text>
</g>
<!-- Upper&#45;&gt;Upper ATerm -->
<g id="edge52" class="edge"><title>Upper&#45;&gt;Upper ATerm</title>
<path style="fill:none;stroke:red;" d="M1247,-574C1244,-559 1242,-537 1251,-520 1253,-515 1256,-511 1260,-507"/>
<polygon style="fill:red;stroke:red;" points="1262.4,-509.546 1267,-500 1257.45,-504.596 1262.4,-509.546"/>
<text text-anchor="middle" x="1270" y="-533.9" style="font-family:Times New Roman;font-size:14.00;fill:red;">ATerm</text>
</g>
<!-- ATerm Close* Sp*&#45;&gt;Sep -->
<g id="edge28" class="edge"><title>ATerm Close* Sp*&#45;&gt;Sep</title>
<path style="fill:none;stroke:red;" d="M336,-466C331,-460 325,-454 320,-448 260,-374 197,-283 167,-239"/>
<polygon style="fill:red;stroke:red;" points="169.8,-236.9 161,-231 164.2,-241.1 169.8,-236.9"/>
<text text-anchor="middle" x="291" y="-344.9" style="font-family:Times New Roman;font-size:14.00;fill:red;">Sep | CR | LF</text>
</g>
<!-- ATerm Close* Sp*&#45;&gt;ATerm Close* Sp* -->
<g id="edge26" class="edge"><title>ATerm Close* Sp*&#45;&gt;ATerm Close* Sp*</title>
<path style="fill:none;stroke:red;" d="M430,-492C445,-491 456,-488 456,-484 456,-481 450,-479 440,-477"/>
<polygon style="fill:red;stroke:red;" points="440.299,-473.512 430,-476 439.602,-480.478 440.299,-473.512"/>
<text text-anchor="middle" x="485" y="-479.9" style="font-family:Times New Roman;font-size:14.00;fill:red;">Close | Sp</text>
</g>
<!-- ATerm Close* Sp*&#45;&gt;ATerm Close* Sp* not(...)* -->
<g id="edge30" class="edge"><title>ATerm Close* Sp*&#45;&gt;ATerm Close* Sp* not(...)*</title>
<path style="fill:none;stroke:red;" d="M335,-466C325,-455 317,-440 327,-430 342,-414 595,-403 754,-397"/>
<polygon style="fill:red;stroke:red;" points="754,-400.5 764,-397 754,-393.5 754,-400.5"/>
<text text-anchor="middle" x="520" y="-434.9" style="font-family:Times New Roman;font-size:14.00;fill:red;">Numeric | STerm | ATerm | not(OLetter, Upper, Lower, Sep, CR, LF)</text>
</g>
<!-- STerm&#45;&gt;Sep -->
<g id="edge40" class="edge"><title>STerm&#45;&gt;Sep</title>
<path style="fill:none;stroke:red;" d="M499,-296C455,-285 376,-266 307,-250 266,-240 218,-229 186,-222"/>
<polygon style="fill:red;stroke:red;" points="186.492,-218.529 176,-220 185.119,-225.393 186.492,-218.529"/>
<text text-anchor="middle" x="428" y="-254.9" style="font-family:Times New Roman;font-size:14.00;fill:red;">Sep | CR | LF</text>
</g>
<!-- STerm&#45;&gt;ATerm -->
<g id="edge42" class="edge"><title>STerm&#45;&gt;ATerm</title>
<path style="fill:none;stroke:red;" d="M564,-313C627,-333 756,-383 712,-448 641,-552 481,-582 400,-589"/>
<polygon style="fill:red;stroke:red;" points="399.602,-585.522 390,-590 400.299,-592.488 399.602,-585.522"/>
<text text-anchor="middle" x="741" y="-434.9" style="font-family:Times New Roman;font-size:14.00;fill:red;">ATerm</text>
</g>
<!-- STerm&#45;&gt;STerm -->
<g id="edge36" class="edge"><title>STerm&#45;&gt;STerm</title>
<path style="fill:none;stroke:red;" d="M565,-312C577,-312 587,-310 587,-304 587,-300 582,-298 575,-297"/>
<polygon style="fill:red;stroke:red;" points="575.299,-293.512 565,-296 574.602,-300.478 575.299,-293.512"/>
<text text-anchor="middle" x="606" y="-299.9" style="font-family:Times New Roman;font-size:14.00;fill:red;">STerm</text>
</g>
<!-- (STerm | ATerm) Close* Sp* -->
<g id="node29" class="node"><title>(STerm | ATerm) Close* Sp*</title>
<ellipse style="fill:none;stroke:black;" cx="531" cy="-214" rx="123.188" ry="18"/>
<text text-anchor="middle" x="531" y="-209.9" style="font-family:Times New Roman;font-size:14.00;">(STerm | ATerm) Close* Sp*</text>
</g>
<!-- STerm&#45;&gt;(STerm | ATerm) Close* Sp* -->
<g id="edge38" class="edge"><title>STerm&#45;&gt;(STerm | ATerm) Close* Sp*</title>
<path style="fill:none;stroke:red;" d="M537,-286C539,-276 541,-262 540,-250 540,-247 539,-245 539,-242"/>
<polygon style="fill:red;stroke:red;" points="542.393,-241.119 537,-232 535.529,-242.492 542.393,-241.119"/>
<text text-anchor="middle" x="572" y="-254.9" style="font-family:Times New Roman;font-size:14.00;fill:red;">Sp | Close</text>
</g>
<!-- ATerm Close* Sp* not(...)*&#45;&gt;any -->
<g id="edge34" class="edge"><title>ATerm Close* Sp* not(...)*&#45;&gt;any</title>
<path style="fill:none;stroke:red;" d="M977,-405C1053,-415 1150,-435 1175,-466 1184,-478 1185,-489 1175,-502 1074,-627 537,-670 390,-679"/>
<polygon style="fill:red;stroke:red;" points="389.602,-675.522 380,-680 390.299,-682.488 389.602,-675.522"/>
<text text-anchor="middle" x="1172" y="-533.9" style="font-family:Times New Roman;font-size:14.00;fill:red;">Lower</text>
</g>
<!-- ATerm Close* Sp* not(...)*&#45;&gt;STerm -->
<g id="edge32" class="edge"><title>ATerm Close* Sp* not(...)*&#45;&gt;STerm</title>
<path style="fill:none;stroke:red;" d="M845,-377C819,-365 782,-349 748,-340 692,-323 623,-314 579,-308"/>
<polygon style="fill:red;stroke:red;" points="579.299,-304.512 569,-307 578.602,-311.478 579.299,-304.512"/>
<text text-anchor="middle" x="824" y="-344.9" style="font-family:Times New Roman;font-size:14.00;fill:red;">STerm</text>
</g>
<!-- (STerm | ATerm) Close* Sp*&#45;&gt;any&#39; -->
<g id="edge50" class="edge"><title>(STerm | ATerm) Close* Sp*&#45;&gt;any&#39;</title>
<path style="fill:none;stroke:green;" d="M534,-196C537,-172 539,-132 519,-106 490,-66 438,-42 403,-29"/>
<polygon style="fill:green;stroke:green;" points="403.585,-25.4643 393,-25 400.985,-31.9636 403.585,-25.4643"/>
<text text-anchor="middle" x="565" y="-128.4" style="font-family:Times New Roman;font-size:14.00;fill:green;">see output</text>
<text text-anchor="middle" x="565" y="-111.4" style="font-family:Times New Roman;font-size:14.00;fill:green;">for any</text>
</g>
<!-- (STerm | ATerm) Close* Sp*&#45;&gt;STerm -->
<g id="edge46" class="edge"><title>(STerm | ATerm) Close* Sp*&#45;&gt;STerm</title>
<path style="fill:none;stroke:red;" d="M510,-232C505,-237 501,-243 498,-250 496,-257 496,-260 498,-268 500,-273 503,-277 506,-281"/>
<polygon style="fill:red;stroke:red;" points="503.454,-283.404 513,-288 508.404,-278.454 503.454,-283.404"/>
<text text-anchor="middle" x="520" y="-254.9" style="font-family:Times New Roman;font-size:14.00;fill:red;">STerm</text>
</g>
<!-- (STerm | ATerm) Close* Sp*&#45;&gt;(STerm | ATerm) Close* Sp* -->
<g id="edge44" class="edge"><title>(STerm | ATerm) Close* Sp*&#45;&gt;(STerm | ATerm) Close* Sp*</title>
<path style="fill:none;stroke:red;" d="M643,-222C660,-220 672,-218 672,-214 672,-211 665,-209 653,-207"/>
<polygon style="fill:red;stroke:red;" points="653.299,-203.512 643,-206 652.602,-210.478 653.299,-203.512"/>
<text text-anchor="middle" x="701" y="-209.9" style="font-family:Times New Roman;font-size:14.00;fill:red;">Sp | Close</text>
</g>
<!-- (STerm | ATerm) Close* Sp* Sep -->
<g id="node35" class="node"><title>(STerm | ATerm) Close* Sp* Sep</title>
<ellipse style="fill:none;stroke:black;" cx="368" cy="-124" rx="141.756" ry="18"/>
<text text-anchor="middle" x="368" y="-119.9" style="font-family:Times New Roman;font-size:14.00;">(STerm | ATerm) Close* Sp* Sep</text>
</g>
<!-- (STerm | ATerm) Close* Sp*&#45;&gt;(STerm | ATerm) Close* Sp* Sep -->
<g id="edge48" class="edge"><title>(STerm | ATerm) Close* Sp*&#45;&gt;(STerm | ATerm) Close* Sp* Sep</title>
<path style="fill:none;stroke:red;" d="M493,-197C481,-191 467,-184 455,-178 438,-169 419,-158 404,-148"/>
<polygon style="fill:red;stroke:red;" points="405.262,-144.635 395,-142 401.379,-150.459 405.262,-144.635"/>
<text text-anchor="middle" x="500" y="-164.9" style="font-family:Times New Roman;font-size:14.00;fill:red;">Sep | CR | LF</text>
</g>
<!-- (STerm | ATerm) Close* Sp* Sep&#45;&gt;any&#39; -->
<g id="edge56" class="edge"><title>(STerm | ATerm) Close* Sp* Sep&#45;&gt;any&#39;</title>
<path style="fill:none;stroke:green;" d="M368,-106C368,-89 368,-65 368,-46"/>
<polygon style="fill:green;stroke:green;" points="371.5,-46 368,-36 364.5,-46 371.5,-46"/>
<text text-anchor="middle" x="397" y="-75.4" style="font-family:Times New Roman;font-size:14.00;fill:green;">see output</text>
<text text-anchor="middle" x="397" y="-58.4" style="font-family:Times New Roman;font-size:14.00;fill:green;">for any</text>
</g>
<!-- Upper ATerm&#45;&gt;Upper -->
<g id="edge54" class="edge"><title>Upper ATerm&#45;&gt;Upper</title>
<path style="fill:none;stroke:red;" d="M1298,-502C1299,-517 1297,-539 1289,-556 1287,-561 1283,-565 1279,-570"/>
<polygon style="fill:red;stroke:red;" points="1276.6,-567.454 1272,-577 1281.55,-572.404 1276.6,-567.454"/>
<text text-anchor="middle" x="1313" y="-533.9" style="font-family:Times New Roman;font-size:14.00;fill:red;">Upper</text>
</g>
</g>
</svg>
