<?xml version="1.0" encoding="UTF-8" standalone="no"?>
<!DOCTYPE svg PUBLIC "-//W3C//DTD SVG 1.0//EN"
 "http://www.w3.org/TR/2001/REC-SVG-20010904/DTD/svg10.dtd" [
 <!ATTLIST svg xmlns:xlink CDATA #FIXED "http://www.w3.org/1999/xlink">
]>
<!-- Generated by Graphviz version 2.20.2 (Sun Oct 12 21:27:53 UTC 2008)
     For user: (peter) Peter Krefting,,, -->
<!-- Title: wordbreak Pages: 1 -->
<svg width="757pt" height="574pt"
 viewBox="0.00 0.00 757.00 574.00" xmlns="http://www.w3.org/2000/svg" xmlns:xlink="http://www.w3.org/1999/xlink">
<g id="graph0" class="graph" transform="scale(1 1) rotate(0) translate(4 570)">
<title>wordbreak</title>
<polygon style="fill:white;stroke:white;" points="-4,4 -4,-570 753,-570 753,4 -4,4"/>
<g id="node1" class="node"><title></title>
<ellipse style="fill:none;stroke:black;" cx="499" cy="-548" rx="27" ry="18"/>
</g>
<!-- start -->
<g id="node3" class="node"><title>start</title>
<ellipse style="fill:none;stroke:black;" cx="499" cy="-442" rx="27.7953" ry="18"/>
<text text-anchor="middle" x="499" y="-437.9" style="font-family:Times New Roman;font-size:14.00;">start</text>
</g>
<!-- &#45;&gt;start -->
<g id="edge2" class="edge"><title>&#45;&gt;start</title>
<path style="fill:none;stroke:green;" d="M499,-530C499,-513 499,-489 499,-470"/>
<polygon style="fill:green;stroke:green;" points="502.5,-470 499,-460 495.5,-470 502.5,-470"/>
<text text-anchor="middle" x="541" y="-499.4" style="font-family:Times New Roman;font-size:14.00;fill:green;">any (from</text>
<text text-anchor="middle" x="541" y="-482.4" style="font-family:Times New Roman;font-size:14.00;fill:green;">all unspecified)</text>
</g>
<!-- cr -->
<g id="node5" class="node"><title>cr</title>
<ellipse style="fill:none;stroke:black;" cx="506" cy="-352" rx="27" ry="18"/>
<text text-anchor="middle" x="506" y="-347.9" style="font-family:Times New Roman;font-size:14.00;">cr</text>
</g>
<!-- start&#45;&gt;cr -->
<g id="edge4" class="edge"><title>start&#45;&gt;cr</title>
<path style="fill:none;stroke:green;" d="M486,-425C480,-415 474,-401 479,-388 480,-383 482,-379 485,-375"/>
<polygon style="fill:green;stroke:green;" points="487.8,-377.1 491,-367 482.2,-372.9 487.8,-377.1"/>
<text text-anchor="middle" x="489" y="-392.9" style="font-family:Times New Roman;font-size:14.00;fill:green;">CR</text>
</g>
<!-- Numeric -->
<g id="node7" class="node"><title>Numeric</title>
<ellipse style="fill:none;stroke:black;" cx="259" cy="-352" rx="43.7776" ry="18"/>
<text text-anchor="middle" x="259" y="-347.9" style="font-family:Times New Roman;font-size:14.00;">Numeric</text>
</g>
<!-- start&#45;&gt;Numeric -->
<g id="edge6" class="edge"><title>start&#45;&gt;Numeric</title>
<path style="fill:none;stroke:green;" d="M472,-437C443,-431 396,-421 358,-406 335,-397 311,-383 292,-372"/>
<polygon style="fill:green;stroke:green;" points="293.441,-368.797 283,-367 290.042,-374.916 293.441,-368.797"/>
<text text-anchor="middle" x="387" y="-392.9" style="font-family:Times New Roman;font-size:14.00;fill:green;">Numeric</text>
</g>
<!-- ALetter -->
<g id="node9" class="node"><title>ALetter</title>
<ellipse style="fill:none;stroke:black;" cx="401" cy="-221" rx="39.8056" ry="18"/>
<text text-anchor="middle" x="401" y="-216.9" style="font-family:Times New Roman;font-size:14.00;">ALetter</text>
</g>
<!-- start&#45;&gt;ALetter -->
<g id="edge8" class="edge"><title>start&#45;&gt;ALetter</title>
<path style="fill:none;stroke:green;" d="M480,-428C464,-415 440,-394 428,-370 417,-349 409,-286 404,-249"/>
<polygon style="fill:green;stroke:green;" points="407.478,-248.602 403,-239 400.512,-249.299 407.478,-248.602"/>
<text text-anchor="middle" x="449" y="-347.9" style="font-family:Times New Roman;font-size:14.00;fill:green;">ALetter</text>
</g>
<!-- Katakana -->
<g id="node11" class="node"><title>Katakana</title>
<ellipse style="fill:none;stroke:black;" cx="399" cy="-18" rx="46.0565" ry="18"/>
<text text-anchor="middle" x="399" y="-13.9" style="font-family:Times New Roman;font-size:14.00;">Katakana</text>
</g>
<!-- start&#45;&gt;Katakana -->
<g id="edge10" class="edge"><title>start&#45;&gt;Katakana</title>
<path style="fill:none;stroke:green;" d="M526,-436C580,-422 699,-389 699,-352 699,-352 699,-352 699,-108 699,-57 541,-33 454,-23"/>
<polygon style="fill:green;stroke:green;" points="454.299,-19.5125 444,-22 453.602,-26.4778 454.299,-19.5125"/>
<text text-anchor="middle" x="724" y="-216.9" style="font-family:Times New Roman;font-size:14.00;fill:green;">Katakana</text>
</g>
<!-- Newline -->
<g id="node14" class="node"><title>Newline</title>
<ellipse style="fill:none;stroke:black;" cx="560" cy="-221" rx="41.1906" ry="18"/>
<text text-anchor="middle" x="560" y="-216.9" style="font-family:Times New Roman;font-size:14.00;">Newline</text>
</g>
<!-- start&#45;&gt;Newline -->
<g id="edge14" class="edge"><title>start&#45;&gt;Newline</title>
<path style="fill:none;stroke:green;" d="M511,-425C520,-411 534,-390 542,-370 556,-330 560,-280 560,-249"/>
<polygon style="fill:green;stroke:green;" points="563.5,-249 560,-239 556.5,-249 563.5,-249"/>
<text text-anchor="middle" x="572" y="-356.4" style="font-family:Times New Roman;font-size:14.00;fill:green;">Newline</text>
<text text-anchor="middle" x="572" y="-339.4" style="font-family:Times New Roman;font-size:14.00;fill:green;">LF</text>
</g>
<!-- cr&#45;&gt;start -->
<g id="edge12" class="edge"><title>cr&#45;&gt;start</title>
<path style="fill:none;stroke:red;" d="M504,-370C503,-383 502,-399 501,-414"/>
<polygon style="fill:red;stroke:red;" points="497.512,-413.701 500,-424 504.478,-414.398 497.512,-413.701"/>
<text text-anchor="middle" x="510" y="-392.9" style="font-family:Times New Roman;font-size:14.00;fill:red;">LF</text>
</g>
<!-- cr&#45;&gt;Newline -->
<g id="edge18" class="edge"><title>cr&#45;&gt;Newline</title>
<path style="fill:none;stroke:green;" d="M503,-334C501,-316 500,-286 511,-264 515,-255 521,-248 528,-242"/>
<polygon style="fill:green;stroke:green;" points="530.779,-244.219 536,-235 526.169,-238.951 530.779,-244.219"/>
<text text-anchor="middle" x="533" y="-302.9" style="font-family:Times New Roman;font-size:14.00;fill:green;">Newline</text>
<text text-anchor="middle" x="533" y="-285.9" style="font-family:Times New Roman;font-size:14.00;fill:green;">CR</text>
<text text-anchor="middle" x="533" y="-268.9" style="font-family:Times New Roman;font-size:14.00;fill:green;">LF</text>
</g>
<!-- Numeric&#45;&gt;Numeric -->
<g id="edge30" class="edge"><title>Numeric&#45;&gt;Numeric</title>
<path style="fill:none;stroke:red;" d="M298,-360C311,-360 321,-357 321,-352 321,-348 316,-346 308,-345"/>
<polygon style="fill:red;stroke:red;" points="308.299,-341.512 298,-344 307.602,-348.478 308.299,-341.512"/>
<text text-anchor="middle" x="344" y="-347.9" style="font-family:Times New Roman;font-size:14.00;fill:red;">Numeric</text>
</g>
<!-- Numeric&#45;&gt;ALetter -->
<g id="edge32" class="edge"><title>Numeric&#45;&gt;ALetter</title>
<path style="fill:none;stroke:red;" d="M295,-342C311,-336 328,-328 340,-316 357,-298 349,-285 363,-264 367,-257 372,-251 377,-245"/>
<polygon style="fill:red;stroke:red;" points="380.049,-246.831 384,-237 374.781,-242.221 380.049,-246.831"/>
<text text-anchor="middle" x="384" y="-285.9" style="font-family:Times New Roman;font-size:14.00;fill:red;">ALetter</text>
</g>
<!-- ExtendNumLet -->
<g id="node21" class="node"><title>ExtendNumLet</title>
<ellipse style="fill:none;stroke:black;" cx="292" cy="-108" rx="68.9883" ry="18"/>
<text text-anchor="middle" x="292" y="-103.9" style="font-family:Times New Roman;font-size:14.00;">ExtendNumLet</text>
</g>
<!-- Numeric&#45;&gt;ExtendNumLet -->
<g id="edge36" class="edge"><title>Numeric&#45;&gt;ExtendNumLet</title>
<path style="fill:none;stroke:red;" d="M258,-334C256,-297 255,-211 276,-144 276,-141 277,-138 278,-136"/>
<polygon style="fill:red;stroke:red;" points="281.536,-136.585 282,-126 275.036,-133.985 281.536,-136.585"/>
<text text-anchor="middle" x="305" y="-216.9" style="font-family:Times New Roman;font-size:14.00;fill:red;">ExtendNumLet</text>
</g>
<!-- Numeric MidNum -->
<g id="node27" class="node"><title>Numeric MidNum</title>
<ellipse style="fill:none;stroke:black;" cx="142" cy="-221" rx="80.8024" ry="18"/>
<text text-anchor="middle" x="142" y="-216.9" style="font-family:Times New Roman;font-size:14.00;">Numeric MidNum</text>
</g>
<!-- Numeric&#45;&gt;Numeric MidNum -->
<g id="edge34" class="edge"><title>Numeric&#45;&gt;Numeric MidNum</title>
<path style="fill:none;stroke:red;" d="M216,-348C176,-343 120,-333 107,-316 92,-297 99,-285 107,-264 109,-257 112,-252 116,-247"/>
<polygon style="fill:red;stroke:red;" points="119.049,-248.831 123,-239 113.781,-244.221 119.049,-248.831"/>
<text text-anchor="middle" x="141" y="-294.4" style="font-family:Times New Roman;font-size:14.00;fill:red;">MidNum</text>
<text text-anchor="middle" x="141" y="-277.4" style="font-family:Times New Roman;font-size:14.00;fill:red;">MidNumLet</text>
</g>
<!-- ALetter&#45;&gt;Numeric -->
<g id="edge26" class="edge"><title>ALetter&#45;&gt;Numeric</title>
<path style="fill:none;stroke:red;" d="M374,-234C365,-238 356,-242 347,-246 323,-255 311,-246 293,-264 288,-268 276,-300 268,-324"/>
<polygon style="fill:red;stroke:red;" points="264.521,-323.416 265,-334 271.226,-325.427 264.521,-323.416"/>
<text text-anchor="middle" x="316" y="-285.9" style="font-family:Times New Roman;font-size:14.00;fill:red;">Numeric</text>
</g>
<!-- ALetter&#45;&gt;ALetter -->
<g id="edge20" class="edge"><title>ALetter&#45;&gt;ALetter</title>
<path style="fill:none;stroke:red;" d="M433,-232C447,-233 459,-229 459,-221 459,-215 452,-211 443,-210"/>
<polygon style="fill:red;stroke:red;" points="443,-206.5 433,-210 443,-213.5 443,-206.5"/>
<text text-anchor="middle" x="480" y="-216.9" style="font-family:Times New Roman;font-size:14.00;fill:red;">ALetter</text>
</g>
<!-- ALetter MidLetter -->
<g id="node19" class="node"><title>ALetter MidLetter</title>
<ellipse style="fill:none;stroke:black;" cx="496" cy="-108" rx="80.8024" ry="18"/>
<text text-anchor="middle" x="496" y="-103.9" style="font-family:Times New Roman;font-size:14.00;">ALetter MidLetter</text>
</g>
<!-- ALetter&#45;&gt;ALetter MidLetter -->
<g id="edge22" class="edge"><title>ALetter&#45;&gt;ALetter MidLetter</title>
<path style="fill:none;stroke:red;" d="M440,-216C463,-211 492,-200 507,-178 515,-165 513,-149 509,-136"/>
<polygon style="fill:red;stroke:red;" points="511.964,-133.985 505,-126 505.464,-136.585 511.964,-133.985"/>
<text text-anchor="middle" x="545" y="-165.4" style="font-family:Times New Roman;font-size:14.00;fill:red;">MidLetter</text>
<text text-anchor="middle" x="545" y="-148.4" style="font-family:Times New Roman;font-size:14.00;fill:red;">MidNumLet</text>
</g>
<!-- ALetter&#45;&gt;ExtendNumLet -->
<g id="edge24" class="edge"><title>ALetter&#45;&gt;ExtendNumLet</title>
<path style="fill:none;stroke:red;" d="M379,-206C370,-198 359,-188 351,-178 340,-164 345,-157 335,-144 331,-140 328,-136 324,-132"/>
<polygon style="fill:red;stroke:red;" points="325.831,-128.951 316,-125 321.221,-134.219 325.831,-128.951"/>
<text text-anchor="middle" x="393" y="-156.9" style="font-family:Times New Roman;font-size:14.00;fill:red;">ExtendNumLet</text>
</g>
<!-- Katakana&#45;&gt;Katakana -->
<g id="edge40" class="edge"><title>Katakana&#45;&gt;Katakana</title>
<path style="fill:none;stroke:red;" d="M440,-26C453,-26 463,-23 463,-18 463,-14 458,-12 450,-11"/>
<polygon style="fill:red;stroke:red;" points="450.299,-7.5125 440,-10 449.602,-14.4778 450.299,-7.5125"/>
<text text-anchor="middle" x="488" y="-13.9" style="font-family:Times New Roman;font-size:14.00;fill:red;">Katakana</text>
</g>
<!-- Katakana&#45;&gt;ExtendNumLet -->
<g id="edge42" class="edge"><title>Katakana&#45;&gt;ExtendNumLet</title>
<path style="fill:none;stroke:red;" d="M358,-26C332,-33 301,-43 293,-54 287,-61 286,-71 286,-80"/>
<polygon style="fill:red;stroke:red;" points="282.522,-80.3979 287,-90 289.488,-79.7013 282.522,-80.3979"/>
<text text-anchor="middle" x="335" y="-58.9" style="font-family:Times New Roman;font-size:14.00;fill:red;">ExtendNumLet</text>
</g>
<!-- Newline&#45;&gt;Newline -->
<g id="edge16" class="edge"><title>Newline&#45;&gt;Newline</title>
<path style="fill:none;stroke:green;" d="M592,-232C607,-233 619,-229 619,-221 619,-215 612,-211 602,-210"/>
<polygon style="fill:green;stroke:green;" points="602,-206.5 592,-210 602,-213.5 602,-206.5"/>
<text text-anchor="middle" x="641" y="-233.9" style="font-family:Times New Roman;font-size:14.00;fill:green;">Newline</text>
<text text-anchor="middle" x="641" y="-216.9" style="font-family:Times New Roman;font-size:14.00;fill:green;">CR</text>
<text text-anchor="middle" x="641" y="-199.9" style="font-family:Times New Roman;font-size:14.00;fill:green;">LF</text>
</g>
<!-- ALetter MidLetter&#45;&gt;ALetter -->
<g id="edge28" class="edge"><title>ALetter MidLetter&#45;&gt;ALetter</title>
<path style="fill:none;stroke:red;" d="M474,-126C468,-131 462,-137 458,-144 448,-157 451,-164 442,-178 437,-184 431,-191 426,-197"/>
<polygon style="fill:red;stroke:red;" points="422.951,-195.169 419,-205 428.219,-199.779 422.951,-195.169"/>
<text text-anchor="middle" x="479" y="-156.9" style="font-family:Times New Roman;font-size:14.00;fill:red;">ALetter</text>
</g>
<!-- ExtendNumLet&#45;&gt;Numeric -->
<g id="edge46" class="edge"><title>ExtendNumLet&#45;&gt;Numeric</title>
<path style="fill:none;stroke:red;" d="M233,-118C157,-131 32,-159 5,-196 -34,-249 33,-287 93,-316 128,-332 172,-342 206,-347"/>
<polygon style="fill:red;stroke:red;" points="205.701,-350.488 216,-348 206.398,-343.522 205.701,-350.488"/>
<text text-anchor="middle" x="28" y="-216.9" style="font-family:Times New Roman;font-size:14.00;fill:red;">Numeric</text>
</g>
<!-- ExtendNumLet&#45;&gt;ALetter -->
<g id="edge48" class="edge"><title>ExtendNumLet&#45;&gt;ALetter</title>
<path style="fill:none;stroke:red;" d="M285,-126C281,-141 278,-163 289,-178 305,-199 321,-186 347,-196 353,-198 359,-201 365,-204"/>
<polygon style="fill:red;stroke:red;" points="363.44,-207.137 374,-208 366.283,-200.74 363.44,-207.137"/>
<text text-anchor="middle" x="310" y="-156.9" style="font-family:Times New Roman;font-size:14.00;fill:red;">ALetter</text>
</g>
<!-- ExtendNumLet&#45;&gt;Katakana -->
<g id="edge44" class="edge"><title>ExtendNumLet&#45;&gt;Katakana</title>
<path style="fill:none;stroke:red;" d="M340,-95C354,-90 367,-82 377,-72 384,-65 389,-55 392,-46"/>
<polygon style="fill:red;stroke:red;" points="395.479,-46.584 395,-36 388.774,-44.5725 395.479,-46.584"/>
<text text-anchor="middle" x="411" y="-58.9" style="font-family:Times New Roman;font-size:14.00;fill:red;">Katakana</text>
</g>
<!-- Numeric MidNum&#45;&gt;Numeric -->
<g id="edge38" class="edge"><title>Numeric MidNum&#45;&gt;Numeric</title>
<path style="fill:none;stroke:red;" d="M157,-239C163,-246 170,-255 175,-264 187,-285 181,-297 198,-316 204,-323 212,-329 220,-334"/>
<polygon style="fill:red;stroke:red;" points="218.559,-337.203 229,-339 221.958,-331.084 218.559,-337.203"/>
<text text-anchor="middle" x="221" y="-285.9" style="font-family:Times New Roman;font-size:14.00;fill:red;">Numeric</text>
</g>
</g>
</svg>
