<?xml version="1.0" encoding="utf-8"?>
<!-- Generator: Adobe Illustrator 14.0.0, SVG Export Plug-In . SVG Version: 6.00 Build 43363)  -->
<svg version="1.1" id="extension" xmlns="http://www.w3.org/2000/svg" xmlns:xlink="http://www.w3.org/1999/xlink" x="0px" y="0px"
	 width="128px" height="128px" viewBox="19 109 128 128" enable-background="new 19 109 128 128" xml:space="preserve">
<filter  id="Gaussian_Blur">
	<feGaussianBlur  in="SourceGraphic" stdDeviation="1"></feGaussianBlur>
</filter>
<g filter="url(#Gaussian_Blur)">
	<radialGradient id="outershadow_1_" cx="-121.5313" cy="23.4561" r="1" fx="-121.4573" fy="24.0011" gradientTransform="matrix(61 0 0 -5.5 7496.4063 355.5078)" gradientUnits="userSpaceOnUse">
		<stop  offset="0" style="stop-color:#000000;stop-opacity:0.54"/>
		<stop  offset="0.6523" style="stop-color:#000000;stop-opacity:0.12"/>
	</radialGradient>
	<path id="outershadow" fill="url(#outershadow_1_)" d="M128,232c8.777,0,16-2.482,16-5.5l0,0c0-3.018-7.223-5.5-16-5.5H38
		c-8.777,0-16,2.482-16,5.5l0,0c0,3.018,7.223,5.5,16,5.5H128z"/>
</g>
<g filter="url(#Gaussian_Blur)">
	<linearGradient id="innershadow_1_" gradientUnits="userSpaceOnUse" x1="631.1006" y1="-973.9902" x2="631.1006" y2="-967.9902" gradientTransform="matrix(1 0 0 -1 -547.5996 -742.9902)">
		<stop  offset="0" style="stop-color:#000000;stop-opacity:0.44"/>
		<stop  offset="1" style="stop-color:#000000;stop-opacity:0.17"/>
	</linearGradient>
	<path id="innershadow" fill="url(#innershadow_1_)" d="M127,231c6.583,0,12-1.354,12-3l0,0c0-1.646-5.417-3-12-3H40
		c-6.583,0-12,1.354-12,3l0,0c0,1.646,5.417,3,12,3H127z"/>
</g>
<linearGradient id="outerborder_1_" gradientUnits="userSpaceOnUse" x1="483.1006" y1="723.4902" x2="483.1006" y2="838.4902" gradientTransform="matrix(1 0 0 1 -400.0996 -607.9902)">
	<stop  offset="0" style="stop-color:#642A81"/>
	<stop  offset="0.4601" style="stop-color:#1D0D26"/>
</linearGradient>
<path id="outerborder" fill="url(#outerborder_1_)" d="M140.5,217.465c0,7.199-5.836,13.035-13.034,13.035H38.534
	c-7.199,0-13.034-5.836-13.034-13.035v-88.93c0-7.199,5.835-13.035,13.034-13.035h88.932c7.198,0,13.034,5.836,13.034,13.035
	V217.465z"/>
<linearGradient id="color_1_" gradientUnits="userSpaceOnUse" x1="483.1006" y1="724.9902" x2="483.1006" y2="836.9902" gradientTransform="matrix(1 0 0 1 -400.0996 -607.9902)">
	<stop  offset="0" style="stop-color:#D174F0"/>
	<stop  offset="0.7634" style="stop-color:#69009E"/>
</linearGradient>
<path id="color" fill="url(#color_1_)" d="M139,217c0,6.6-5.4,12-12,12H39c-6.6,0-12-5.4-12-12v-88c0-6.6,5.4-12,12-12h88
	c6.6,0,12,5.4,12,12V217z"/>
<linearGradient id="gloss_1_" gradientUnits="userSpaceOnUse" x1="483.1006" y1="724.9902" x2="483.1006" y2="730.2899" gradientTransform="matrix(1 0 0 1 -400.0996 -607.9902)">
	<stop  offset="0" style="stop-color:#FFFFFF;stop-opacity:0.6"/>
	<stop  offset="0.7634" style="stop-color:#FFFFFF;stop-opacity:0.2"/>
</linearGradient>
<path id="gloss" fill="url(#gloss_1_)" d="M127,117H39c-6.6,0-12,5.4-12,12v3c0-6.6,5.4-12,12-12h88c6.6,0,12,5.4,12,12v-3
	C139,122.4,133.6,117,127,117z"/>
<linearGradient id="innerborder_1_" gradientUnits="userSpaceOnUse" x1="483.1006" y1="725.4131" x2="483.1006" y2="836.1062" gradientTransform="matrix(1 0 0 1 -400.0996 -607.9902)">
	<stop  offset="0" style="stop-color:#FFFFFF;stop-opacity:0.6"/>
	<stop  offset="0.7634" style="stop-color:#FFFFFF;stop-opacity:0.2"/>
</linearGradient>
<path id="innerborder" fill="url(#innerborder_1_)" d="M127,117H39c-6.6,0-12,5.4-12,12v88c0,6.6,5.4,12,12,12h88
	c6.6,0,12-5.4,12-12v-88C139,122.4,133.6,117,127,117z M138,217c0,6.05-4.95,11-11,11H39c-6.05,0-11-4.95-11-11v-88
	c0-6.05,4.95-11,11-11h88c6.05,0,11,4.95,11,11V217z"/>
<g id="icon">
	<linearGradient id="color_3_" gradientUnits="userSpaceOnUse" x1="84.25" y1="128.9995" x2="84.25" y2="216.5005">
		<stop  offset="0" style="stop-color:#FFFFFF"/>
		<stop  offset="1" style="stop-color:#DADADA"/>
	</linearGradient>
	<path id="color_2_" fill="url(#color_3_)" d="M40.5,156.674c0-2.305,1.884-4.191,4.192-4.191h20.717
		c0.057-0.032,0.131-0.093,0.159-0.133c0.725-1.117,0.296-3.225-0.509-4.723c-0.558-1.044-1.353-1.927-2.191-2.863
		c-1.525-1.698-3.256-3.625-3.256-6.621c0-4.807,4.451-7.887,8.59-8.713c1.406-0.281,2.888-0.43,4.281-0.43
		c1.402,0,2.891,0.149,4.303,0.429c4.152,0.826,8.618,3.906,8.618,8.713c0,2.998-1.738,4.925-3.27,6.625
		c-0.844,0.935-1.642,1.818-2.201,2.861c-0.802,1.498-1.234,3.604-0.502,4.73c0.025,0.032,0.1,0.092,0.153,0.125h20.74
		c2.304,0,4.19,1.886,4.19,4.191v20.721c0.033,0.053,0.093,0.127,0.132,0.156c0.38,0.247,0.892,0.374,1.511,0.374
		c0.984,0,2.187-0.33,3.216-0.882c1.041-0.556,1.929-1.351,2.861-2.191c1.698-1.528,3.625-3.258,6.625-3.258
		c4.805,0,7.883,4.454,8.709,8.593c0.279,1.401,0.43,2.887,0.43,4.283c0,1.403-0.15,2.889-0.43,4.299
		c-0.825,4.152-3.902,8.62-8.709,8.62c-3,0-4.928-1.738-6.627-3.272c-0.933-0.841-1.818-1.639-2.862-2.2
		c-1.028-0.553-2.229-0.881-3.213-0.881c-0.619,0-1.129,0.128-1.516,0.377c-0.036,0.028-0.094,0.1-0.127,0.156v20.741
		c0,2.306-1.887,4.19-4.19,4.19H84.079c-0.877,0-1.636-0.684-1.936-1.141c-1.354-2.084-0.625-5.072,0.408-7
		c0.689-1.281,1.615-2.307,2.511-3.302c1.447-1.603,2.696-2.988,2.696-5.131c0-3.55-3.537-5.869-6.825-6.522
		c-1.272-0.255-2.607-0.389-3.865-0.389c-1.252,0-2.581,0.134-3.849,0.389c-3.273,0.653-6.797,2.973-6.797,6.522
		c0,2.143,1.246,3.528,2.688,5.134c0.895,0.993,1.814,2.019,2.499,3.3c1.032,1.929,1.757,4.915,0.409,6.995
		c-0.297,0.459-1.055,1.145-1.934,1.145H44.692c-2.309,0-4.192-1.885-4.192-4.19v-29.718c0-0.879,0.682-1.639,1.139-1.938
		c0.755-0.492,1.674-0.739,2.732-0.739c1.925,0,3.626,0.803,4.27,1.149c1.281,0.687,2.309,1.611,3.302,2.51
		c1.604,1.443,2.987,2.693,5.131,2.693c3.547,0,5.868-3.536,6.522-6.823c0.255-1.271,0.387-2.607,0.387-3.863
		c0-1.252-0.132-2.583-0.387-3.851c-0.654-3.272-2.974-6.795-6.522-6.795c-2.145,0-3.529,1.244-5.131,2.687
		c-0.997,0.892-2.022,1.815-3.304,2.501c-0.642,0.343-2.345,1.143-4.268,1.143c-1.057,0-1.976-0.25-2.729-0.736
		c-0.461-0.296-1.143-1.058-1.143-1.934V156.674z"/>
	<g id="shadow">
		<path opacity="0.6" fill="#290033" d="M79.432,152.358c-0.154-0.236-0.246-0.522-0.304-0.831
			c-0.138,0.894-0.077,1.746,0.304,2.332c0.025,0.031,0.1,0.093,0.153,0.124h20.74c2.304,0,4.19,1.886,4.19,4.192v-1.501
			c0-2.305-1.887-4.191-4.19-4.191h-20.74C79.531,152.45,79.457,152.39,79.432,152.358z"/>
		<path opacity="0.6" fill="#290033" d="M68.202,130.931c1.406-0.281,2.888-0.43,4.281-0.43c1.402,0,2.891,0.148,4.303,0.429
			c3.907,0.777,8.09,3.551,8.57,7.88c0.02-0.22,0.048-0.436,0.048-0.668c0-4.807-4.466-7.887-8.618-8.713
			c-1.412-0.28-2.9-0.429-4.303-0.429c-1.394,0-2.875,0.149-4.281,0.43c-4.139,0.826-8.59,3.906-8.59,8.713
			c0,0.233,0.028,0.449,0.048,0.669C60.139,134.481,64.308,131.708,68.202,130.931z"/>
		<path opacity="0.6" fill="#290033" d="M104.516,178.896c0.033,0.052,0.093,0.125,0.132,0.156c0.38,0.245,0.892,0.372,1.511,0.372
			c0.984,0,2.187-0.329,3.216-0.879c1.041-0.557,1.929-1.352,2.861-2.192c1.698-1.529,3.625-3.259,6.625-3.259
			c4.805,0,7.883,4.454,8.709,8.592c0.23,1.158,0.349,2.363,0.392,3.536c0.009-0.25,0.038-0.506,0.038-0.752
			c0-1.396-0.15-2.882-0.43-4.283c-0.826-4.139-3.904-8.593-8.709-8.593c-3,0-4.927,1.729-6.625,3.258
			c-0.933,0.841-1.82,1.636-2.861,2.191c-1.029,0.552-2.231,0.882-3.216,0.882c-0.619,0-1.131-0.127-1.511-0.374
			c-0.039-0.029-0.099-0.104-0.132-0.156V178.896z"/>
		<path opacity="0.6" fill="#290033" d="M85.063,206.559c1.447-1.602,2.696-2.989,2.696-5.13c0-0.252-0.022-0.495-0.057-0.734
			c-0.258,1.724-1.373,2.96-2.64,4.363c-0.896,0.995-1.821,2.021-2.511,3.302c-0.722,1.348-1.278,3.209-1.096,4.921
			c0.145-1.241,0.582-2.462,1.096-3.42C83.241,208.578,84.167,207.553,85.063,206.559z"/>
		<path opacity="0.6" fill="#290033" d="M69.11,205.061c-1.262-1.405-2.374-2.643-2.631-4.367c-0.034,0.239-0.056,0.483-0.056,0.735
			c0,2.141,1.246,3.528,2.688,5.132c0.895,0.994,1.814,2.02,2.499,3.302c0.513,0.958,0.949,2.179,1.094,3.42
			c0.182-1.711-0.372-3.573-1.094-4.922C70.925,207.079,70.005,206.054,69.11,205.061z"/>
		<path opacity="0.6" fill="#290033" d="M41.639,182.154c0.755-0.492,1.674-0.741,2.732-0.741c1.925,0,3.626,0.806,4.27,1.152
			c1.281,0.687,2.309,1.612,3.302,2.509c1.604,1.446,2.987,2.697,5.131,2.697c3.547,0,5.868-3.537,6.522-6.828
			c0.255-1.271,0.387-2.607,0.387-3.862c0-0.244-0.028-0.5-0.038-0.749c-0.041,1.032-0.144,2.09-0.349,3.112
			c-0.654,3.287-2.976,6.823-6.522,6.823c-2.144,0-3.527-1.25-5.131-2.693c-0.993-0.898-2.021-1.823-3.302-2.51
			c-0.644-0.347-2.345-1.149-4.27-1.149c-1.059,0-1.978,0.247-2.732,0.739c-0.457,0.299-1.139,1.059-1.139,1.938v1.501
			C40.5,183.216,41.182,182.453,41.639,182.154z"/>
		<path opacity="0.6" fill="#290033" d="M44.692,153.983h20.717c0.057-0.031,0.131-0.092,0.159-0.132
			c0.377-0.581,0.437-1.431,0.3-2.322c-0.058,0.305-0.148,0.588-0.3,0.821c-0.028,0.04-0.103,0.101-0.159,0.133H44.692
			c-2.309,0-4.192,1.886-4.192,4.191v1.501C40.5,155.869,42.384,153.983,44.692,153.983z"/>
	</g>
	<g id="highlight">
		<path opacity="0.7" fill="#FFFFFF" d="M41.643,170.529c0.753,0.487,1.672,0.736,2.729,0.736c1.923,0,3.626-0.8,4.268-1.143
			c1.281-0.686,2.307-1.609,3.304-2.501c1.602-1.443,2.986-2.687,5.131-2.687c3.549,0,5.868,3.523,6.522,6.795
			c0.213,1.058,0.318,2.151,0.354,3.215c0.007-0.212,0.032-0.431,0.032-0.639c0-1.251-0.132-2.582-0.387-3.847
			c-0.654-3.273-2.974-6.796-6.522-6.796c-2.145,0-3.529,1.245-5.131,2.686c-0.997,0.893-2.022,1.815-3.304,2.501
			c-0.642,0.344-2.345,1.143-4.268,1.143c-1.057,0-1.976-0.247-2.729-0.735c-0.461-0.297-1.143-1.058-1.143-1.934v1.271
			C40.5,169.472,41.182,170.233,41.643,170.529z"/>
		<path opacity="0.7" fill="#FFFFFF" d="M65.06,147.626c0.407,0.758,0.716,1.67,0.83,2.533c0.179-1.145-0.211-2.653-0.83-3.805
			c-0.558-1.043-1.353-1.927-2.191-2.862c-1.425-1.587-3.01-3.384-3.215-6.055c-0.022,0.232-0.041,0.465-0.041,0.705
			c0,2.997,1.73,4.923,3.256,6.621C63.707,145.699,64.502,146.583,65.06,147.626z"/>
		<path opacity="0.7" fill="#FFFFFF" d="M79.934,146.355c-0.615,1.15-1.008,2.654-0.828,3.802c0.114-0.862,0.423-1.773,0.828-2.53
			c0.56-1.043,1.357-1.927,2.201-2.861c1.531-1.7,3.27-3.627,3.27-6.625c0-0.241-0.02-0.474-0.041-0.706
			c-0.206,2.673-1.798,4.47-3.229,6.059C81.289,144.429,80.493,145.313,79.934,146.355z"/>
		<path opacity="0.7" fill="#FFFFFF" d="M100.325,215.229H84.079c-0.877,0-1.638-0.684-1.938-1.142
			c-0.424-0.653-0.625-1.399-0.695-2.171c-0.12,1.211,0.041,2.434,0.697,3.443c0.3,0.457,1.059,1.141,1.936,1.141h16.246
			c2.304,0,4.19-1.885,4.19-4.19v-1.271C104.516,213.343,102.629,215.229,100.325,215.229z"/>
		<path opacity="0.7" fill="#FFFFFF" d="M127.569,187.499c-0.825,4.15-3.902,8.618-8.709,8.618c-3,0-4.928-1.738-6.627-3.271
			c-0.933-0.843-1.818-1.642-2.862-2.201c-1.028-0.555-2.229-0.883-3.213-0.883c-0.619,0-1.129,0.13-1.516,0.377
			c-0.036,0.029-0.094,0.101-0.127,0.156v1.272c0.033-0.057,0.091-0.128,0.127-0.156c0.387-0.249,0.896-0.377,1.516-0.377
			c0.984,0,2.185,0.328,3.213,0.881c1.044,0.562,1.93,1.359,2.862,2.2c1.699,1.534,3.627,3.272,6.627,3.272
			c4.807,0,7.884-4.468,8.709-8.62c0.279-1.41,0.43-2.896,0.43-4.299c0-0.207-0.026-0.425-0.032-0.635
			C127.929,185.048,127.808,186.297,127.569,187.499z"/>
		<path opacity="0.7" fill="#FFFFFF" d="M72.019,214.085c-0.297,0.458-1.055,1.144-1.934,1.144H44.692
			c-2.309,0-4.192-1.886-4.192-4.19v1.271c0,2.306,1.884,4.19,4.192,4.19h25.393c0.879,0,1.637-0.686,1.934-1.145
			c0.654-1.009,0.813-2.231,0.693-3.442C72.643,212.685,72.442,213.432,72.019,214.085z"/>
		<path opacity="0.7" fill="#FFFFFF" d="M87.715,199.257c0.022-0.195,0.044-0.391,0.044-0.6c0-3.553-3.537-5.871-6.825-6.525
			c-1.272-0.254-2.607-0.388-3.865-0.388c-1.252,0-2.581,0.134-3.849,0.388c-3.273,0.654-6.797,2.973-6.797,6.525
			c0,0.208,0.021,0.404,0.044,0.6c0.41-3.171,3.69-5.241,6.753-5.853c1.268-0.255,2.597-0.389,3.849-0.389
			c1.258,0,2.593,0.134,3.865,0.389C84.01,194.016,87.304,196.086,87.715,199.257z"/>
	</g>
	<g id="dropshadow">
		<path opacity="0.2" d="M85.063,208.758c1.447-1.602,2.696-2.989,2.696-5.13c0-0.669-0.126-1.294-0.352-1.872
			c-0.468,1.205-1.354,2.205-2.345,3.302c-0.896,0.995-1.821,2.021-2.511,3.302c-0.875,1.633-1.517,4.021-0.875,5.98
			c0.211-0.831,0.521-1.62,0.875-2.28C83.241,210.777,84.167,209.752,85.063,208.758z"/>
		<path opacity="0.2" d="M68.202,133.13c1.406-0.282,2.888-0.43,4.281-0.43c1.402,0,2.891,0.148,4.303,0.429
			c3.585,0.712,7.397,3.109,8.374,6.843c0.148-0.566,0.244-1.168,0.244-1.83c0-4.807-4.466-7.887-8.618-8.713
			c-1.412-0.28-2.9-0.429-4.303-0.429c-1.394,0-2.875,0.149-4.281,0.43c-4.139,0.826-8.59,3.906-8.59,8.713
			c0,0.662,0.096,1.264,0.244,1.831C60.829,136.238,64.629,133.842,68.202,133.13z"/>
		<path opacity="0.2" d="M79.47,152.394c-0.468,1.316-0.609,2.787-0.038,3.664c0.025,0.031,0.1,0.093,0.153,0.125h20.74
			c2.304,0,4.19,1.887,4.19,4.191v-3.699c0-2.305-1.887-4.191-4.19-4.191h-20.74C79.547,152.459,79.503,152.425,79.47,152.394z"/>
		<path opacity="0.2" d="M104.516,181.093c0.033,0.053,0.093,0.128,0.132,0.157c0.38,0.246,0.892,0.373,1.511,0.373
			c0.984,0,2.187-0.329,3.216-0.88c1.041-0.556,1.929-1.351,2.861-2.191c1.698-1.529,3.625-3.258,6.625-3.258
			c4.805,0,7.883,4.454,8.709,8.59c0.159,0.799,0.263,1.62,0.335,2.439c0.054-0.624,0.095-1.248,0.095-1.854
			c0-1.396-0.15-2.882-0.43-4.283c-0.826-4.139-3.904-8.593-8.709-8.593c-3,0-4.927,1.729-6.625,3.258
			c-0.933,0.841-1.82,1.636-2.861,2.191c-1.029,0.552-2.231,0.882-3.216,0.882c-0.619,0-1.131-0.127-1.511-0.374
			c-0.039-0.029-0.099-0.104-0.132-0.156V181.093z"/>
		<path opacity="0.2" d="M69.11,205.061c-0.986-1.099-1.871-2.1-2.337-3.306c-0.225,0.579-0.35,1.204-0.35,1.873
			c0,2.141,1.246,3.528,2.688,5.132c0.895,0.994,1.814,2.02,2.499,3.302c0.354,0.66,0.664,1.449,0.874,2.279
			c0.64-1.958,0-4.347-0.874-5.98C70.925,207.079,70.005,206.054,69.11,205.061z"/>
		<path opacity="0.2" d="M44.692,156.182h20.717c0.057-0.032,0.131-0.093,0.159-0.132c0.564-0.871,0.425-2.341-0.043-3.657
			c-0.035,0.033-0.077,0.067-0.116,0.089H44.692c-2.309,0-4.192,1.886-4.192,4.191v3.699
			C40.5,158.069,42.384,156.182,44.692,156.182z"/>
		<path opacity="0.2" d="M41.639,184.354c0.755-0.493,1.674-0.74,2.732-0.74c1.925,0,3.626,0.806,4.27,1.151
			c1.281,0.687,2.309,1.611,3.302,2.51c1.604,1.443,2.987,2.694,5.131,2.694c3.547,0,5.868-3.537,6.522-6.827
			c0.255-1.271,0.387-2.605,0.387-3.861c0-0.603-0.034-1.224-0.094-1.847c-0.064,0.675-0.16,1.352-0.292,2.011
			c-0.654,3.287-2.976,6.823-6.522,6.823c-2.144,0-3.527-1.25-5.131-2.693c-0.993-0.898-2.021-1.823-3.302-2.51
			c-0.644-0.347-2.345-1.149-4.27-1.149c-1.059,0-1.978,0.247-2.732,0.739c-0.457,0.299-1.139,1.059-1.139,1.938v3.7
			C40.5,185.414,41.182,184.653,41.639,184.354z"/>
	</g>
</g>
</svg>
