/* XPM */
static char * opera_browser_xpm[] = {
"32 32 437 2",
"  	c None",
". 	c #FEE5E6",
"+ 	c #FFE6E5",
"@ 	c #FFE2E2",
"# 	c #FFDFE0",
"$ 	c #FFDDDD",
"% 	c #FED9D8",
"& 	c #FED6D6",
"* 	c #FED1CF",
"= 	c #FEE1E2",
"- 	c #FEE0E0",
"; 	c #FED2D3",
"> 	c #FDC0C3",
", 	c #FDA8AB",
"' 	c #FD9DA1",
") 	c #FD949A",
"! 	c #FC9296",
"~ 	c #FD969A",
"{ 	c #FD9B9E",
"] 	c #FEAEAF",
"^ 	c #FDB7B6",
"/ 	c #FEBCBB",
"( 	c #FDB5B4",
"_ 	c #FEDCDB",
": 	c #FED1D1",
"< 	c #FDADB0",
"[ 	c #FD9397",
"} 	c #FD9094",
"| 	c #E26162",
"1 	c #D64C4D",
"2 	c #D84F50",
"3 	c #DD5456",
"4 	c #D74A4B",
"5 	c #EE6B6D",
"6 	c #FD7D81",
"7 	c #FC7B7E",
"8 	c #FD8D8F",
"9 	c #FDA5A4",
"0 	c #FDA2A0",
"a 	c #FD9E9A",
"b 	c #FDD0D0",
"c 	c #FED0D0",
"d 	c #FDC4C4",
"e 	c #FD8F94",
"f 	c #FC898E",
"g 	c #FC868B",
"h 	c #D04444",
"i 	c #AC3333",
"j 	c #7B1E1D",
"k 	c #681111",
"l 	c #681110",
"m 	c #7D1D1C",
"n 	c #B12C2C",
"o 	c #DF5051",
"p 	c #FC6C6F",
"q 	c #FC686C",
"r 	c #FC696B",
"s 	c #FD9190",
"t 	c #FD8F8C",
"u 	c #FC8886",
"v 	c #FEC4C3",
"w 	c #FDC2C1",
"x 	c #FEBCBC",
"y 	c #FC8488",
"z 	c #FD7E82",
"A 	c #FD7C80",
"B 	c #E15759",
"C 	c #9C1F1F",
"D 	c #610C0C",
"E 	c #610A0B",
"F 	c #A92121",
"G 	c #F05356",
"H 	c #FC5B5D",
"I 	c #FC565A",
"J 	c #FC5659",
"K 	c #FD7E7E",
"L 	c #FC7A78",
"M 	c #FC7774",
"N 	c #FEB7B8",
"O 	c #FC797D",
"P 	c #FC7478",
"Q 	c #FC7275",
"R 	c #FC6E70",
"S 	c #C02D2D",
"T 	c #690D0D",
"U 	c #780F10",
"V 	c #BF2D2D",
"W 	c #FB4D51",
"X 	c #FA4B4F",
"Y 	c #FA494D",
"Z 	c #F74A4E",
"` 	c #F77373",
" .	c #F76866",
"..	c #FEA8A6",
"+.	c #FDACAC",
"@.	c #FC7F81",
"#.	c #FC696C",
"$.	c #FC6668",
"%.	c #FC6266",
"&.	c #EF5556",
"*.	c #B02425",
"=.	c #610609",
"-.	c #B82426",
";.	c #F24345",
">.	c #F54246",
",.	c #F33F44",
"'.	c #F13D41",
").	c #F04B4D",
"!.	c #EE6463",
"~.	c #E25150",
"{.	c #FD9B99",
"].	c #FD9696",
"^.	c #FC5C60",
"/.	c #FC5A5C",
"(.	c #FC575B",
"_.	c #FC5457",
":.	c #E03E3F",
"<.	c #971A1B",
"[.	c #610508",
"}.	c #A31D1E",
"|.	c #E03437",
"1.	c #ED3A3D",
"2.	c #EC383B",
"3.	c #EA3539",
"4.	c #E73338",
"5.	c #E65858",
"6.	c #CF4645",
"7.	c #C63C3B",
"8.	c #FD8B88",
"9.	c #FD9392",
"0.	c #FB6062",
"a.	c #FA4E53",
"b.	c #F94B4F",
"c.	c #D33334",
"d.	c #7C0F11",
"e.	c #881214",
"f.	c #D12D2F",
"g.	c #E53034",
"h.	c #E22F32",
"i.	c #DE2D31",
"j.	c #DC2C2F",
"k.	c #D93436",
"l.	c #D04A49",
"m.	c #B02E2E",
"n.	c #FC7D7B",
"o.	c #FD8586",
"p.	c #F7474B",
"q.	c #F7454A",
"r.	c #F64347",
"s.	c #F44244",
"t.	c #C92C2D",
"u.	c #710C0D",
"v.	c #7C0E0F",
"w.	c #C92A2B",
"x.	c #D7282C",
"y.	c #D5272A",
"z.	c #D12529",
"A.	c #CE2326",
"B.	c #CA2124",
"C.	c #CC4745",
"D.	c #9D2424",
"E.	c #FC716F",
"F.	c #FC7574",
"G.	c #F86565",
"H.	c #F33F42",
"I.	c #F23D41",
"J.	c #F13B3F",
"K.	c #ED393D",
"L.	c #EB373B",
"M.	c #C4292A",
"N.	c #6A080A",
"O.	c #73080B",
"P.	c #C52A2B",
"Q.	c #C92023",
"R.	c #C61F22",
"S.	c #C21C20",
"T.	c #BF1B1F",
"U.	c #BD191D",
"V.	c #BE2E2F",
"W.	c #9C2625",
"X.	c #851618",
"Y.	c #F1615E",
"Z.	c #F26C6B",
"`.	c #EF4B4C",
" +	c #EB363A",
".+	c #E93438",
"++	c #E53336",
"@+	c #E12F32",
"#+	c #C3292A",
"$+	c #660208",
"%+	c #6B0007",
"&+	c #C92D2E",
"*+	c #B9181C",
"=+	c #B7171A",
"-+	c #B41518",
";+	c #B01317",
">+	c #AD1115",
",+	c #B11D1E",
"'+	c #A22827",
")+	c #7E1315",
"!+	c #DF4F4D",
"~+	c #EA6866",
"{+	c #E33639",
"]+	c #DF2D30",
"^+	c #DD2C2F",
"/+	c #DB2A2E",
"(+	c #D42629",
"_+	c #650005",
":+	c #6B0006",
"<+	c #CC3030",
"[+	c #AB1015",
"}+	c #A70F13",
"|+	c #A50D12",
"1+	c #A20D11",
"2+	c #9F0A10",
"3+	c #9F0E11",
"4+	c #A32624",
"5+	c #771012",
"6+	c #C73D3C",
"7+	c #E36160",
"8+	c #D5272B",
"9+	c #D12629",
"0+	c #CE2327",
"a+	c #CC2225",
"b+	c #C91F23",
"c+	c #C71E21",
"d+	c #C72B2C",
"e+	c #660004",
"f+	c #6A0002",
"g+	c #D13334",
"h+	c #9F090F",
"i+	c #9B070D",
"j+	c #99050D",
"k+	c #96030C",
"l+	c #93000B",
"m+	c #91000A",
"n+	c #A02020",
"o+	c #720E10",
"p+	c #B12F2E",
"q+	c #D85553",
"r+	c #C71E22",
"s+	c #C31D20",
"t+	c #C11B1F",
"u+	c #BC1A1E",
"v+	c #B9181B",
"w+	c #B71619",
"x+	c #CA2E2F",
"y+	c #690005",
"z+	c #6F0003",
"A+	c #D53737",
"B+	c #900009",
"C+	c #8E0009",
"D+	c #8B0007",
"E+	c #890006",
"F+	c #971918",
"G+	c #6B0C0E",
"H+	c #9B2222",
"I+	c #CC4A48",
"J+	c #B8171A",
"K+	c #B41619",
"L+	c #B11317",
"M+	c #AE1216",
"N+	c #AB0F15",
"O+	c #CC3031",
"P+	c #6B0003",
"Q+	c #750003",
"R+	c #D83939",
"S+	c #890005",
"T+	c #870004",
"U+	c #860004",
"V+	c #840004",
"W+	c #830003",
"X+	c #8D1212",
"Y+	c #66090C",
"Z+	c #881819",
"`+	c #C13F3E",
" @	c #A91114",
".@	c #A60E12",
"+@	c #A40C11",
"@@	c #A00A10",
"#@	c #9E0A0F",
"$@	c #9C080E",
"%@	c #D03333",
"&@	c #700003",
"*@	c #810007",
"=@	c #830004",
"-@	c #840A0D",
";@	c #60090B",
">@	c #801416",
",@	c #AE2F2D",
"'@	c #A01114",
")@	c #99060E",
"!@	c #96050B",
"~@	c #96000C",
"{@	c #90000A",
"]@	c #D03334",
"^@	c #7B0007",
"/@	c #8B0009",
"(@	c #D83839",
"_@	c #850004",
":@	c #840005",
"<@	c #78040A",
"[@	c #5B070A",
"}@	c #7A1113",
"|@	c #972020",
"1@	c #9B1315",
"2@	c #8F0009",
"3@	c #8D0008",
"4@	c #8A0006",
"5@	c #CC2F30",
"6@	c #8A000C",
"7@	c #9D030F",
"8@	c #D23335",
"9@	c #800005",
"0@	c #690007",
"a@	c #570609",
"b@	c #7E1314",
"c@	c #991918",
"d@	c #C3292B",
"e@	c #9B0A11",
"f@	c #AC0F15",
"g@	c #C92B2E",
"h@	c #850003",
"i@	c #590407",
"j@	c #6E0C0F",
"k@	c #941717",
"l@	c #860007",
"m@	c #B82023",
"n@	c #AE1419",
"o@	c #C01D21",
"p@	c #B91F24",
"q@	c #880004",
"r@	c #6A0005",
"s@	c #500507",
"t@	c #660A0C",
"u@	c #770E0F",
"v@	c #88040C",
"w@	c #840003",
"x@	c #A51117",
"y@	c #C7272A",
"z@	c #970004",
"A@	c #A30006",
"B@	c #D83334",
"C@	c #A20C14",
"D@	c #710003",
"E@	c #530305",
"F@	c #4A0406",
"G@	c #5F070A",
"H@	c #81070B",
"I@	c #8F000B",
"J@	c #E03D3D",
"K@	c #A10006",
"L@	c #B61015",
"M@	c #E64243",
"N@	c #820004",
"O@	c #810004",
"P@	c #7F0003",
"Q@	c #7B0003",
"R@	c #5D0102",
"S@	c #480305",
"T@	c #5F060A",
"U@	c #7C0006",
"V@	c #CD2F31",
"W@	c #C11A1D",
"X@	c #D93335",
"Y@	c #BA2527",
"Z@	c #7E0004",
"`@	c #7C0004",
" #	c #7B0004",
".#	c #780003",
"+#	c #5D0002",
"@#	c #470404",
"##	c #550508",
"$#	c #5E0007",
"%#	c #770003",
"&#	c #94000F",
"*#	c #E94345",
"=#	c #C21F21",
"-#	c #D43535",
";#	c #E94647",
">#	c #7E0008",
",#	c #760003",
"'#	c #740004",
")#	c #5C0002",
"!#	c #490102",
"~#	c #420001",
"{#	c #4F0608",
"]#	c #540306",
"^#	c #6C0003",
"/#	c #7F0004",
"(#	c #800004",
"_#	c #9D1016",
":#	c #DB3B3C",
"<#	c #DE3E3F",
"[#	c #E14042",
"}#	c #E44445",
"|#	c #E64546",
"1#	c #81010C",
"2#	c #520105",
"3#	c #410003",
"4#	c #3B0000",
"5#	c #4B0406",
"6#	c #5C0004",
"7#	c #6A0003",
"8#	c #7A0008",
"9#	c #9E171A",
"0#	c #B02225",
"a#	c #AB2123",
"b#	c #941417",
"c#	c #6D0003",
"d#	c #690003",
"e#	c #650003",
"f#	c #540005",
"g#	c #440405",
"h#	c #370000",
"i#	c #420404",
"j#	c #440203",
"k#	c #500004",
"l#	c #570002",
"m#	c #600003",
"n#	c #5F0002",
"o#	c #620004",
"p#	c #5E0004",
"q#	c #580004",
"r#	c #4A0005",
"s#	c #400206",
"t#	c #350001",
"u#	c #310000",
"v#	c #1B0200",
"w#	c #2A0000",
"x#	c #300000",
"y#	c #360001",
"z#	c #2E0001",
"A#	c #2B0000",
"B#	c #230000",
"C#	c #170000",
"D#	c #0A0000",
"                                                                ",
"                        . + @ # $ % & *                         ",
"                  = - ; > , ' ) ! ~ { ] ^ / (                   ",
"              _ % : < [ } | 1 2 3 4 5 6 7 8 9 0 a               ",
"            b c d e f g h i j k l m n o p q r s t u             ",
"          v w x y z A B C D         E F G H I J K L M           ",
"          ( N O P Q R S T             U V W X Y Z `  .          ",
"        ..+.@.#.$.%.&.*.E             =.-.;.>.,.'.).!.~.        ",
"      {.{.].^./.(._.:.<.              [.}.|.1.2.3.4.5.6.7.      ",
"      8.9.0.a.W b.Y c.d.                e.f.g.h.i.j.k.l.m.      ",
"      n.o.p.q.r.s.,.t.u.                v.w.x.y.z.A.B.C.D.      ",
"    E.F.G.H.I.J.K.L.M.N.                O.P.Q.R.S.T.U.V.W.X.    ",
"    Y.Z.`. +.+++g.@+#+$+                %+&+*+=+-+;+>+,+'+)+    ",
"    !+~+{+]+^+/+x.(+P._+                :+<+[+}+|+1+2+3+4+5+    ",
"    6+7+8+9+0+a+b+c+d+e+                f+g+h+i+j+k+l+m+n+o+    ",
"    p+q+r+s+t+u+v+w+x+y+                z+A+l+B+C+D+D+E+F+G+    ",
"    H+I+J+K+L+M+N+}+O+P+                Q+R+E+S+T+U+V+W+X+Y+    ",
"    Z+`+ @.@+@@@#@$@%@&@                *@R+=@=@=@=@=@=@-@;@    ",
"    >@,@'@)@!@~@l+{@]@^@                /@(@V+_@_@_@_@:@<@[@    ",
"    }@|@1@2@3@4@4@S+5@6@                7@8@V+V+V+V+_@9@0@a@    ",
"      b@c@T+U+_@_@V+d@e@                f@g@V+V+_@V+h@Q+i@      ",
"      j@k@l@V+V+V+V+m@n@                o@p@U+q@q@q@_@r@s@      ",
"      t@u@v@V+w@w@V+x@y@z@            A@B@C@U+_@V+=@D@E@F@      ",
"        G@H@:@V+V+V+I@J@K@            L@M@:@N@O@P@Q@R@S@        ",
"          T@U@_@_@q@T+V@W@            X@Y@Z@`@ #.#+#@#          ",
"          ##$#%#_@T+U+&#*#=#        -#;#>#,#,#'#)#!#~#          ",
"            {#]#^#/#(#P@_#;#:#<#[#}#|#1#D@z+P+2#3#4#            ",
"                5#6#7#,#,#8#9#0#a#b#c#d#e#f#g#h#                ",
"                  i#j#k#l#m#n#o#p#q#2#r#s#t#u#                  ",
"                      v#w#x#x#h#y#z#A#B#C#D#                    ",
"                                                                ",
"                                                                "};
