/* XPM */
static char * opera_next_xpm[] = {
"32 32 267 2",
"  	c None",
". 	c #606060",
"+ 	c #7F7F7F",
"@ 	c #7C7C7C",
"# 	c #7D7D7D",
"$ 	c #7E7E7E",
"% 	c #5F5F5F",
"& 	c #ACACAC",
"* 	c #CFCFCF",
"= 	c #DDDDDD",
"- 	c #EDEDED",
"; 	c #FFFFFF",
"> 	c #DBDBDB",
", 	c #6A6A6A",
"' 	c #C3C3C3",
") 	c #EFEFEF",
"! 	c #C7C7C7",
"~ 	c #B4B2B2",
"{ 	c #B5B4B4",
"] 	c #A2A1A1",
"^ 	c #B5B2B2",
"/ 	c #CCCBCB",
"( 	c #EEEEEE",
"_ 	c #686868",
": 	c #838383",
"< 	c #EAEAEA",
"[ 	c #D9D7D7",
"} 	c #AEACAC",
"| 	c #5D5D5D",
"1 	c #3F3F3F",
"2 	c #4B4B4B",
"3 	c #ADACAC",
"4 	c #D9D9D9",
"5 	c #ECECEC",
"6 	c #EBEBEB",
"7 	c #818181",
"8 	c #858585",
"9 	c #F0F0F0",
"0 	c #E8E7E7",
"a 	c #949292",
"b 	c #262626",
"c 	c #979595",
"d 	c #EBEAEA",
"e 	c #F2F2F2",
"f 	c #F6F5F5",
"g 	c #E3E3E3",
"h 	c #383838",
"i 	c #3A3A3A",
"j 	c #C3C2C2",
"k 	c #FDFDFD",
"l 	c #E9E9E9",
"m 	c #FAFAFA",
"n 	c #666666",
"o 	c #D5D5D5",
"p 	c #FEFEFE",
"q 	c #F6F6F6",
"r 	c #B3B3B3",
"s 	c #2C2C2C",
"t 	c #2B2B2B",
"u 	c #B6B5B5",
"v 	c #D1D1D1",
"w 	c #F1F1F1",
"x 	c #F4F4F4",
"y 	c #CECECE",
"z 	c #E1E1E1",
"A 	c #D2D1D1",
"B 	c #303030",
"C 	c #2F2F2F",
"D 	c #8E8C8C",
"E 	c #E2E2E2",
"F 	c #DADADA",
"G 	c #BEBDBD",
"H 	c #C4C3C3",
"I 	c #777777",
"J 	c #D8D8D8",
"K 	c #DEDDDD",
"L 	c #5E5E5E",
"M 	c #646363",
"N 	c #D7D6D6",
"O 	c #B8B8B8",
"P 	c #BEBEBE",
"Q 	c #DFDFDF",
"R 	c #CBCBCB",
"S 	c #696969",
"T 	c #F2F1F1",
"U 	c #F9F9F9",
"V 	c #F5F5F5",
"W 	c #E0E0E0",
"X 	c #515151",
"Y 	c #D7D7D7",
"Z 	c #B4B4B4",
"` 	c #CACACA",
" .	c #C8C8C8",
"..	c #8F8F8F",
"+.	c #F4F3F3",
"@.	c #F3F3F3",
"#.	c #E7E7E7",
"$.	c #D6D5D5",
"%.	c #E1E0E0",
"&.	c #404040",
"*.	c #454545",
"=.	c #DFDEDE",
"-.	c #C5C5C5",
";.	c #B0B0B0",
">.	c #B6B6B6",
",.	c #BBBBBB",
"'.	c #919191",
").	c #5A5A5A",
"!.	c #BCBCBC",
"~.	c #F0EFEF",
"{.	c #C6C6C6",
"].	c #E5E5E5",
"^.	c #DCDCDC",
"/.	c #E6E5E5",
"(.	c #BABABA",
"_.	c #B7B7B7",
":.	c #9C9C9C",
"<.	c #B8B7B7",
"[.	c #585858",
"}.	c #DEDDDC",
"|.	c #D2D2D2",
"1.	c #D0D0D0",
"2.	c #393939",
"3.	c #AFAFAF",
"4.	c #ADADAD",
"5.	c #AAAAAA",
"6.	c #989797",
"7.	c #A7A7A7",
"8.	c #B0AFAF",
"9.	c #D6D5D4",
"0.	c #555555",
"a.	c #F0EEED",
"b.	c #CDCDCD",
"c.	c #3B3B3B",
"d.	c #A8A8A8",
"e.	c #A5A5A5",
"f.	c #A4A4A4",
"g.	c #A3A3A3",
"h.	c #E9E8E7",
"i.	c #EEEDEB",
"j.	c #A6A6A6",
"k.	c #949494",
"l.	c #A3A2A2",
"m.	c #A1A1A1",
"n.	c #3D3D3D",
"o.	c #3E3E3E",
"p.	c #F7F7F7",
"q.	c #8D8D8D",
"r.	c #8C8B8B",
"s.	c #8D8C8C",
"t.	c #EAE9E8",
"u.	c #525252",
"v.	c #4F4F4F",
"w.	c #EEEDEC",
"x.	c #A4A3A3",
"y.	c #FBFBFB",
"z.	c #ABABAB",
"A.	c #9A9999",
"B.	c #EBE9E7",
"C.	c #F8F8F8",
"D.	c #414141",
"E.	c #434343",
"F.	c #FCFCFC",
"G.	c #A9A9A9",
"H.	c #B1B1B1",
"I.	c #E7E6E4",
"J.	c #474747",
"K.	c #CFCECB",
"L.	c #B4B4B3",
"M.	c #949393",
"N.	c #4C4C4C",
"O.	c #B5B5B5",
"P.	c #C9C9C7",
"Q.	c #CECECA",
"R.	c #A1A09E",
"S.	c #BFBFBD",
"T.	c #A2A2A2",
"U.	c #5C5C5C",
"V.	c #BFBFBF",
"W.	c #C1C1C1",
"X.	c #AFAEAE",
"Y.	c #C4C4C4",
"Z.	c #DBDCD9",
"`.	c #9E9D9B",
" +	c #666664",
".+	c #D1D0CC",
"++	c #E4E4E4",
"@+	c #6C6C6C",
"#+	c #C9C9C9",
"$+	c #DFDDDA",
"%+	c #676665",
"&+	c #E1DDD9",
"*+	c #B3B2B2",
"=+	c #898989",
"-+	c #E6E6E6",
";+	c #999999",
">+	c #D3D2D2",
",+	c #E1DDDA",
"'+	c #807D7C",
")+	c #C1BEBC",
"!+	c #B9B9B9",
"~+	c #484848",
"{+	c #D3D3D3",
"]+	c #C7C3C1",
"^+	c #7A7876",
"/+	c #373737",
"(+	c #D3D0CD",
"_+	c #CECCCC",
":+	c #C2C2C2",
"<+	c #C7C6C6",
"[+	c #CFCAC7",
"}+	c #484747",
"|+	c #D6D0CE",
"1+	c #CFCDCE",
"2+	c #BDBDBD",
"3+	c #E8E8E8",
"4+	c #6F6F6F",
"5+	c #B2B2B2",
"6+	c #C6C2BF",
"7+	c #454443",
"8+	c #2E2E2E",
"9+	c #5A5959",
"0+	c #C7C5C4",
"a+	c #C0C0C0",
"b+	c #4E4E4E",
"c+	c #4D4D4D",
"d+	c #9D9D9D",
"e+	c #9F9F9F",
"f+	c #B2B0AE",
"g+	c #555454",
"h+	c #2A2A2A",
"i+	c #424242",
"j+	c #B4B3B1",
"k+	c #C5C4C4",
"l+	c #D4D4D4",
"m+	c #4A4A4A",
"n+	c #494949",
"o+	c #808080",
"p+	c #DEDEDE",
"q+	c #888888",
"r+	c #959595",
"s+	c #9E9C9B",
"t+	c #403F3F",
"u+	c #2A2A29",
"v+	c #757474",
"w+	c #A7A7A6",
"x+	c #969696",
"y+	c #A5A4A4",
"z+	c #939393",
"A+	c #8C8C8C",
"B+	c #8E8D8D",
"C+	c #676666",
"D+	c #2B2B2A",
"E+	c #222222",
"F+	c #535353",
"G+	c #707070",
"H+	c #868686",
"I+	c #7B7B7B",
"J+	c #232323",
"K+	c #111111",
"L+	c #181818",
"M+	c #1B1B1B",
"N+	c #1D1D1D",
"O+	c #212121",
"P+	c #1C1C1C",
"Q+	c #171717",
"R+	c #080808",
"                                                                ",
"                        . + + @ # $ + %                         ",
"                  . $ & * = - ; > - = * & + %                   ",
"              . , ' ) ; > ! ~ { ] ^ / > ; ( ' _ .               ",
"            . : < ; - > [ } | 1 2 % 3 4 > 5 ; 6 7 .             ",
"          . 8 9 ; 5 5 0 a b         b c d 5 - ; e 7 .           ",
"          _ ( ; f g ; ' h             i j k < l m 5 n           ",
"        % o p ; > ; q r s             t u 9 q v w x y .         ",
"      . @ z > A 5 ; ( 8 B             C D E 6 F G H F I .       ",
"      . o ; ; 4 J y K L                 M N O P P > Q R .       ",
"      S T m U o q V W 2                 X = Y o Z `  .d S       ",
"    | ..+.@.#.$.6 l %.&.                *.=.-.' ;.>.,.J '.|     ",
"    ).!.~.#.{.].W ^./.h                 1 /.(._.,.:.;.-.<.).    ",
"    [.}.z > P o |.1.6 2.                2.( 3.4.5.6.7.8.9.[.    ",
"    0.a.v b.r  .-.' ( c.                c.@.d.e.f.a g.g.h.0.    ",
"    X i.d.j.k.l.m.] w n.                o.p.q.r.s.7 s.s.t.u.    ",
"    v.w.P !.x.O _.Z V &.                &.y.5.z.& A.;.;.t.v.    ",
"    2 B.3.& 6.d.7.e.C.D.                E.F.G.5.& :.H.Z I.2     ",
"    J.K.L.e.M.g.m.m.@.J.                N.C.r O._.e.!.P.Q.J.    ",
"    E.R.S.T.f.'.m.T.5 [.                U.x V.W.X.Y.! Z.`.E.    ",
"       +.+f.7.k.d.5.++S                 @+l #+R r * * $+%+      ",
"      n.&+*+G.8 A.:.> =+                ..-+*+*+;+ .>+,+n.      ",
"      2.'+)+7.!+>.! 4 H.~+            ~+O E {+' -.>.]+^+2.      ",
"        /+(+_+#+H.` |.#.J.            J.l y -.z.:+<+[+/+        ",
"          }+|+1+b.2+* 3+4+            S 3+!+f.5+4.6+7+          ",
"          8+9+0+1.Y.a+o E b+        c+> 2+:.d+e+f+g+8+          ",
"            h+i+j+k+_.G.l+].7 m+n+o+p+a+q+q.r+s+t+t             ",
"                u+v+w+3.x+y+a+l+-.!.z+# A+B+C+D+                ",
"                  E+b F+G+H+8 M.z+# I+, v.b J+                  ",
"                      K+L+M+N+O+J+N+P+Q+K+R+                    ",
"                                                                ",
"                                                                "};
