<?xml version="1.0" encoding="utf-8"?>
<!-- Generator: Adobe Illustrator 14.0.0, SVG Export Plug-In . SVG Version: 6.00 Build 43363)  -->
<!DOCTYPE svg PUBLIC "-//W3C//DTD SVG 1.1//EN" "http://www.w3.org/Graphics/SVG/1.1/DTD/svg11.dtd">
<svg version="1.1" id="Layer_1" xmlns="http://www.w3.org/2000/svg" xmlns:xlink="http://www.w3.org/1999/xlink" x="0px" y="0px"
	 width="128px" height="128px" viewBox="28 101 128 128" enable-background="new 28 101 128 128" xml:space="preserve">
<g id="Iconfactory_Grid" display="none">
</g>
<g id="grid">
</g>
<g id="Icon_Layer">
	
		<linearGradient id="SVGID_1_" gradientUnits="userSpaceOnUse" x1="317" y1="305.5" x2="333.9521" y2="305.5" gradientTransform="matrix(1 0 0 -1 -282 464)">
		<stop  offset="0.5706" style="stop-color:#EBBC89"/>
		<stop  offset="1" style="stop-color:#CAA45B"/>
	</linearGradient>
	<polygon fill="url(#SVGID_1_)" stroke="#6D4400" points="47,157 35,170 44,155 51.952,147 	"/>
	
		<linearGradient id="SVGID_2_" gradientUnits="userSpaceOnUse" x1="389.6729" y1="329.5518" x2="405.1729" y2="318.3018" gradientTransform="matrix(1 0 0 -1 -282 464)">
		<stop  offset="0.5706" style="stop-color:#EBBC89"/>
		<stop  offset="1" style="stop-color:#B68853"/>
	</linearGradient>
	<polygon fill="url(#SVGID_2_)" stroke="#6D4400" points="138,157 150,170 141,155 133,148 	"/>
	<g>
		
			<linearGradient id="SVGID_3_" gradientUnits="userSpaceOnUse" x1="373.6343" y1="248.3335" x2="373.6343" y2="274.0002" gradientTransform="matrix(1 0 0 -1 -282 464)">
			<stop  offset="0" style="stop-color:#231F20;stop-opacity:0.06"/>
			<stop  offset="1" style="stop-color:#231F20;stop-opacity:0.26"/>
		</linearGradient>
		<path fill="url(#SVGID_3_)" d="M42,215c-2.75,0-4.289-2.135-3.419-4.743l4.838-14.514C44.289,193.135,47.25,191,50,191h85
			c2.75,0,5.546,2.183,6.213,4.851l3.574,14.299c0.667,2.667-1.037,4.85-3.787,4.85H42z"/>
	</g>
	<g>
		
			<linearGradient id="SVGID_4_" gradientUnits="userSpaceOnUse" x1="373.5967" y1="251.5249" x2="373.5967" y2="271.7321" gradientTransform="matrix(1 0 0 -1 -282 464)">
			<stop  offset="0" style="stop-color:#231F20;stop-opacity:0"/>
			<stop  offset="1" style="stop-color:#231F20;stop-opacity:0.33"/>
		</linearGradient>
		<path fill="url(#SVGID_4_)" d="M47,211.05c-2.75-0.028-4.397-2.218-3.661-4.868l2.323-8.365c0.736-2.649,3.588-4.792,6.338-4.762
			l80,0.889c2.75,0.031,5.488,2.252,6.084,4.937l1.831,8.238c0.596,2.685-1.166,4.858-3.916,4.831L47,211.05z"/>
	</g>
	<g>
		
			<linearGradient id="SVGID_5_" gradientUnits="userSpaceOnUse" x1="340.3311" y1="317.7471" x2="328.6267" y2="319.89" gradientTransform="matrix(1 0 0 -1 -282 464)">
			<stop  offset="0.5706" style="stop-color:#3C2703"/>
			<stop  offset="1" style="stop-color:#6C4624"/>
		</linearGradient>
		<polygon fill="url(#SVGID_5_)" points="47.056,157.134 51.892,147 133.108,147 137.944,157.134 		"/>
	</g>
	<g display="none" opacity="0.8" enable-background="new    ">
		<g display="inline">
			<g>
				<defs>
					<path id="SVGID_6_" d="M122.429,204c4.702,0,8.571-3.87,8.571-8.572v-62.857c0-4.702-3.869-8.571-8.571-8.571H59.572
						c-4.703,0-8.572,3.869-8.572,8.571v62.857c0,4.702,3.869,8.572,8.572,8.572H122.429z"/>
				</defs>
				<clipPath id="SVGID_7_">
					<use xlink:href="#SVGID_6_"  overflow="visible"/>
				</clipPath>
				<g opacity="0.85" clip-path="url(#SVGID_7_)">
					<g>
						<path opacity="0.2" enable-background="new    " d="M68.783,191.418l1.592-2.228c-0.054-0.068-0.11-0.133-0.166-0.199
							l-1.552,2.172C68.705,191.245,68.738,191.335,68.783,191.418z"/>
						<path opacity="0.2" enable-background="new    " d="M62.377,190.485c-1.125,0.007-2.211,0.458-3.006,1.253
							c-0.907,0.908-1.264,1.99-1.234,3.042c0.07-0.912,0.451-1.829,1.234-2.61c0.795-0.797,1.881-1.248,3.006-1.254
							c2.579,0.067,4.096,2.052,4.214,4.101C66.679,192.824,65.139,190.556,62.377,190.485z"/>
						<path opacity="0.2" enable-background="new    " d="M56.097,191.162l-1.554-2.176c-0.054,0.07-0.112,0.133-0.163,0.204
							l1.592,2.228C56.015,191.333,56.051,191.246,56.097,191.162z"/>
						<path opacity="0.2" enable-background="new    " d="M72.282,196.166l-2.924,0.486c-0.153,0.59-0.411,1.144-0.702,1.676
							l0.126,0.174c0.235-0.454,0.446-0.921,0.575-1.418l2.924-0.487c0.063-0.563,0.1-1.131,0.09-1.698
							C72.362,195.321,72.328,195.744,72.282,196.166z"/>
						<path opacity="0.2" enable-background="new    " d="M55.972,198.501l0.125-0.174c-0.308-0.524-0.529-1.094-0.7-1.676
							l-2.925-0.486c-0.062-0.381-0.084-0.763-0.091-1.145c-0.014,0.525,0.005,1.053,0.091,1.574l2.925,0.486
							C55.54,197.574,55.732,198.049,55.972,198.501z"/>
						<path opacity="0.2" enable-background="new    " d="M68.362,202.743l-2.404-1.718c-0.525,0.309-1.091,0.531-1.674,0.7
							l-0.488,2.924c-0.528,0.082-1.064,0.103-1.597,0.103c-0.417-0.004-0.831-0.052-1.242-0.103l-0.488-2.924
							c-0.589-0.152-1.142-0.41-1.674-0.7l-2.405,1.718c-0.703-0.511-1.298-1.145-1.846-1.813l-0.166,0.23
							c0.594,0.744,1.239,1.454,2.012,2.014l2.405-1.718c0.532,0.291,1.084,0.549,1.674,0.701l0.488,2.924
							c0.412,0.05,0.825,0.098,1.242,0.103c0.533,0,1.07-0.021,1.597-0.103l0.488-2.924c0.583-0.168,1.149-0.391,1.674-0.701
							l2.404,1.718c0.743-0.594,1.452-1.239,2.012-2.014l-0.163-0.226C69.678,201.615,69.038,202.203,68.362,202.743z"/>
					</g>
					<g>
						<path opacity="0.2" enable-background="new    " d="M87.333,203.377l1.592-2.229c-0.055-0.067-0.111-0.133-0.167-0.199
							l-1.551,2.172C87.254,203.204,87.289,203.293,87.333,203.377z"/>
						<path opacity="0.2" enable-background="new    " d="M80.926,202.445c-1.125,0.006-2.209,0.458-3.006,1.253
							c-0.906,0.907-1.263,1.99-1.233,3.042c0.071-0.913,0.45-1.827,1.233-2.611c0.796-0.794,1.88-1.246,3.006-1.253
							c2.579,0.067,4.096,2.052,4.214,4.101C85.229,204.784,83.688,202.516,80.926,202.445z"/>
						<path opacity="0.2" enable-background="new    " d="M74.646,203.122l-1.556-2.176c-0.052,0.068-0.11,0.132-0.162,0.203
							l1.592,2.228C74.564,203.292,74.601,203.204,74.646,203.122z"/>
						<path opacity="0.2" enable-background="new    " d="M90.831,208.124l-2.923,0.486c-0.152,0.591-0.411,1.144-0.7,1.676
							l0.125,0.175c0.235-0.455,0.446-0.921,0.575-1.419l2.923-0.487c0.064-0.563,0.1-1.131,0.092-1.698
							C90.91,207.28,90.878,207.704,90.831,208.124z"/>
						<path opacity="0.2" enable-background="new    " d="M74.521,210.461l0.125-0.175c-0.309-0.524-0.531-1.092-0.701-1.676
							l-2.924-0.486c-0.062-0.379-0.085-0.762-0.092-1.144c-0.014,0.526,0.006,1.053,0.092,1.574l2.924,0.488
							C74.09,209.534,74.283,210.009,74.521,210.461z"/>
						<path opacity="0.2" enable-background="new    " d="M86.911,214.702l-2.404-1.717c-0.524,0.309-1.092,0.529-1.675,0.7
							l-0.486,2.924c-0.529,0.082-1.065,0.103-1.598,0.103c-0.417-0.005-0.83-0.053-1.242-0.103l-0.487-2.924
							c-0.589-0.153-1.143-0.41-1.675-0.7l-2.404,1.717c-0.702-0.511-1.298-1.145-1.847-1.814l-0.166,0.231
							c0.595,0.744,1.24,1.453,2.013,2.013l2.404-1.717c0.532,0.29,1.086,0.548,1.675,0.7l0.487,2.924
							c0.413,0.05,0.826,0.098,1.242,0.103c0.533,0,1.07-0.021,1.598-0.103l0.486-2.924c0.583-0.169,1.15-0.392,1.675-0.7
							l2.404,1.717c0.743-0.594,1.452-1.238,2.014-2.013l-0.163-0.228C88.228,213.574,87.586,214.162,86.911,214.702z"/>
					</g>
					<g>
						<path opacity="0.2" enable-background="new    " d="M87.333,119.331l1.592-2.229c-0.055-0.068-0.111-0.133-0.167-0.199
							l-1.551,2.172C87.254,119.156,87.289,119.246,87.333,119.331z"/>
						<path opacity="0.2" enable-background="new    " d="M80.926,118.398c-1.125,0.005-2.209,0.457-3.006,1.253
							c-0.906,0.907-1.263,1.989-1.233,3.041c0.071-0.912,0.45-1.827,1.233-2.611c0.796-0.795,1.88-1.247,3.006-1.252
							c2.579,0.066,4.096,2.051,4.214,4.1C85.229,120.736,83.688,118.469,80.926,118.398z"/>
						<path opacity="0.2" enable-background="new    " d="M74.646,119.074l-1.556-2.176c-0.052,0.068-0.11,0.132-0.162,0.203
							l1.592,2.229C74.564,119.245,74.601,119.157,74.646,119.074z"/>
						<path opacity="0.2" enable-background="new    " d="M90.831,124.077l-2.923,0.486c-0.152,0.591-0.411,1.142-0.7,1.675
							l0.125,0.175c0.235-0.455,0.446-0.922,0.575-1.419l2.923-0.486c0.064-0.563,0.1-1.131,0.092-1.697
							C90.91,123.232,90.878,123.656,90.831,124.077z"/>
						<path opacity="0.2" enable-background="new    " d="M74.521,126.414l0.125-0.175c-0.309-0.525-0.531-1.092-0.701-1.675
							l-2.924-0.486c-0.062-0.381-0.085-0.762-0.092-1.144c-0.014,0.527,0.006,1.052,0.092,1.574l2.924,0.487
							C74.09,125.486,74.283,125.961,74.521,126.414z"/>
						<path opacity="0.2" enable-background="new    " d="M86.911,130.654l-2.404-1.716c-0.524,0.309-1.092,0.531-1.675,0.699
							l-0.486,2.924c-0.529,0.082-1.065,0.104-1.598,0.104c-0.417-0.005-0.83-0.052-1.242-0.104l-0.487-2.924
							c-0.589-0.152-1.143-0.41-1.675-0.699l-2.404,1.716c-0.702-0.51-1.298-1.144-1.847-1.812l-0.166,0.231
							c0.595,0.743,1.24,1.452,2.013,2.013l2.404-1.717c0.532,0.29,1.086,0.548,1.675,0.701l0.487,2.924
							c0.413,0.05,0.826,0.098,1.242,0.102c0.533,0,1.07-0.021,1.598-0.102l0.486-2.924c0.583-0.17,1.15-0.392,1.675-0.701
							l2.404,1.717c0.743-0.594,1.452-1.239,2.014-2.013l-0.163-0.228C88.228,129.527,87.586,130.115,86.911,130.654z"/>
					</g>
					<g>
						<path opacity="0.2" enable-background="new    " d="M69.638,172.887l2.3-1.485c-0.025-0.083-0.054-0.165-0.08-0.248
							l-2.244,1.448C69.629,172.697,69.628,172.792,69.638,172.887z"/>
						<path opacity="0.2" enable-background="new    " d="M64.026,169.66c-1.047-0.408-2.223-0.388-3.256,0.058
							c-1.176,0.51-1.908,1.385-2.268,2.373c0.403-0.822,1.094-1.533,2.109-1.972c1.033-0.447,2.207-0.467,3.256-0.058
							c2.374,1.012,3.053,3.416,2.408,5.365C67.165,173.419,66.566,170.744,64.026,169.66z"/>
						<path opacity="0.2" enable-background="new    " d="M57.938,167.976l-0.645-2.596c-0.074,0.044-0.153,0.081-0.225,0.129
							l0.659,2.658C57.799,168.104,57.866,168.036,57.938,167.976z"/>
						<path opacity="0.2" enable-background="new    " d="M71.143,178.588l-2.897-0.625c-0.36,0.494-0.803,0.911-1.269,1.299
							l0.051,0.21c0.388-0.336,0.755-0.693,1.057-1.11l2.899,0.625c0.266-0.501,0.509-1.014,0.71-1.545
							C71.527,177.833,71.341,178.214,71.143,178.588z"/>
						<path opacity="0.2" enable-background="new    " d="M55.118,174.753l0.182-0.117c-0.093-0.602-0.092-1.211-0.035-1.815
							l-2.539-1.53c0.081-0.376,0.202-0.739,0.337-1.096c-0.207,0.484-0.383,0.98-0.495,1.497l2.54,1.53
							C55.059,173.731,55.063,174.244,55.118,174.753z"/>
						<path opacity="0.2" enable-background="new    " d="M65.076,183.26l-1.603-2.483c-0.601,0.094-1.21,0.091-1.815,0.035
							l-1.529,2.539c-0.522-0.119-1.029-0.296-1.524-0.494c-0.385-0.158-0.751-0.353-1.117-0.552l0.625-2.899
							c-0.492-0.358-0.912-0.801-1.299-1.268l-2.868,0.711c-0.465-0.733-0.785-1.542-1.049-2.364l-0.24,0.153
							c0.28,0.908,0.619,1.806,1.131,2.613l2.868-0.711c0.388,0.466,0.807,0.909,1.298,1.268l-0.624,2.9
							c0.365,0.198,0.732,0.394,1.117,0.552c0.496,0.196,1.002,0.374,1.524,0.493l1.529-2.541c0.604,0.057,1.213,0.059,1.815-0.033
							l1.602,2.482c0.908-0.278,1.807-0.618,2.613-1.13l-0.068-0.272C66.714,182.697,65.902,183.006,65.076,183.26z"/>
					</g>
					<g>
						<path opacity="0.2" enable-background="new    " d="M88.236,184.522l2.302-1.485c-0.025-0.082-0.056-0.164-0.081-0.247
							l-2.244,1.448C88.229,184.333,88.226,184.43,88.236,184.522z"/>
						<path opacity="0.2" enable-background="new    " d="M82.625,181.296c-1.047-0.407-2.223-0.388-3.255,0.059
							c-1.177,0.509-1.909,1.384-2.267,2.373c0.402-0.822,1.091-1.533,2.108-1.974c1.033-0.446,2.207-0.466,3.256-0.058
							c2.373,1.012,3.052,3.417,2.407,5.366C85.763,185.056,85.167,182.378,82.625,181.296z"/>
						<path opacity="0.2" enable-background="new    " d="M76.537,179.612l-0.645-2.596c-0.075,0.044-0.151,0.081-0.225,0.128
							l0.659,2.658C76.398,179.741,76.464,179.672,76.537,179.612z"/>
						<path opacity="0.2" enable-background="new    " d="M89.74,190.225l-2.896-0.625c-0.36,0.493-0.803,0.911-1.27,1.299
							l0.053,0.209c0.385-0.337,0.754-0.694,1.057-1.108l2.898,0.625c0.265-0.501,0.509-1.016,0.709-1.547
							C90.126,189.469,89.939,189.85,89.74,190.225z"/>
						<path opacity="0.2" enable-background="new    " d="M73.717,186.39l0.181-0.118c-0.093-0.601-0.09-1.21-0.034-1.815
							l-2.54-1.53c0.082-0.375,0.202-0.74,0.336-1.096c-0.207,0.485-0.383,0.98-0.496,1.498l2.54,1.528
							C73.658,185.368,73.663,185.88,73.717,186.39z"/>
						<path opacity="0.2" enable-background="new    " d="M83.674,194.895l-1.602-2.483c-0.602,0.096-1.211,0.094-1.815,0.037
							l-1.53,2.539c-0.521-0.119-1.027-0.296-1.523-0.494c-0.385-0.157-0.751-0.354-1.118-0.551l0.625-2.898
							c-0.492-0.359-0.911-0.802-1.3-1.268l-2.867,0.711c-0.465-0.732-0.784-1.542-1.049-2.365l-0.24,0.155
							c0.279,0.907,0.619,1.807,1.13,2.611l2.868-0.709c0.388,0.465,0.807,0.908,1.299,1.267l-0.625,2.899
							c0.365,0.198,0.733,0.395,1.118,0.552c0.496,0.196,1.002,0.375,1.524,0.494l1.528-2.542c0.606,0.058,1.214,0.061,1.815-0.033
							l1.602,2.48c0.91-0.277,1.806-0.617,2.613-1.128l-0.069-0.272C85.314,194.333,84.5,194.643,83.674,194.895z"/>
					</g>
					<g>
						<path opacity="0.2" enable-background="new    " d="M87.333,160.771l1.592-2.228c-0.055-0.068-0.111-0.134-0.167-0.2
							l-1.551,2.173C87.254,160.598,87.289,160.687,87.333,160.771z"/>
						<path opacity="0.2" enable-background="new    " d="M80.926,159.838c-1.125,0.007-2.209,0.458-3.006,1.252
							c-0.906,0.908-1.263,1.991-1.233,3.042c0.071-0.912,0.45-1.828,1.233-2.61c0.796-0.796,1.88-1.247,3.006-1.253
							c2.579,0.066,4.096,2.052,4.214,4.102C85.229,162.178,83.688,159.91,80.926,159.838z"/>
						<path opacity="0.2" enable-background="new    " d="M74.646,160.516l-1.556-2.176c-0.052,0.068-0.11,0.132-0.162,0.203
							l1.592,2.228C74.564,160.686,74.601,160.598,74.646,160.516z"/>
						<path opacity="0.2" enable-background="new    " d="M90.831,165.518l-2.923,0.487c-0.152,0.589-0.411,1.143-0.7,1.675
							l0.125,0.175c0.235-0.455,0.446-0.922,0.575-1.42l2.923-0.487c0.064-0.563,0.1-1.131,0.092-1.698
							C90.91,164.673,90.878,165.097,90.831,165.518z"/>
						<path opacity="0.2" enable-background="new    " d="M74.521,167.854l0.125-0.175c-0.309-0.525-0.531-1.092-0.701-1.675
							l-2.924-0.487c-0.062-0.38-0.085-0.762-0.092-1.145c-0.014,0.526,0.006,1.053,0.092,1.575l2.924,0.487
							C74.09,166.927,74.283,167.402,74.521,167.854z"/>
						<path opacity="0.2" enable-background="new    " d="M86.911,172.095l-2.404-1.717c-0.524,0.309-1.092,0.532-1.675,0.7
							l-0.486,2.924c-0.529,0.081-1.065,0.102-1.598,0.102c-0.417-0.004-0.83-0.052-1.242-0.102l-0.487-2.924
							c-0.589-0.153-1.143-0.411-1.675-0.7l-2.404,1.717c-0.702-0.511-1.298-1.145-1.847-1.813l-0.166,0.232
							c0.595,0.743,1.24,1.452,2.013,2.012l2.404-1.717c0.532,0.29,1.086,0.547,1.675,0.702l0.487,2.924
							c0.413,0.049,0.826,0.098,1.242,0.102c0.533,0,1.07-0.021,1.598-0.102l0.486-2.924c0.583-0.17,1.15-0.393,1.675-0.702
							l2.404,1.717c0.743-0.593,1.452-1.237,2.014-2.012l-0.163-0.227C88.228,170.967,87.586,171.555,86.911,172.095z"/>
					</g>
					<g>
						<path opacity="0.2" enable-background="new    " d="M88.236,141.916l2.302-1.485c-0.025-0.082-0.056-0.165-0.081-0.248
							l-2.244,1.449C88.229,141.726,88.226,141.822,88.236,141.916z"/>
						<path opacity="0.2" enable-background="new    " d="M82.625,138.689c-1.047-0.408-2.223-0.389-3.255,0.059
							c-1.177,0.509-1.909,1.384-2.267,2.373c0.402-0.822,1.091-1.533,2.108-1.974c1.033-0.445,2.207-0.466,3.256-0.057
							c2.373,1.011,3.052,3.416,2.407,5.364C85.763,142.449,85.167,139.774,82.625,138.689z"/>
						<path opacity="0.2" enable-background="new    " d="M76.537,137.005l-0.645-2.596c-0.075,0.045-0.151,0.082-0.225,0.128
							l0.659,2.66C76.398,137.135,76.464,137.065,76.537,137.005z"/>
						<path opacity="0.2" enable-background="new    " d="M89.74,147.618l-2.896-0.625c-0.36,0.492-0.803,0.911-1.27,1.299
							l0.053,0.209c0.385-0.336,0.754-0.692,1.057-1.108l2.898,0.625c0.265-0.5,0.509-1.015,0.709-1.545
							C90.126,146.863,89.939,147.244,89.74,147.618z"/>
						<path opacity="0.2" enable-background="new    " d="M73.717,143.782l0.181-0.116c-0.093-0.602-0.09-1.211-0.034-1.816
							l-2.54-1.528c0.082-0.376,0.202-0.74,0.336-1.097c-0.207,0.484-0.383,0.98-0.496,1.498l2.54,1.528
							C73.658,142.76,73.663,143.274,73.717,143.782z"/>
						<path opacity="0.2" enable-background="new    " d="M83.674,152.29l-1.602-2.483c-0.602,0.094-1.211,0.092-1.815,0.035
							l-1.53,2.54c-0.521-0.12-1.027-0.297-1.523-0.495c-0.385-0.157-0.751-0.354-1.118-0.552l0.625-2.898
							c-0.492-0.359-0.911-0.802-1.3-1.268l-2.867,0.712c-0.465-0.734-0.784-1.542-1.049-2.366l-0.24,0.154
							c0.279,0.909,0.619,1.807,1.13,2.612l2.868-0.711c0.388,0.466,0.807,0.908,1.299,1.268l-0.625,2.899
							c0.365,0.198,0.733,0.396,1.118,0.553c0.496,0.196,1.002,0.374,1.524,0.493l1.528-2.541c0.606,0.058,1.214,0.06,1.815-0.033
							l1.602,2.482c0.91-0.278,1.806-0.617,2.613-1.13l-0.069-0.271C85.314,151.727,84.5,152.037,83.674,152.29z"/>
					</g>
					<g>
						<path opacity="0.2" enable-background="new    " d="M125.741,203.377l1.592-2.229c-0.055-0.067-0.111-0.133-0.166-0.199
							l-1.553,2.172C125.663,203.204,125.696,203.293,125.741,203.377z"/>
						<path opacity="0.2" enable-background="new    " d="M119.334,202.445c-1.125,0.006-2.209,0.458-3.005,1.253
							c-0.907,0.907-1.264,1.99-1.233,3.042c0.069-0.913,0.448-1.827,1.233-2.611c0.796-0.794,1.88-1.246,3.005-1.253
							c2.579,0.067,4.096,2.052,4.215,4.101C123.637,204.784,122.096,202.516,119.334,202.445z"/>
						<path opacity="0.2" enable-background="new    " d="M113.054,203.122l-1.555-2.176c-0.054,0.068-0.112,0.132-0.163,0.203
							l1.592,2.228C112.973,203.292,113.009,203.204,113.054,203.122z"/>
						<path opacity="0.2" enable-background="new    " d="M129.238,208.124l-2.923,0.486c-0.153,0.591-0.411,1.144-0.702,1.676
							l0.126,0.175c0.234-0.455,0.446-0.921,0.576-1.419l2.924-0.487c0.064-0.563,0.1-1.131,0.091-1.698
							C129.319,207.28,129.285,207.704,129.238,208.124z"/>
						<path opacity="0.2" enable-background="new    " d="M112.928,210.461l0.126-0.175c-0.31-0.524-0.531-1.092-0.7-1.676
							l-2.924-0.486c-0.063-0.379-0.085-0.762-0.092-1.144c-0.016,0.526,0.006,1.053,0.092,1.574l2.924,0.488
							C112.497,209.534,112.69,210.009,112.928,210.461z"/>
						<path opacity="0.2" enable-background="new    " d="M125.32,214.702l-2.405-1.717c-0.522,0.309-1.091,0.529-1.674,0.7
							l-0.486,2.924c-0.53,0.082-1.065,0.103-1.599,0.103c-0.417-0.005-0.831-0.053-1.243-0.103l-0.486-2.924
							c-0.589-0.153-1.144-0.41-1.674-0.7l-2.404,1.717c-0.703-0.511-1.3-1.145-1.848-1.814l-0.166,0.231
							c0.594,0.744,1.239,1.453,2.013,2.013l2.404-1.717c0.531,0.29,1.085,0.548,1.674,0.7l0.486,2.924
							c0.413,0.05,0.827,0.098,1.243,0.103c0.533,0,1.069-0.021,1.599-0.103l0.486-2.924c0.583-0.169,1.15-0.392,1.674-0.7
							l2.405,1.717c0.742-0.594,1.451-1.238,2.013-2.013l-0.164-0.228C126.637,213.574,125.994,214.162,125.32,214.702z"/>
					</g>
					<g>
						<path opacity="0.2" enable-background="new    " d="M125.741,119.331l1.592-2.229c-0.055-0.068-0.111-0.133-0.166-0.199
							l-1.553,2.172C125.663,119.156,125.696,119.246,125.741,119.331z"/>
						<path opacity="0.2" enable-background="new    " d="M119.334,118.398c-1.125,0.005-2.209,0.457-3.005,1.253
							c-0.907,0.907-1.264,1.989-1.233,3.041c0.069-0.912,0.448-1.827,1.233-2.611c0.796-0.795,1.88-1.247,3.005-1.252
							c2.579,0.066,4.096,2.051,4.215,4.1C123.637,120.736,122.096,118.469,119.334,118.398z"/>
						<path opacity="0.2" enable-background="new    " d="M113.054,119.074l-1.555-2.176c-0.054,0.068-0.112,0.132-0.163,0.203
							l1.592,2.229C112.973,119.245,113.009,119.157,113.054,119.074z"/>
						<path opacity="0.2" enable-background="new    " d="M129.238,124.077l-2.923,0.486c-0.153,0.591-0.411,1.142-0.702,1.675
							l0.126,0.175c0.234-0.455,0.446-0.922,0.576-1.419l2.924-0.486c0.064-0.563,0.1-1.131,0.091-1.697
							C129.319,123.232,129.285,123.656,129.238,124.077z"/>
						<path opacity="0.2" enable-background="new    " d="M112.928,126.414l0.126-0.175c-0.31-0.525-0.531-1.092-0.7-1.675
							l-2.924-0.486c-0.063-0.381-0.085-0.762-0.092-1.144c-0.016,0.527,0.006,1.052,0.092,1.574l2.924,0.487
							C112.497,125.486,112.69,125.961,112.928,126.414z"/>
						<path opacity="0.2" enable-background="new    " d="M125.32,130.654l-2.405-1.716c-0.522,0.309-1.091,0.531-1.674,0.699
							l-0.486,2.924c-0.53,0.082-1.065,0.104-1.599,0.104c-0.417-0.005-0.831-0.052-1.243-0.104l-0.486-2.924
							c-0.589-0.152-1.144-0.41-1.674-0.699l-2.404,1.716c-0.703-0.51-1.3-1.144-1.848-1.812l-0.166,0.231
							c0.594,0.743,1.239,1.452,2.013,2.013l2.404-1.717c0.531,0.29,1.085,0.548,1.674,0.701l0.486,2.924
							c0.413,0.05,0.827,0.098,1.243,0.102c0.533,0,1.069-0.021,1.599-0.102l0.486-2.924c0.583-0.17,1.15-0.392,1.674-0.701
							l2.405,1.717c0.742-0.594,1.451-1.239,2.013-2.013l-0.164-0.228C126.637,129.527,125.994,130.115,125.32,130.654z"/>
					</g>
					<g>
						<path opacity="0.2" enable-background="new    " d="M126.645,184.522l2.302-1.485c-0.025-0.082-0.056-0.164-0.081-0.247
							l-2.244,1.448C126.637,184.333,126.635,184.43,126.645,184.522z"/>
						<path opacity="0.2" enable-background="new    " d="M121.033,181.296c-1.048-0.407-2.223-0.388-3.256,0.059
							c-1.177,0.509-1.908,1.384-2.267,2.373c0.402-0.822,1.091-1.533,2.108-1.974c1.034-0.446,2.207-0.466,3.257-0.058
							c2.374,1.012,3.052,3.417,2.408,5.366C124.171,185.056,123.574,182.378,121.033,181.296z"/>
						<path opacity="0.2" enable-background="new    " d="M114.945,179.612l-0.644-2.596c-0.075,0.044-0.152,0.081-0.226,0.128
							l0.66,2.658C114.806,179.741,114.873,179.672,114.945,179.612z"/>
						<path opacity="0.2" enable-background="new    " d="M128.149,190.225l-2.897-0.625c-0.359,0.493-0.803,0.911-1.269,1.299
							l0.052,0.209c0.386-0.337,0.755-0.694,1.056-1.108l2.899,0.625c0.266-0.501,0.509-1.016,0.711-1.547
							C128.534,189.469,128.349,189.85,128.149,190.225z"/>
						<path opacity="0.2" enable-background="new    " d="M112.125,186.39l0.181-0.118c-0.094-0.601-0.091-1.21-0.035-1.815
							l-2.54-1.53c0.083-0.375,0.201-0.74,0.338-1.096c-0.208,0.485-0.385,0.98-0.497,1.498l2.54,1.528
							C112.065,185.368,112.07,185.88,112.125,186.39z"/>
						<path opacity="0.2" enable-background="new    " d="M122.083,194.895l-1.602-2.483c-0.602,0.096-1.211,0.094-1.815,0.037
							l-1.529,2.539c-0.521-0.119-1.027-0.296-1.523-0.494c-0.385-0.157-0.752-0.354-1.119-0.551l0.627-2.898
							c-0.492-0.359-0.911-0.802-1.3-1.268l-2.868,0.711c-0.466-0.732-0.785-1.542-1.049-2.365l-0.239,0.155
							c0.278,0.907,0.617,1.807,1.129,2.611l2.868-0.709c0.388,0.465,0.807,0.908,1.299,1.267l-0.625,2.899
							c0.367,0.198,0.732,0.395,1.118,0.552c0.496,0.196,1.002,0.375,1.524,0.494l1.528-2.542c0.605,0.058,1.213,0.061,1.815-0.033
							l1.602,2.48c0.91-0.277,1.808-0.617,2.613-1.128l-0.068-0.272C123.722,194.333,122.909,194.643,122.083,194.895z"/>
					</g>
					<g>
						<path opacity="0.2" enable-background="new    " d="M125.741,160.771l1.592-2.228c-0.055-0.068-0.111-0.134-0.166-0.2
							l-1.553,2.173C125.663,160.598,125.696,160.687,125.741,160.771z"/>
						<path opacity="0.2" enable-background="new    " d="M119.334,159.838c-1.125,0.007-2.209,0.458-3.005,1.252
							c-0.907,0.908-1.264,1.991-1.233,3.042c0.069-0.912,0.448-1.828,1.233-2.61c0.796-0.796,1.88-1.247,3.005-1.253
							c2.579,0.066,4.096,2.052,4.215,4.102C123.637,162.178,122.096,159.91,119.334,159.838z"/>
						<path opacity="0.2" enable-background="new    " d="M113.054,160.516l-1.555-2.176c-0.054,0.068-0.112,0.132-0.163,0.203
							l1.592,2.228C112.973,160.686,113.009,160.598,113.054,160.516z"/>
						<path opacity="0.2" enable-background="new    " d="M129.238,165.518l-2.923,0.487c-0.153,0.589-0.411,1.143-0.702,1.675
							l0.126,0.175c0.234-0.455,0.446-0.922,0.576-1.42l2.924-0.487c0.064-0.563,0.1-1.131,0.091-1.698
							C129.319,164.673,129.285,165.097,129.238,165.518z"/>
						<path opacity="0.2" enable-background="new    " d="M112.928,167.854l0.126-0.175c-0.31-0.525-0.531-1.092-0.7-1.675
							l-2.924-0.487c-0.063-0.38-0.085-0.762-0.092-1.145c-0.016,0.526,0.006,1.053,0.092,1.575l2.924,0.487
							C112.497,166.927,112.69,167.402,112.928,167.854z"/>
						<path opacity="0.2" enable-background="new    " d="M125.32,172.095l-2.405-1.717c-0.522,0.309-1.091,0.532-1.674,0.7
							l-0.486,2.924c-0.53,0.081-1.065,0.102-1.599,0.102c-0.417-0.004-0.831-0.052-1.243-0.102l-0.486-2.924
							c-0.589-0.153-1.144-0.411-1.674-0.7l-2.404,1.717c-0.703-0.511-1.3-1.145-1.848-1.813l-0.166,0.232
							c0.594,0.743,1.239,1.452,2.013,2.012l2.404-1.717c0.531,0.29,1.085,0.547,1.674,0.702l0.486,2.924
							c0.413,0.049,0.827,0.098,1.243,0.102c0.533,0,1.069-0.021,1.599-0.102l0.486-2.924c0.583-0.17,1.15-0.393,1.674-0.702
							l2.405,1.717c0.742-0.593,1.451-1.237,2.013-2.012l-0.164-0.227C126.637,170.967,125.994,171.555,125.32,172.095z"/>
					</g>
					<g>
						
							<linearGradient id="SVGID_8_" gradientUnits="userSpaceOnUse" x1="702.7266" y1="150.1484" x2="702.7266" y2="142.143" gradientTransform="matrix(0.9297 0.3684 -0.3684 0.9297 -479.9193 -252.3611)">
							<stop  offset="0" style="stop-color:#FFFFFF"/>
							<stop  offset="1" style="stop-color:#DADADA"/>
						</linearGradient>
						<path opacity="0.2" fill="url(#SVGID_8_)" enable-background="new    " d="M123.388,133.442
							c0.361,0.148,0.704,0.335,1.045,0.522l-0.625,2.898c0.493,0.357,0.912,0.801,1.299,1.268l2.867-0.711
							c0.514,0.804,0.852,1.702,1.132,2.612l-2.484,1.602c0.094,0.602,0.092,1.21,0.036,1.815l2.539,1.53
							c-0.203,0.931-0.601,1.803-1.047,2.64l-2.897-0.625c-0.359,0.492-0.803,0.912-1.269,1.299l0.713,2.867
							c-0.806,0.514-1.705,0.853-2.613,1.13l-1.602-2.482c-0.602,0.095-1.211,0.091-1.815,0.034l-1.529,2.54
							c-0.521-0.119-1.027-0.296-1.523-0.494c-0.385-0.158-0.752-0.354-1.119-0.552l0.627-2.899c-0.492-0.359-0.911-0.801-1.3-1.268
							l-2.868,0.712c-0.512-0.806-0.851-1.703-1.13-2.612l2.483-1.602c-0.093-0.602-0.091-1.211-0.034-1.816l-2.54-1.528
							c0.203-0.933,0.6-1.803,1.047-2.641l2.896,0.625c0.36-0.493,0.803-0.909,1.268-1.298l-0.711-2.869
							c0.806-0.512,1.704-0.852,2.613-1.128l1.601,2.482c0.603-0.095,1.211-0.091,1.815-0.035l1.531-2.54
							C122.342,133.037,122.868,133.235,123.388,133.442L123.388,133.442z M121.033,138.689c-1.048-0.408-2.223-0.389-3.256,0.059
							c-4.135,1.788-2.932,8.048,1.57,8.154C124.084,147.018,125.361,140.534,121.033,138.689L121.033,138.689z"/>
						<g>
							<path opacity="0.2" enable-background="new    " d="M126.645,141.916l2.302-1.485c-0.025-0.082-0.056-0.165-0.081-0.248
								l-2.244,1.449C126.637,141.726,126.635,141.822,126.645,141.916z"/>
							<path opacity="0.2" enable-background="new    " d="M121.033,138.689c-1.048-0.408-2.223-0.389-3.256,0.059
								c-1.177,0.509-1.908,1.384-2.267,2.373c0.402-0.822,1.091-1.533,2.108-1.974c1.034-0.445,2.207-0.466,3.257-0.057
								c2.374,1.011,3.052,3.416,2.408,5.364C124.171,142.449,123.574,139.774,121.033,138.689z"/>
							<path opacity="0.2" enable-background="new    " d="M114.945,137.005l-0.644-2.596c-0.075,0.045-0.152,0.082-0.226,0.128
								l0.66,2.66C114.806,137.135,114.873,137.065,114.945,137.005z"/>
							<path opacity="0.2" enable-background="new    " d="M128.149,147.618l-2.897-0.625c-0.359,0.492-0.803,0.911-1.269,1.299
								l0.052,0.209c0.386-0.336,0.755-0.692,1.056-1.108l2.899,0.625c0.266-0.5,0.509-1.015,0.711-1.545
								C128.534,146.863,128.349,147.244,128.149,147.618z"/>
							<path opacity="0.2" enable-background="new    " d="M112.125,143.782l0.181-0.116c-0.094-0.602-0.091-1.211-0.035-1.816
								l-2.54-1.528c0.083-0.376,0.201-0.74,0.338-1.097c-0.208,0.484-0.385,0.98-0.497,1.498l2.54,1.528
								C112.065,142.76,112.07,143.274,112.125,143.782z"/>
						</g>
					</g>
					<g>
						<path opacity="0.2" enable-background="new    " d="M68.783,150.123l1.592-2.228c-0.054-0.068-0.11-0.133-0.166-0.2
							l-1.552,2.174C68.705,149.951,68.738,150.041,68.783,150.123z"/>
						<path opacity="0.2" enable-background="new    " d="M62.377,149.191c-1.125,0.005-2.211,0.458-3.006,1.253
							c-0.907,0.907-1.264,1.989-1.234,3.041c0.07-0.911,0.451-1.827,1.234-2.609c0.795-0.796,1.881-1.247,3.006-1.252
							c2.579,0.065,4.096,2.051,4.214,4.099C66.679,151.529,65.139,149.262,62.377,149.191z"/>
						<path opacity="0.2" enable-background="new    " d="M56.097,149.869l-1.554-2.176c-0.054,0.068-0.112,0.132-0.163,0.204
							l1.592,2.228C56.015,150.04,56.051,149.952,56.097,149.869z"/>
						<path opacity="0.2" enable-background="new    " d="M72.282,154.869l-2.924,0.487c-0.153,0.59-0.411,1.142-0.702,1.675
							l0.126,0.176c0.235-0.456,0.446-0.923,0.575-1.42l2.924-0.487c0.063-0.563,0.1-1.131,0.09-1.698
							C72.362,154.025,72.328,154.449,72.282,154.869z"/>
						<path opacity="0.2" enable-background="new    " d="M55.972,157.208l0.125-0.176c-0.308-0.526-0.529-1.093-0.7-1.675
							l-2.925-0.487c-0.062-0.379-0.084-0.761-0.091-1.143c-0.014,0.526,0.005,1.053,0.091,1.574l2.925,0.487
							C55.54,156.279,55.732,156.754,55.972,157.208z"/>
						<path opacity="0.2" enable-background="new    " d="M68.362,161.447l-2.404-1.717c-0.525,0.309-1.091,0.531-1.674,0.7
							l-0.488,2.925c-0.528,0.081-1.064,0.102-1.597,0.102c-0.417-0.005-0.831-0.052-1.242-0.102l-0.488-2.925
							c-0.589-0.153-1.142-0.41-1.674-0.7l-2.405,1.717c-0.703-0.51-1.298-1.144-1.846-1.813l-0.166,0.231
							c0.594,0.744,1.239,1.454,2.012,2.013l2.405-1.718c0.532,0.291,1.084,0.549,1.674,0.701l0.488,2.925
							c0.412,0.049,0.825,0.096,1.242,0.102c0.533,0,1.07-0.021,1.597-0.102l0.488-2.925c0.583-0.17,1.149-0.391,1.674-0.701
							l2.404,1.718c0.743-0.594,1.452-1.239,2.012-2.013l-0.163-0.226C69.678,160.32,69.038,160.908,68.362,161.447z"/>
					</g>
					<g>
						<path opacity="0.2" enable-background="new    " d="M69.638,131.591l2.3-1.484c-0.025-0.083-0.054-0.165-0.08-0.248
							l-2.244,1.449C69.629,131.403,69.628,131.498,69.638,131.591z"/>
						<path opacity="0.2" enable-background="new    " d="M64.026,128.366c-1.047-0.409-2.223-0.389-3.256,0.058
							c-1.176,0.509-1.908,1.384-2.268,2.373c0.403-0.821,1.094-1.533,2.109-1.973c1.033-0.446,2.207-0.466,3.256-0.057
							c2.374,1.012,3.053,3.416,2.408,5.365C67.165,132.125,66.566,129.448,64.026,128.366z"/>
						<path opacity="0.2" enable-background="new    " d="M57.938,126.681l-0.644-2.596c-0.075,0.045-0.153,0.082-0.226,0.129
							l0.66,2.658C57.799,126.81,57.866,126.742,57.938,126.681z"/>
						<path opacity="0.2" enable-background="new    " d="M71.143,137.294l-2.897-0.626c-0.36,0.493-0.803,0.912-1.269,1.3
							l0.051,0.21c0.388-0.336,0.755-0.693,1.057-1.109l2.899,0.625c0.266-0.5,0.509-1.015,0.71-1.546
							C71.527,136.539,71.341,136.92,71.143,137.294z"/>
						<path opacity="0.2" enable-background="new    " d="M55.118,133.458l0.182-0.118c-0.093-0.602-0.092-1.211-0.035-1.815
							l-2.539-1.529c0.081-0.375,0.202-0.739,0.337-1.097c-0.207,0.484-0.383,0.981-0.495,1.498l2.54,1.529
							C55.059,132.437,55.063,132.95,55.118,133.458z"/>
						<path opacity="0.2" enable-background="new    " d="M65.076,141.964l-1.603-2.483c-0.601,0.093-1.21,0.092-1.815,0.035
							l-1.529,2.54c-0.522-0.119-1.029-0.296-1.524-0.494c-0.385-0.157-0.751-0.354-1.117-0.552l0.625-2.898
							c-0.492-0.359-0.912-0.803-1.299-1.269l-2.868,0.712c-0.465-0.732-0.785-1.542-1.049-2.366l-0.24,0.154
							c0.28,0.91,0.619,1.807,1.131,2.613l2.868-0.711c0.388,0.465,0.807,0.909,1.298,1.268l-0.624,2.899
							c0.365,0.198,0.732,0.394,1.117,0.552c0.496,0.196,1.002,0.375,1.524,0.493l1.529-2.539c0.604,0.057,1.213,0.059,1.815-0.034
							l1.602,2.484c0.908-0.279,1.807-0.619,2.613-1.131l-0.068-0.272C66.714,141.402,65.902,141.712,65.076,141.964z"/>
					</g>
					<g>
						<path opacity="0.2" enable-background="new    " d="M106.211,191.418l1.592-2.228c-0.053-0.068-0.111-0.133-0.166-0.199
							l-1.552,2.172C106.134,191.245,106.167,191.335,106.211,191.418z"/>
						<path opacity="0.2" enable-background="new    " d="M99.806,190.485c-1.125,0.007-2.209,0.458-3.005,1.253
							c-0.906,0.908-1.265,1.99-1.234,3.042c0.072-0.912,0.45-1.829,1.234-2.61c0.796-0.797,1.881-1.248,3.005-1.254
							c2.58,0.067,4.096,2.052,4.215,4.101C104.108,192.824,102.567,190.556,99.806,190.485z"/>
						<path opacity="0.2" enable-background="new    " d="M93.525,191.162l-1.555-2.176c-0.053,0.07-0.111,0.133-0.163,0.204
							l1.592,2.228C93.444,191.333,93.48,191.246,93.525,191.162z"/>
						<path opacity="0.2" enable-background="new    " d="M109.71,196.166l-2.924,0.486c-0.151,0.59-0.411,1.144-0.7,1.676
							l0.125,0.174c0.235-0.454,0.445-0.921,0.576-1.418l2.924-0.487c0.063-0.563,0.1-1.131,0.092-1.698
							C109.79,195.321,109.757,195.744,109.71,196.166z"/>
						<path opacity="0.2" enable-background="new    " d="M93.399,198.501l0.125-0.174c-0.308-0.524-0.53-1.094-0.7-1.676
							l-2.924-0.486c-0.062-0.381-0.085-0.763-0.091-1.145c-0.014,0.525,0.006,1.053,0.091,1.574l2.924,0.486
							C92.969,197.574,93.162,198.049,93.399,198.501z"/>
						<path opacity="0.2" enable-background="new    " d="M105.79,202.743l-2.403-1.718c-0.525,0.309-1.091,0.531-1.675,0.7
							l-0.487,2.924c-0.527,0.082-1.063,0.103-1.597,0.103c-0.416-0.004-0.83-0.052-1.243-0.103l-0.486-2.924
							c-0.59-0.152-1.143-0.41-1.675-0.7l-2.404,1.718c-0.703-0.511-1.296-1.145-1.848-1.813l-0.165,0.23
							c0.594,0.744,1.239,1.454,2.013,2.014l2.404-1.718c0.532,0.291,1.084,0.549,1.675,0.701l0.486,2.924
							c0.413,0.05,0.827,0.098,1.243,0.103c0.533,0,1.069-0.021,1.597-0.103l0.487-2.924c0.583-0.168,1.149-0.391,1.675-0.701
							l2.403,1.718c0.743-0.594,1.454-1.239,2.014-2.014l-0.164-0.226C107.107,201.615,106.466,202.203,105.79,202.743z"/>
					</g>
					<g>
						<path opacity="0.2" enable-background="new    " d="M107.066,172.887l2.302-1.485c-0.025-0.083-0.054-0.165-0.081-0.248
							l-2.243,1.448C107.057,172.697,107.056,172.792,107.066,172.887z"/>
						<path opacity="0.2" enable-background="new    " d="M101.455,169.66c-1.049-0.408-2.223-0.388-3.256,0.058
							c-1.176,0.51-1.908,1.385-2.268,2.373c0.401-0.822,1.092-1.533,2.108-1.972c1.032-0.447,2.207-0.467,3.256-0.058
							c2.374,1.012,3.053,3.416,2.409,5.365C104.592,173.419,103.995,170.744,101.455,169.66z"/>
						<path opacity="0.2" enable-background="new    " d="M95.367,167.976l-0.643-2.596c-0.077,0.044-0.154,0.081-0.229,0.129
							l0.661,2.658C95.228,168.104,95.294,168.036,95.367,167.976z"/>
						<path opacity="0.2" enable-background="new    " d="M108.571,178.588l-2.899-0.625c-0.358,0.494-0.801,0.911-1.268,1.299
							l0.052,0.21c0.386-0.336,0.755-0.693,1.059-1.11l2.896,0.625c0.267-0.501,0.51-1.014,0.71-1.545
							C108.956,177.833,108.769,178.214,108.571,178.588z"/>
						<path opacity="0.2" enable-background="new    " d="M92.547,174.753l0.18-0.117c-0.091-0.602-0.091-1.211-0.033-1.815
							l-2.54-1.53c0.082-0.376,0.201-0.739,0.336-1.096c-0.207,0.484-0.383,0.98-0.495,1.497l2.539,1.53
							C92.487,173.731,92.492,174.244,92.547,174.753z"/>
						<path opacity="0.2" enable-background="new    " d="M102.504,183.26l-1.603-2.483c-0.601,0.094-1.21,0.091-1.814,0.035
							l-1.53,2.539c-0.521-0.119-1.026-0.296-1.523-0.494c-0.386-0.158-0.752-0.353-1.118-0.552l0.625-2.899
							c-0.491-0.358-0.91-0.801-1.299-1.268l-2.867,0.711c-0.466-0.733-0.785-1.542-1.05-2.364l-0.239,0.153
							c0.279,0.908,0.618,1.806,1.129,2.613l2.868-0.711c0.388,0.466,0.807,0.909,1.299,1.268l-0.626,2.9
							c0.367,0.198,0.732,0.394,1.119,0.552c0.495,0.196,1.001,0.374,1.522,0.493l1.531-2.541c0.604,0.057,1.211,0.059,1.814-0.033
							l1.602,2.482c0.91-0.278,1.807-0.618,2.613-1.13l-0.067-0.272C104.144,182.697,103.33,183.006,102.504,183.26z"/>
					</g>
					<g>
						<path opacity="0.2" enable-background="new    " d="M106.211,150.123l1.592-2.228c-0.053-0.068-0.111-0.133-0.166-0.2
							l-1.552,2.174C106.134,149.951,106.167,150.041,106.211,150.123z"/>
						<path opacity="0.2" enable-background="new    " d="M99.806,149.191c-1.125,0.005-2.209,0.458-3.005,1.253
							c-0.906,0.907-1.265,1.989-1.234,3.041c0.072-0.911,0.45-1.827,1.234-2.609c0.796-0.796,1.881-1.247,3.005-1.252
							c2.58,0.065,4.096,2.051,4.215,4.099C104.108,151.529,102.567,149.262,99.806,149.191z"/>
						<path opacity="0.2" enable-background="new    " d="M93.525,149.869l-1.555-2.176c-0.053,0.068-0.111,0.132-0.163,0.204
							l1.592,2.228C93.444,150.04,93.48,149.952,93.525,149.869z"/>
						<path opacity="0.2" enable-background="new    " d="M109.71,154.869l-2.924,0.487c-0.151,0.59-0.411,1.142-0.7,1.675
							l0.125,0.176c0.235-0.456,0.445-0.923,0.576-1.42l2.924-0.487c0.063-0.563,0.1-1.131,0.092-1.698
							C109.79,154.025,109.757,154.449,109.71,154.869z"/>
						<path opacity="0.2" enable-background="new    " d="M93.399,157.208l0.125-0.176c-0.308-0.526-0.53-1.093-0.7-1.675
							L89.9,154.87c-0.062-0.379-0.085-0.761-0.091-1.143c-0.014,0.526,0.006,1.053,0.091,1.574l2.924,0.487
							C92.969,156.279,93.162,156.754,93.399,157.208z"/>
						<path opacity="0.2" enable-background="new    " d="M105.79,161.447l-2.403-1.717c-0.525,0.309-1.091,0.531-1.675,0.7
							l-0.487,2.925c-0.527,0.081-1.063,0.102-1.597,0.102c-0.416-0.005-0.83-0.052-1.243-0.102l-0.486-2.925
							c-0.59-0.153-1.143-0.41-1.675-0.7l-2.404,1.717c-0.703-0.51-1.296-1.144-1.848-1.813l-0.165,0.231
							c0.594,0.744,1.239,1.454,2.013,2.013l2.404-1.718c0.532,0.291,1.084,0.549,1.675,0.701l0.486,2.925
							c0.413,0.049,0.827,0.096,1.243,0.102c0.533,0,1.069-0.021,1.597-0.102l0.487-2.925c0.583-0.17,1.149-0.391,1.675-0.701
							l2.403,1.718c0.743-0.594,1.454-1.239,2.014-2.013l-0.164-0.226C107.107,160.32,106.466,160.908,105.79,161.447z"/>
					</g>
					<g>
						
							<linearGradient id="SVGID_9_" gradientUnits="userSpaceOnUse" x1="654.8555" y1="139.063" x2="654.8555" y2="97.4344" gradientTransform="matrix(1 0 0 1 -564 45)">
							<stop  offset="0" style="stop-color:#FFFFFF;stop-opacity:0.18"/>
							<stop  offset="1" style="stop-color:#FFFFFF;stop-opacity:0.3"/>
						</linearGradient>
						<path fill="url(#SVGID_9_)" d="M69.357,196.651l2.925-0.486c0.105-0.945,0.155-1.9,0-2.841l-2.925-0.489
							c-0.169-0.581-0.392-1.148-0.7-1.674l1.717-2.404c-0.594-0.741-1.239-1.451-2.012-2.012l-2.404,1.718
							c-0.533-0.291-1.085-0.548-1.674-0.701l-0.488-2.924c-0.386-0.048-0.772-0.097-1.163-0.099
							c-0.56-0.002-1.123,0.008-1.676,0.099l-0.488,2.924c-0.582,0.169-1.149,0.392-1.674,0.701l-2.404-1.718
							c-0.743,0.593-1.451,1.238-2.012,2.012l1.718,2.404c-0.292,0.533-0.548,1.085-0.701,1.674l-2.924,0.489
							c-0.105,0.942-0.155,1.898,0,2.841l2.924,0.486c0.17,0.582,0.392,1.15,0.701,1.676l-1.718,2.402
							c0.594,0.743,1.239,1.453,2.012,2.013l2.405-1.718c0.533,0.29,1.085,0.548,1.673,0.7l0.488,2.924
							c0.412,0.05,0.825,0.099,1.242,0.103c0.533,0,1.069-0.021,1.597-0.103l0.487-2.924c0.582-0.169,1.149-0.391,1.674-0.7
							l2.404,1.718c0.743-0.593,1.452-1.239,2.013-2.013l-1.718-2.402C68.947,197.795,69.205,197.241,69.357,196.651z
							 M63.834,198.743c-4.224,1.56-7.649-3.818-4.462-7.004c0.794-0.795,1.88-1.247,3.006-1.253
							C67.08,190.606,68.282,197.103,63.834,198.743z M87.906,204.796c-0.169-0.583-0.392-1.149-0.7-1.675l1.718-2.404
							c-0.594-0.741-1.24-1.451-2.013-2.011l-2.404,1.718c-0.532-0.291-1.084-0.549-1.675-0.7l-0.486-2.925
							c-0.387-0.047-0.774-0.097-1.164-0.1c-0.56-0.001-1.123,0.009-1.677,0.1l-0.487,2.925c-0.583,0.168-1.15,0.391-1.675,0.7
							l-2.403-1.718c-0.742,0.593-1.453,1.238-2.012,2.011l1.718,2.404c-0.291,0.533-0.548,1.085-0.701,1.675l-2.924,0.487
							c-0.106,0.943-0.155,1.898,0,2.841l2.924,0.486c0.17,0.583,0.392,1.151,0.701,1.675l-1.718,2.403
							c0.594,0.743,1.24,1.452,2.012,2.012l2.404-1.716c0.532,0.289,1.086,0.547,1.675,0.699l0.487,2.924
							c0.413,0.05,0.826,0.099,1.243,0.103c0.533,0,1.069-0.021,1.597-0.103l0.486-2.924c0.583-0.169,1.15-0.391,1.675-0.699
							l2.404,1.716c0.742-0.593,1.452-1.238,2.013-2.012l-1.718-2.403c0.291-0.532,0.549-1.085,0.7-1.675l2.924-0.486
							c0.106-0.945,0.156-1.899,0-2.841L87.906,204.796z M82.385,210.703c-4.226,1.559-7.649-3.818-4.463-7.004
							c0.796-0.795,1.88-1.247,3.005-1.253C85.629,202.566,86.831,209.061,82.385,210.703z M73.945,124.563
							c0.17,0.583,0.392,1.15,0.701,1.675l-1.718,2.404c0.595,0.742,1.24,1.452,2.013,2.011l2.404-1.716
							c0.532,0.289,1.086,0.547,1.675,0.699l0.487,2.924c0.413,0.051,0.826,0.099,1.242,0.104c0.533,0,1.07-0.022,1.598-0.104
							l0.486-2.924c0.583-0.168,1.15-0.391,1.675-0.699l2.404,1.716c0.743-0.594,1.452-1.239,2.014-2.011l-1.718-2.404
							c0.29-0.533,0.548-1.084,0.7-1.675l2.923-0.486c0.106-0.944,0.156-1.898,0-2.841l-2.923-0.487
							c-0.169-0.583-0.392-1.149-0.7-1.674l1.718-2.405c-0.594-0.741-1.24-1.451-2.014-2.012l-2.404,1.72
							c-0.532-0.291-1.085-0.548-1.675-0.701l-0.486-2.924c-0.387-0.047-0.774-0.096-1.164-0.099
							c-0.56-0.001-1.123,0.009-1.677,0.099l-0.487,2.924c-0.582,0.169-1.149,0.391-1.675,0.701l-2.403-1.718
							c-0.742,0.594-1.453,1.239-2.013,2.012l1.718,2.403c-0.29,0.534-0.548,1.086-0.701,1.675l-2.924,0.487
							c-0.106,0.943-0.155,1.899,0,2.841L73.945,124.563z M77.92,119.651c0.796-0.796,1.88-1.248,3.006-1.253
							c4.703,0.121,5.904,6.616,1.458,8.257C78.159,128.214,74.734,122.837,77.92,119.651z M68.245,177.964l2.897,0.625
							c0.446-0.838,0.844-1.708,1.045-2.64l-2.539-1.53c0.056-0.604,0.059-1.212-0.034-1.815L72.098,171
							c-0.278-0.908-0.617-1.806-1.13-2.612L68.1,169.1c-0.386-0.465-0.805-0.908-1.297-1.267l0.625-2.899
							c-0.342-0.186-0.684-0.374-1.045-0.521c-0.519-0.208-1.046-0.406-1.595-0.526l-1.53,2.541
							c-0.604-0.058-1.213-0.06-1.815,0.033l-1.602-2.481c-0.909,0.278-1.807,0.617-2.613,1.129l0.711,2.868
							c-0.466,0.388-0.909,0.807-1.268,1.298l-2.898-0.624c-0.446,0.838-0.843,1.708-1.046,2.64l2.54,1.53
							c-0.057,0.604-0.059,1.214,0.035,1.815l-2.483,1.601c0.278,0.91,0.618,1.807,1.13,2.612l2.867-0.712
							c0.388,0.467,0.807,0.909,1.3,1.267l-0.625,2.899c0.366,0.198,0.732,0.395,1.118,0.553c0.496,0.197,1.002,0.375,1.524,0.493
							l1.528-2.539c0.605,0.056,1.213,0.059,1.815-0.036l1.603,2.483c0.908-0.277,1.806-0.616,2.612-1.129l-0.712-2.867
							C67.442,178.875,67.885,178.458,68.245,177.964z M62.339,177.874c-4.502-0.107-5.705-6.368-1.569-8.156
							c1.033-0.446,2.208-0.466,3.256-0.058C68.353,171.504,67.077,177.986,62.339,177.874z M86.844,189.6l2.896,0.625
							c0.447-0.839,0.845-1.708,1.048-2.64l-2.54-1.53c0.057-0.605,0.059-1.213-0.035-1.815l2.482-1.603
							c-0.278-0.907-0.617-1.806-1.129-2.611l-2.868,0.712c-0.388-0.467-0.806-0.909-1.299-1.267l0.625-2.899
							c-0.341-0.187-0.685-0.373-1.045-0.52c-0.521-0.208-1.047-0.406-1.596-0.526l-1.53,2.542c-0.604-0.058-1.212-0.06-1.815,0.034
							l-1.601-2.483c-0.909,0.279-1.807,0.617-2.612,1.129l0.712,2.868c-0.466,0.388-0.909,0.807-1.269,1.298l-2.897-0.624
							c-0.447,0.838-0.844,1.709-1.047,2.641l2.54,1.529c-0.057,0.604-0.06,1.215,0.034,1.816l-2.481,1.601
							c0.278,0.909,0.617,1.807,1.129,2.612l2.867-0.711c0.388,0.466,0.808,0.909,1.299,1.268l-0.625,2.898
							c0.366,0.197,0.732,0.395,1.118,0.551c0.495,0.197,1.002,0.375,1.523,0.494l1.53-2.539c0.604,0.057,1.213,0.06,1.815-0.037
							l1.602,2.483c0.91-0.277,1.807-0.617,2.613-1.129l-0.711-2.867C86.042,190.51,86.484,190.092,86.844,189.6z M80.938,189.509
							c-4.502-0.106-5.704-6.367-1.569-8.154c1.032-0.447,2.208-0.466,3.255-0.059C86.953,183.14,85.676,189.623,80.938,189.509z
							 M71.021,162.677c-0.106,0.942-0.155,1.899,0,2.84l2.924,0.487c0.17,0.583,0.392,1.15,0.701,1.675l-1.718,2.404
							c0.595,0.742,1.24,1.452,2.013,2.011l2.404-1.717c0.532,0.289,1.086,0.547,1.675,0.7l0.487,2.924
							c0.413,0.049,0.826,0.098,1.242,0.102c0.533,0,1.07-0.02,1.598-0.102l0.486-2.924c0.583-0.168,1.15-0.392,1.675-0.7
							l2.404,1.717c0.743-0.593,1.452-1.238,2.014-2.011l-1.718-2.403c0.29-0.533,0.548-1.086,0.7-1.675l2.923-0.487
							c0.106-0.945,0.156-1.9,0-2.841l-2.923-0.487c-0.169-0.582-0.392-1.15-0.7-1.674l1.718-2.404
							c-0.594-0.741-1.24-1.451-2.014-2.012l-2.404,1.717c-0.532-0.29-1.085-0.548-1.675-0.7l-0.486-2.924
							c-0.387-0.048-0.774-0.097-1.164-0.1c-0.56-0.001-1.123,0.01-1.677,0.1l-0.487,2.925c-0.582,0.169-1.149,0.391-1.675,0.699
							l-2.403-1.717c-0.742,0.594-1.453,1.239-2.013,2.012l1.718,2.404c-0.29,0.533-0.548,1.085-0.701,1.674L71.021,162.677z
							 M77.92,161.092c0.796-0.795,1.88-1.247,3.006-1.253c4.703,0.122,5.904,6.617,1.458,8.257
							C78.159,169.655,74.734,164.277,77.92,161.092z M72.545,147.88l2.868-0.712c0.388,0.466,0.808,0.909,1.299,1.268l-0.625,2.898
							c0.366,0.199,0.732,0.395,1.118,0.552c0.495,0.198,1.002,0.376,1.523,0.495l1.53-2.541c0.604,0.058,1.213,0.06,1.815-0.034
							l1.602,2.483c0.91-0.278,1.807-0.616,2.613-1.131l-0.712-2.866c0.467-0.388,0.91-0.807,1.269-1.299l2.897,0.625
							c0.446-0.838,0.845-1.709,1.048-2.641l-2.54-1.529c0.056-0.605,0.058-1.213-0.035-1.816l2.483-1.602
							c-0.279-0.909-0.617-1.807-1.129-2.612l-2.869,0.711c-0.388-0.467-0.806-0.91-1.299-1.268l0.625-2.898
							c-0.341-0.188-0.685-0.375-1.045-0.521c-0.521-0.208-1.047-0.406-1.596-0.526l-1.53,2.541
							c-0.603-0.058-1.212-0.06-1.814,0.034l-1.603-2.482c-0.908,0.277-1.806,0.617-2.612,1.128l0.713,2.868
							c-0.466,0.389-0.909,0.806-1.269,1.299l-2.898-0.625c-0.446,0.838-0.844,1.709-1.046,2.641l2.54,1.529
							c-0.058,0.604-0.06,1.215,0.033,1.815l-2.481,1.603C71.694,146.177,72.033,147.075,72.545,147.88z M79.37,138.748
							c1.032-0.447,2.208-0.466,3.255-0.059c4.329,1.845,3.051,8.328-1.686,8.213C76.437,146.796,75.234,140.536,79.37,138.748z
							 M126.315,204.796c-0.169-0.583-0.392-1.149-0.702-1.675l1.719-2.404c-0.595-0.741-1.24-1.451-2.013-2.011l-2.405,1.718
							c-0.531-0.291-1.084-0.549-1.674-0.7l-0.486-2.925c-0.386-0.047-0.775-0.097-1.165-0.1c-0.56-0.001-1.123,0.009-1.677,0.1
							l-0.487,2.925c-0.583,0.168-1.149,0.391-1.675,0.7l-2.403-1.718c-0.743,0.593-1.453,1.238-2.012,2.011l1.717,2.404
							c-0.291,0.533-0.548,1.085-0.701,1.675l-2.924,0.487c-0.106,0.943-0.157,1.898,0,2.841l2.924,0.486
							c0.169,0.583,0.392,1.151,0.701,1.675l-1.717,2.403c0.593,0.743,1.239,1.452,2.012,2.012l2.403-1.716
							c0.533,0.289,1.086,0.547,1.675,0.699l0.487,2.924c0.412,0.05,0.826,0.099,1.243,0.103c0.533,0,1.069-0.021,1.598-0.103
							l0.486-2.924c0.583-0.169,1.151-0.391,1.675-0.699l2.404,1.716c0.742-0.593,1.452-1.238,2.012-2.012l-1.718-2.403
							c0.291-0.532,0.549-1.085,0.7-1.675l2.924-0.486c0.106-0.945,0.156-1.899,0-2.841L126.315,204.796z M120.792,210.703
							c-4.225,1.559-7.648-3.818-4.463-7.004c0.796-0.795,1.88-1.247,3.005-1.253C124.037,202.566,125.239,209.061,120.792,210.703z
							 M112.354,124.563c0.169,0.583,0.393,1.15,0.7,1.675l-1.718,2.404c0.594,0.742,1.239,1.452,2.013,2.011l2.404-1.716
							c0.531,0.289,1.085,0.547,1.674,0.699l0.486,2.924c0.413,0.051,0.827,0.099,1.243,0.104c0.533,0,1.069-0.022,1.599-0.104
							l0.486-2.924c0.583-0.168,1.15-0.391,1.674-0.699l2.405,1.716c0.742-0.594,1.451-1.239,2.013-2.011l-1.719-2.404
							c0.291-0.533,0.55-1.084,0.702-1.675l2.923-0.486c0.106-0.944,0.156-1.898,0-2.841l-2.923-0.487
							c-0.169-0.583-0.392-1.149-0.702-1.674l1.719-2.405c-0.595-0.741-1.24-1.451-2.013-2.012l-2.405,1.718
							c-0.531-0.291-1.084-0.548-1.674-0.7l-0.486-2.925c-0.386-0.048-0.775-0.097-1.165-0.099c-0.56-0.002-1.123,0.009-1.677,0.099
							l-0.487,2.925c-0.583,0.169-1.149,0.391-1.675,0.7l-2.403-1.718c-0.743,0.595-1.453,1.24-2.012,2.012l1.717,2.405
							c-0.291,0.533-0.548,1.085-0.701,1.674l-2.924,0.487c-0.106,0.943-0.157,1.899,0,2.841L112.354,124.563z M116.329,119.651
							c0.796-0.796,1.88-1.248,3.005-1.253c4.703,0.121,5.905,6.616,1.458,8.257C116.567,128.214,113.144,122.837,116.329,119.651z
							 M113.676,180.911l-2.898-0.624c-0.447,0.837-0.843,1.708-1.046,2.64l2.54,1.53c-0.057,0.604-0.059,1.214,0.035,1.815
							l-2.482,1.602c0.278,0.909,0.617,1.807,1.13,2.613l2.867-0.712c0.389,0.467,0.807,0.91,1.299,1.268l-0.626,2.899
							c0.366,0.198,0.732,0.396,1.118,0.551c0.496,0.197,1.002,0.375,1.524,0.494l1.53-2.539c0.604,0.057,1.213,0.06,1.815-0.036
							l1.601,2.482c0.91-0.277,1.808-0.616,2.614-1.129l-0.712-2.867c0.465-0.389,0.909-0.806,1.268-1.299l2.897,0.625
							c0.446-0.84,0.845-1.709,1.046-2.641l-2.538-1.53c0.056-0.605,0.058-1.212-0.036-1.815l2.483-1.603
							c-0.28-0.908-0.617-1.805-1.131-2.61l-2.867,0.71c-0.387-0.466-0.807-0.908-1.299-1.267l0.625-2.899
							c-0.342-0.187-0.684-0.374-1.046-0.521c-0.52-0.208-1.046-0.406-1.595-0.526l-1.531,2.541
							c-0.604-0.058-1.212-0.061-1.814,0.034l-1.602-2.482c-0.909,0.277-1.807,0.616-2.612,1.128l0.711,2.869
							C114.479,180,114.037,180.419,113.676,180.911z M117.777,181.354c1.032-0.447,2.208-0.466,3.256-0.059
							c4.328,1.844,3.051,8.327-1.686,8.213C114.845,189.401,113.643,183.142,117.777,181.354z M126.315,162.189
							c-0.169-0.582-0.392-1.149-0.702-1.674l1.719-2.404c-0.595-0.742-1.24-1.451-2.013-2.013l-2.405,1.718
							c-0.531-0.291-1.084-0.548-1.674-0.701l-0.486-2.924c-0.386-0.048-0.775-0.096-1.165-0.1c-0.56-0.001-1.123,0.01-1.677,0.1
							l-0.487,2.924c-0.583,0.17-1.149,0.391-1.675,0.701l-2.403-1.718c-0.743,0.595-1.453,1.24-2.012,2.013l1.717,2.404
							c-0.291,0.533-0.548,1.085-0.701,1.674l-2.924,0.488c-0.106,0.942-0.157,1.899,0,2.84l2.924,0.487
							c0.169,0.583,0.392,1.15,0.701,1.675l-1.717,2.403c0.593,0.743,1.239,1.452,2.012,2.012l2.403-1.717
							c0.533,0.289,1.086,0.548,1.675,0.701l0.487,2.924c0.412,0.049,0.826,0.098,1.243,0.102c0.533,0,1.069-0.021,1.598-0.102
							l0.486-2.924c0.583-0.169,1.151-0.393,1.675-0.701l2.404,1.717c0.742-0.593,1.452-1.237,2.012-2.012l-1.718-2.403
							c0.291-0.533,0.549-1.086,0.7-1.675l2.924-0.487c0.106-0.945,0.156-1.899,0-2.84L126.315,162.189z M120.792,168.096
							c-4.225,1.559-7.648-3.818-4.463-7.005c0.796-0.795,1.88-1.247,3.005-1.252C124.037,159.959,125.239,166.455,120.792,168.096z
							 M114.336,151.736l0.625-2.899c-0.492-0.359-0.911-0.802-1.299-1.268l-2.868,0.711c-0.512-0.805-0.851-1.703-1.129-2.612
							l0.239-0.154c0.265,0.823,0.583,1.633,1.049,2.366l2.868-0.712c0.389,0.466,0.808,0.909,1.3,1.268l-0.627,2.898
							c0.368,0.199,0.733,0.395,1.119,0.552c0.495,0.198,1.002,0.376,1.523,0.495l1.529-2.54c0.604,0.057,1.214,0.059,1.815-0.035
							l1.602,2.483c0.826-0.253,1.639-0.563,2.385-1.001l0.069,0.271c-0.805,0.512-1.704,0.851-2.612,1.13l-1.602-2.482
							c-0.602,0.094-1.209,0.091-1.815,0.033l-1.528,2.541c-0.521-0.119-1.028-0.297-1.524-0.493
							C115.068,152.13,114.703,151.933,114.336,151.736z M55.396,155.356c0.171,0.583,0.392,1.149,0.7,1.675l-1.717,2.403
							c0.594,0.743,1.239,1.453,2.012,2.012l2.405-1.717c0.532,0.291,1.084,0.547,1.674,0.7l0.488,2.924
							c0.412,0.05,0.825,0.097,1.242,0.102c0.533,0,1.07-0.021,1.597-0.102l0.488-2.924c0.583-0.169,1.149-0.391,1.674-0.7
							l2.404,1.717c0.743-0.593,1.452-1.238,2.012-2.012l-1.717-2.403c0.291-0.533,0.548-1.085,0.7-1.675l2.925-0.487
							c0.105-0.943,0.155-1.897,0-2.84l-2.925-0.487c-0.169-0.583-0.392-1.149-0.7-1.674l1.717-2.405
							c-0.594-0.741-1.239-1.452-2.012-2.011l-2.404,1.717c-0.533-0.291-1.085-0.548-1.674-0.699l-0.488-2.925
							c-0.386-0.047-0.772-0.096-1.163-0.098c-0.56-0.003-1.123,0.008-1.676,0.098l-0.488,2.925
							c-0.582,0.169-1.149,0.391-1.674,0.699l-2.404-1.717c-0.743,0.593-1.451,1.239-2.012,2.011l1.718,2.405
							c-0.292,0.532-0.548,1.084-0.701,1.674l-2.924,0.487c-0.105,0.943-0.155,1.898,0,2.84L55.396,155.356z M59.373,150.444
							c0.794-0.796,1.88-1.248,3.006-1.253c4.702,0.121,5.904,6.617,1.458,8.257C59.61,159.006,56.185,153.63,59.373,150.444z
							 M55.3,133.341l-2.483,1.601c0.278,0.911,0.618,1.808,1.129,2.613l2.868-0.712c0.388,0.467,0.807,0.909,1.299,1.269
							l-0.625,2.898c0.366,0.198,0.732,0.395,1.117,0.552c0.496,0.198,1.002,0.375,1.524,0.494l1.529-2.54
							c0.604,0.057,1.213,0.059,1.815-0.035l1.603,2.483c0.908-0.277,1.806-0.617,2.612-1.131l-0.712-2.866
							c0.466-0.388,0.909-0.807,1.269-1.3l2.897,0.626c0.446-0.839,0.844-1.708,1.045-2.641l-2.539-1.53
							c0.056-0.605,0.059-1.214-0.034-1.815l2.482-1.604c-0.278-0.908-0.617-1.806-1.13-2.611l-2.868,0.712
							c-0.386-0.467-0.805-0.909-1.297-1.267l0.625-2.899c-0.342-0.186-0.684-0.373-1.045-0.521
							c-0.519-0.208-1.046-0.405-1.595-0.525l-1.53,2.539c-0.604-0.057-1.213-0.059-1.815,0.035l-1.602-2.482
							c-0.909,0.277-1.807,0.617-2.613,1.129l0.711,2.868c-0.466,0.389-0.909,0.806-1.268,1.299l-2.898-0.625
							c-0.446,0.838-0.843,1.709-1.046,2.64l2.54,1.529C55.208,132.13,55.207,132.739,55.3,133.341z M60.77,128.423
							c1.033-0.446,2.208-0.466,3.256-0.058c4.328,1.845,3.051,8.326-1.687,8.213C57.837,136.472,56.634,130.212,60.77,128.423z
							 M106.787,196.651l2.924-0.486c0.105-0.945,0.155-1.9,0-2.841l-2.924-0.489c-0.17-0.581-0.393-1.148-0.701-1.674l1.717-2.404
							c-0.593-0.741-1.238-1.451-2.013-2.012l-2.403,1.718c-0.532-0.291-1.085-0.548-1.675-0.701l-0.486-2.924
							c-0.387-0.048-0.774-0.097-1.164-0.099c-0.56-0.002-1.123,0.008-1.677,0.099l-0.486,2.924
							c-0.583,0.169-1.151,0.392-1.675,0.701l-2.404-1.718c-0.743,0.593-1.452,1.238-2.013,2.012l1.717,2.404
							c-0.29,0.533-0.548,1.085-0.7,1.674l-2.924,0.489c-0.106,0.942-0.154,1.898,0,2.841l2.924,0.486
							c0.17,0.582,0.392,1.15,0.7,1.676l-1.717,2.402c0.594,0.743,1.239,1.453,2.013,2.013l2.404-1.718
							c0.532,0.29,1.084,0.548,1.675,0.7l0.486,2.924c0.413,0.05,0.827,0.099,1.243,0.103c0.533,0,1.069-0.021,1.597-0.103
							l0.487-2.924c0.583-0.169,1.149-0.391,1.675-0.7l2.403,1.718c0.743-0.593,1.454-1.239,2.014-2.013l-1.718-2.402
							C106.375,197.795,106.635,197.241,106.787,196.651z M101.264,198.743c-4.225,1.56-7.65-3.818-4.463-7.004
							c0.796-0.795,1.881-1.247,3.005-1.253C104.508,190.606,105.711,197.103,101.264,198.743z M108.396,168.388l-2.869,0.712
							c-0.388-0.465-0.806-0.908-1.299-1.267l0.624-2.899c-0.34-0.186-0.682-0.374-1.043-0.521
							c-0.521-0.208-1.049-0.406-1.597-0.526l-1.53,2.541c-0.604-0.058-1.212-0.06-1.815,0.033l-1.602-2.481
							c-0.908,0.278-1.806,0.617-2.612,1.129l0.712,2.868c-0.467,0.388-0.909,0.807-1.269,1.297l-2.898-0.624
							c-0.445,0.838-0.843,1.708-1.045,2.64l2.54,1.53c-0.058,0.604-0.059,1.214,0.033,1.815l-2.481,1.601
							c0.279,0.91,0.618,1.807,1.13,2.612l2.867-0.712c0.389,0.467,0.808,0.909,1.299,1.267l-0.625,2.899
							c0.366,0.198,0.732,0.395,1.118,0.553c0.496,0.197,1.002,0.375,1.523,0.493l1.53-2.539c0.604,0.056,1.214,0.059,1.814-0.036
							l1.603,2.483c0.909-0.277,1.806-0.616,2.611-1.129l-0.711-2.867c0.466-0.388,0.909-0.807,1.267-1.299l2.898,0.625
							c0.447-0.838,0.844-1.708,1.048-2.639l-2.54-1.531c0.055-0.604,0.059-1.213-0.036-1.815l2.482-1.603
							C109.248,170.092,108.909,169.193,108.396,168.388z M99.768,177.874c-4.502-0.107-5.704-6.368-1.569-8.156
							c1.032-0.446,2.207-0.466,3.256-0.058C105.782,171.504,104.506,177.986,99.768,177.874z M109.71,154.869
							c0.106-0.943,0.155-1.897,0-2.84l-2.924-0.487c-0.17-0.583-0.392-1.149-0.7-1.674l1.718-2.405
							c-0.594-0.741-1.239-1.452-2.014-2.011l-2.403,1.717c-0.533-0.291-1.085-0.548-1.675-0.699l-0.487-2.925
							c-0.385-0.047-0.772-0.096-1.163-0.098c-0.56-0.003-1.123,0.008-1.677,0.098l-0.486,2.925
							c-0.583,0.169-1.15,0.391-1.675,0.699l-2.403-1.717c-0.743,0.593-1.452,1.239-2.013,2.011l1.717,2.405
							c-0.29,0.532-0.548,1.084-0.7,1.674l-2.925,0.487c-0.106,0.943-0.154,1.898,0,2.84l2.925,0.487
							c0.169,0.583,0.392,1.149,0.7,1.675l-1.717,2.403c0.594,0.743,1.239,1.453,2.013,2.012l2.403-1.717
							c0.531,0.291,1.086,0.547,1.675,0.7l0.486,2.924c0.414,0.05,0.828,0.097,1.243,0.102c0.533,0,1.069-0.021,1.597-0.102
							l0.486-2.924c0.583-0.169,1.15-0.391,1.675-0.7l2.403,1.717c0.743-0.593,1.454-1.238,2.013-2.012l-1.717-2.403
							c0.29-0.533,0.549-1.085,0.7-1.675L109.71,154.869z M101.264,157.447c-4.225,1.559-7.65-3.817-4.463-7.003
							c0.796-0.796,1.881-1.248,3.005-1.253C104.508,149.312,105.711,155.808,101.264,157.447z M92.694,131.525
							c-0.058,0.604-0.059,1.214,0.033,1.815l-2.481,1.601c0.279,0.911,0.618,1.808,1.13,2.613l2.867-0.712
							c0.389,0.467,0.808,0.909,1.299,1.269l-0.625,2.898c0.366,0.198,0.732,0.395,1.118,0.552c0.496,0.198,1.002,0.375,1.523,0.494
							l1.53-2.54c0.604,0.057,1.214,0.059,1.814-0.035l1.603,2.483c0.909-0.277,1.806-0.617,2.611-1.131l-0.711-2.866
							c0.466-0.388,0.909-0.807,1.267-1.3l2.898,0.626c0.447-0.839,0.844-1.708,1.048-2.641l-2.54-1.53
							c0.055-0.605,0.059-1.214-0.036-1.815l2.482-1.604c-0.278-0.908-0.616-1.806-1.128-2.611l-2.868,0.712
							c-0.388-0.467-0.806-0.909-1.297-1.267l0.624-2.899c-0.341-0.186-0.684-0.373-1.045-0.521
							c-0.521-0.208-1.049-0.405-1.596-0.525l-1.53,2.539c-0.605-0.057-1.213-0.059-1.814,0.035l-1.602-2.482
							c-0.909,0.277-1.806,0.617-2.613,1.129l0.712,2.868c-0.467,0.389-0.91,0.806-1.269,1.299l-2.899-0.625
							c-0.445,0.838-0.843,1.709-1.045,2.64L92.694,131.525z M98.199,128.423c1.032-0.446,2.207-0.466,3.256-0.058
							c4.328,1.845,3.051,8.326-1.687,8.213C95.266,136.472,94.064,130.212,98.199,128.423z"/>
						<g>
							<path opacity="0.2" enable-background="new    " d="M107.066,131.591l2.302-1.484c-0.025-0.083-0.054-0.165-0.081-0.248
								l-2.243,1.449C107.057,131.403,107.056,131.498,107.066,131.591z"/>
							<path opacity="0.2" enable-background="new    " d="M101.455,128.366c-1.049-0.409-2.223-0.389-3.256,0.058
								c-1.176,0.509-1.908,1.384-2.268,2.373c0.401-0.821,1.092-1.533,2.108-1.973c1.032-0.446,2.207-0.466,3.256-0.057
								c2.374,1.012,3.053,3.416,2.409,5.365C104.592,132.125,103.995,129.448,101.455,128.366z"/>
							<path opacity="0.2" enable-background="new    " d="M95.367,126.681l-0.643-2.596c-0.077,0.045-0.154,0.082-0.229,0.129
								l0.661,2.658C95.228,126.81,95.294,126.742,95.367,126.681z"/>
							<path opacity="0.2" enable-background="new    " d="M108.571,137.294l-2.899-0.626c-0.358,0.493-0.801,0.912-1.268,1.3
								l0.052,0.21c0.386-0.336,0.755-0.693,1.059-1.109l2.896,0.625c0.267-0.5,0.51-1.015,0.71-1.546
								C108.956,136.539,108.769,136.92,108.571,137.294z"/>
							<path opacity="0.2" enable-background="new    " d="M92.547,133.458l0.18-0.118c-0.091-0.602-0.091-1.211-0.033-1.815
								l-2.54-1.529c0.082-0.375,0.201-0.739,0.336-1.097c-0.207,0.484-0.383,0.981-0.495,1.498l2.539,1.529
								C92.487,132.437,92.492,132.95,92.547,133.458z"/>
							<path opacity="0.2" enable-background="new    " d="M102.504,141.964l-1.603-2.483c-0.601,0.093-1.21,0.092-1.814,0.035
								l-1.53,2.54c-0.521-0.119-1.026-0.296-1.523-0.494c-0.386-0.157-0.752-0.354-1.118-0.552l0.625-2.898
								c-0.491-0.359-0.91-0.803-1.299-1.269l-2.867,0.712c-0.466-0.732-0.785-1.542-1.05-2.366l-0.239,0.154
								c0.279,0.91,0.618,1.807,1.129,2.613l2.868-0.711c0.388,0.465,0.807,0.909,1.299,1.268l-0.626,2.899
								c0.367,0.198,0.732,0.394,1.119,0.552c0.495,0.196,1.001,0.375,1.522,0.493l1.531-2.539c0.604,0.057,1.211,0.059,1.814-0.034
								l1.602,2.484c0.91-0.279,1.807-0.619,2.613-1.131l-0.067-0.272C104.144,141.402,103.33,141.712,102.504,141.964z"/>
						</g>
					</g>
				</g>
			</g>
		</g>
	</g>
	<g>
		
			<linearGradient id="SVGID_10_" gradientUnits="userSpaceOnUse" x1="937.9707" y1="-322.623" x2="937.9707" y2="-327.6216" gradientTransform="matrix(1 0 0 -1 -846 -200)">
			<stop  offset="0.5706" style="stop-color:#1C577D"/>
			<stop  offset="1" style="stop-color:#0B2947"/>
		</linearGradient>
		<path fill="url(#SVGID_10_)" d="M133,195.648c0,5.144-4.208,9.352-9.351,9.352H60.351c-5.143,0-9.351-4.208-9.351-9.352
			l-0.059-62.979c0-5.143,4.208-9.351,9.351-9.351h63.299c5.143,0,9.351,4.208,9.351,9.351L133,195.648L133,195.648z"/>
	</g>
	
		<linearGradient id="SVGID_11_" gradientUnits="userSpaceOnUse" x1="1219.9707" y1="743.3193" x2="1219.9707" y2="822.999" gradientTransform="matrix(1 0 0 1 -1128 -619)">
		<stop  offset="0.5706" style="stop-color:#0B6BAA"/>
		<stop  offset="1" style="stop-color:#00509E"/>
	</linearGradient>
	<path fill="url(#SVGID_11_)" d="M123.463,204c4.684,0,8.537-3.868,8.537-8.571l-0.059-62.538c0-4.703-3.854-8.571-8.537-8.571
		H60.478c-4.683,0-8.537,3.869-8.537,8.571L52,195.429c0,4.703,3.854,8.571,8.537,8.571H123.463z"/>
	<g opacity="0.3">
		<path fill="#FFFFFF" d="M123.404,125.319c4.156,0,7.537,3.396,7.537,7.571L131,195.428c0,4.175-3.381,7.571-7.537,7.571H60.537
			c-4.156,0-7.537-3.396-7.537-7.571l-0.059-62.538c0-4.175,3.381-7.571,7.537-7.571H123.404 M123.404,124.319H60.478
			c-4.683,0-8.537,3.869-8.537,8.571L52,195.428c0,4.703,3.854,8.571,8.537,8.571h62.926c4.684,0,8.537-3.868,8.537-8.571
			l-0.059-62.538C131.941,128.188,128.087,124.319,123.404,124.319L123.404,124.319z"/>
	</g>
	<path opacity="0.71" enable-background="new    " d="M92.988,127.374c1.348,0.012,2.685,0.174,4.019,0.336l1.68,9.905
		c2.037,0.516,3.945,1.388,5.784,2.373l8.303-5.818c2.669,1.897,4.899,4.301,6.952,6.815l-0.533,1.623l-5.4,6.519
		c1.065,1.778,1.835,3.698,2.419,5.673l10.099,1.648c0.537,3.19-0.294,8.047-0.659,11.244l-9.439,0.026
		c-0.527,1.997-1.416,3.869-2.419,5.672l5.933,8.142l-0.532,1.623c-1.838,2.3-4.096,3.373-6.417,5.195l-8.304-5.818
		c-1.812,1.045-3.771,1.797-5.783,2.374l-1.681,9.904c-1.825,0.277-3.676,0.346-5.52,0.346c-1.437-0.015-2.864-0.177-4.289-0.346
		l-1.685-9.904c-2.035-0.517-3.944-1.389-5.783-2.374l-8.302,5.818c-2.37-1.686-4.56-2.99-6.419-5.195l-0.532-1.623l5.934-8.142
		c-1.066-1.777-1.834-3.698-2.42-5.672l-9.44-0.026c-0.536-3.19-1.027-8.048-0.659-11.244l10.099-1.648
		c0.527-1.997,1.416-3.869,2.419-5.673l-5.401-6.519l-0.532-1.623c1.937-2.618,4.386-4.805,6.951-6.815l8.302,5.818
		c1.812-1.046,3.771-1.798,5.784-2.373l1.681-9.905C89.112,127.403,91.054,127.37,92.988,127.374L92.988,127.374z M92.103,146.835
		c-3.885,0.02-7.634,1.549-10.381,4.244c-11.001,10.79,0.823,29.003,15.415,23.722C112.494,169.245,108.345,147.243,92.103,146.835
		L92.103,146.835z"/>
	
		<linearGradient id="SVGID_12_" gradientUnits="userSpaceOnUse" x1="938.1006" y1="-350.2617" x2="938.1006" y2="-377.3775" gradientTransform="matrix(1 0 0 -1 -846 -200)">
		<stop  offset="0" style="stop-color:#FFFFFF"/>
		<stop  offset="1" style="stop-color:#DADADA"/>
	</linearGradient>
	<path fill="url(#SVGID_12_)" d="M92.971,128.997c1.322,0.012,2.632,0.174,3.941,0.336l1.648,9.904c2,0.517,3.869,1.388,5.672,2.374
		l8.143-5.818c2.617,1.898,4.805,4.302,6.816,6.816l-5.819,8.142c1.045,1.778,1.799,3.698,2.375,5.673l9.903,1.648
		c0.527,3.19,0.359,6.424,0,9.621l-9.903,1.648c-0.518,1.997-1.39,3.869-2.375,5.672l5.818,8.141
		c-1.898,2.619-4.302,4.807-6.816,6.818l-8.143-5.818c-1.777,1.045-3.697,1.796-5.672,2.373l-1.648,9.904
		c-1.789,0.278-3.606,0.346-5.413,0.346c-1.409-0.015-2.81-0.177-4.207-0.346l-1.649-9.904c-1.996-0.517-3.868-1.388-5.671-2.373
		l-8.143,5.818c-2.617-1.899-4.805-4.302-6.816-6.818l5.819-8.141c-1.045-1.777-1.798-3.698-2.374-5.672l-9.905-1.648
		c-0.527-3.19-0.36-6.425,0-9.621l9.903-1.648c0.517-1.997,1.389-3.869,2.373-5.673l-5.818-8.142
		c1.898-2.618,4.302-4.805,6.817-6.816l8.142,5.818c1.777-1.046,3.697-1.799,5.671-2.374l1.649-9.904
		C89.169,129.026,91.074,128.993,92.971,128.997L92.971,128.997z M92.103,148.458c-3.81,0.02-7.485,1.549-10.18,4.244
		c-10.79,10.79,0.806,29.002,15.117,23.722C112.101,170.868,108.032,148.866,92.103,148.458L92.103,148.458z"/>
	<g opacity="0.16">
		<path d="M113.373,150.75v1.443c1.045,1.778,1.799,3.697,2.375,5.672l9.903,1.648c0.197,1.191,0.297,2.39,0.326,3.589
			c0.033-1.682-0.05-3.362-0.326-5.032l-9.903-1.648C115.272,154.61,114.326,152.267,113.373,150.75z"/>
		<path d="M70.388,175.632l-5.375,7.521c0.181,0.226,0.365,0.45,0.549,0.675l5.269-7.374
			C70.672,176.186,70.533,175.908,70.388,175.632z"/>
		<path d="M71.83,137.234l8.142,5.818c1.777-1.045,3.697-1.798,5.671-2.373l1.649-9.904c1.877-0.307,3.783-0.341,5.68-0.336
			c1.322,0.012,2.631,0.174,3.941,0.336l1.648,9.904c1.998,0.517,3.867,1.389,5.671,2.373l8.142-5.818
			c2.384,1.728,4.406,3.875,6.268,6.143l0.549-0.768c-2.012-2.515-4.198-4.918-6.817-6.816l-8.142,5.818
			c-1.804-0.985-3.676-1.856-5.671-2.373l-1.648-9.905c-1.309-0.162-2.62-0.324-3.941-0.336c-1.897-0.004-3.802,0.029-5.68,0.336
			l-1.649,9.905c-1.974,0.575-3.894,1.328-5.671,2.373l-8.142-5.818c-2.516,2.011-4.919,4.198-6.817,6.816l0.533,0.744
			C67.351,141.042,69.542,139.063,71.83,137.234z"/>
		<path d="M113.373,176.455l5.287,7.396c0.179-0.23,0.361-0.461,0.532-0.698l-5.383-7.532
			C113.664,175.9,113.524,176.181,113.373,176.455z"/>
		<path d="M97.04,177.866c6.713-2.478,9.615-8.219,9.372-13.86c-0.273,5.154-3.232,10.152-9.372,12.418
			c-10.136,3.741-18.9-4.306-19.323-13.152C77.187,172.655,86.355,181.81,97.04,177.866z"/>
		<path d="M58.554,159.514l9.903-1.648c0.517-1.998,1.389-3.869,2.373-5.672v-1.443c-0.799,1.548-1.947,3.553-2.373,5.673
			l-9.903,1.648c-0.226,2.001-0.375,4.017-0.326,6.028C58.258,162.568,58.383,161.037,58.554,159.514z"/>
	</g>
	<g>
		<g>
			<g>
				<g>
					<defs>
						<path id="SVGID_13_" d="M124.733,204.702c4.748,0,8.654-3.908,8.654-8.655l-0.059-63.146c0-4.748-3.907-8.654-8.654-8.654
							H61.208c-4.748,0-8.654,3.907-8.654,8.654l0.059,63.146c0,4.748,3.907,8.655,8.654,8.655"/>
					</defs>
					<clipPath id="SVGID_14_">
						<use xlink:href="#SVGID_13_"  overflow="visible"/>
					</clipPath>
					
						<linearGradient id="SVGID_15_" gradientUnits="userSpaceOnUse" x1="939" y1="-328.6406" x2="939" y2="-368.5802" gradientTransform="matrix(1 0 0 -1 -846 -200)">
						<stop  offset="0.1963" style="stop-color:#FFFFFF;stop-opacity:0.16"/>
						<stop  offset="1" style="stop-color:#FFFFFF;stop-opacity:0.44"/>
					</linearGradient>
					<path clip-path="url(#SVGID_14_)" fill="url(#SVGID_15_)" d="M93,95.07c29.135,0,53.041,17.159,53.041,36.425
						c0,20.117-23.747,36.425-53.041,36.425s-53.041-16.308-53.041-36.425C39.959,111.378,63.706,95.07,93,95.07z"/>
				</g>
			</g>
		</g>
	</g>
	<g>
		<g>
			<g>
				<g>
					<defs>
						<path id="SVGID_16_" d="M123.429,204c4.702,0,8.571-3.87,8.571-8.571l-0.059-62.539c0-4.703-3.869-8.571-8.571-8.571H60.512
							c-4.702,0-8.571,3.868-8.571,8.571L52,195.429c0,4.702,3.869,8.571,8.571,8.571H123.429z"/>
					</defs>
					<clipPath id="SVGID_17_">
						<use xlink:href="#SVGID_16_"  overflow="visible"/>
					</clipPath>
					
						<radialGradient id="SVGID_18_" cx="937.9775" cy="-885.4609" r="50.3592" gradientTransform="matrix(0.9904 0 0 -0.4151 -836.2861 -245.8112)" gradientUnits="userSpaceOnUse">
						<stop  offset="0.1963" style="stop-color:#FFFFFF;stop-opacity:0.48"/>
						<stop  offset="1" style="stop-color:#FFFFFF;stop-opacity:0"/>
					</radialGradient>
					<path clip-path="url(#SVGID_17_)" fill="url(#SVGID_18_)" d="M92,98.999c23.567,0,42.613,11.512,42.613,25.319
						S115.567,148.999,92,148.999s-42.731-10.874-42.731-24.681S68.433,98.999,92,98.999z"/>
				</g>
			</g>
		</g>
		<g>
			<g>
				<g>
					<defs>
						<path id="SVGID_19_" d="M123.429,204c4.702,0,8.571-3.87,8.571-8.571l-0.059-62.539c0-4.703-3.869-8.571-8.571-8.571H60.512
							c-4.702,0-8.571,3.868-8.571,8.571L52,195.429c0,4.702,3.869,8.571,8.571,8.571H123.429z"/>
					</defs>
					<clipPath id="SVGID_20_">
						<use xlink:href="#SVGID_19_"  overflow="visible"/>
					</clipPath>
					
						<radialGradient id="SVGID_21_" cx="935.5088" cy="2049.668" r="55.6736" gradientTransform="matrix(1.1928 0.0098 -0.0022 0.1837 -1018.4641 -181.0829)" gradientUnits="userSpaceOnUse">
						<stop  offset="0.1963" style="stop-color:#FFFFFF;stop-opacity:0.34"/>
						<stop  offset="1" style="stop-color:#FFFFFF;stop-opacity:0"/>
					</radialGradient>
					<ellipse clip-path="url(#SVGID_20_)" fill="url(#SVGID_21_)" cx="92" cy="203.648" rx="51.391" ry="11.066"/>
				</g>
			</g>
		</g>
	</g>
	<path opacity="0.35" fill="#FFFFFF" enable-background="new    " d="M124.75,123.525H61.132c-4.706,0-8.579,3.906-8.579,8.654
		v1.442c0-4.747,3.873-8.654,8.579-8.654h63.618c4.706,0,8.578,3.907,8.578,8.654v-1.442
		C133.328,127.431,129.456,123.525,124.75,123.525z"/>
	<g>
		
			<linearGradient id="SVGID_22_" gradientUnits="userSpaceOnUse" x1="329.1172" y1="281.1963" x2="419.8838" y2="281.1963" gradientTransform="matrix(1 0 0 -1 -282 464)">
			<stop  offset="0.5706" style="stop-color:#906319"/>
			<stop  offset="1" style="stop-color:#6D4400"/>
		</linearGradient>
		<path fill="url(#SVGID_22_)" d="M137.883,158.606c0.034-1.1-0.838-1.999-1.938-1.999H49.056c-1.1,0-1.972,0.899-1.938,1.999
			l1.489,48.395c0.034,1.1,0.961,1.999,2.062,1.999h83.665c1.1,0,2.028-0.899,2.062-1.999L137.883,158.606z"/>
	</g>
	<g>
		
			<linearGradient id="SVGID_23_" gradientUnits="userSpaceOnUse" x1="374.4995" y1="258.3003" x2="374.4995" y2="293.3477" gradientTransform="matrix(1 0 0 -1 -282 464)">
			<stop  offset="0.5706" style="stop-color:#EBBC89"/>
			<stop  offset="1" style="stop-color:#CAA45B"/>
		</linearGradient>
		<path fill="url(#SVGID_23_)" d="M137.054,159.938c0.047-1.099-0.815-1.998-1.915-1.998H49.861c-1.1,0-1.962,0.899-1.915,1.998
			l1.969,46.258c0.047,1.099,0.985,1.998,2.085,1.998h81c1.1,0,2.038-0.899,2.085-1.998L137.054,159.938z"/>
	</g>
	<g opacity="0.33">
		<path fill="#FFFFFF" d="M135.139,158.939c0.257,0,0.493,0.099,0.666,0.279c0.172,0.18,0.261,0.42,0.25,0.677l-1.969,46.258
			c-0.024,0.564-0.521,1.041-1.086,1.041H52c-0.564,0-1.062-0.477-1.086-1.041l-1.969-46.258c-0.011-0.256,0.078-0.497,0.25-0.677
			c0.172-0.18,0.409-0.279,0.666-0.279H135.139 M135.139,157.939H49.861c-1.1,0-1.962,0.899-1.915,1.998l1.969,46.258
			c0.047,1.099,0.985,1.998,2.085,1.998h81c1.1,0,2.038-0.899,2.085-1.998l1.969-46.258
			C137.101,158.839,136.239,157.939,135.139,157.939L135.139,157.939z"/>
	</g>
	<g>
		
			<linearGradient id="SVGID_24_" gradientUnits="userSpaceOnUse" x1="346.9487" y1="320.3091" x2="384.4759" y2="283.3508" gradientTransform="matrix(1 0 0 -1 -282 464)">
			<stop  offset="0.5706" style="stop-color:#EBBC89"/>
			<stop  offset="1" style="stop-color:#CAA45B"/>
		</linearGradient>
		<polygon fill="url(#SVGID_24_)" points="40.626,177.55 47.379,157.45 137.621,157.45 144.374,177.55 		"/>
		<path fill="#6D4400" d="M137.297,157.9l6.451,19.2H41.252l6.451-19.2H137.297 M137.944,157H47.056L40,178h105L137.944,157
			L137.944,157z"/>
	</g>
	<g opacity="0.25">
		<path fill="#FFFFFF" d="M136.373,158.607L142.581,176H42.419l6.208-17.393H136.373 M137.078,157.607H47.922L41,177h103
			L137.078,157.607L137.078,157.607z"/>
	</g>
	
		<linearGradient id="SVGID_25_" gradientUnits="userSpaceOnUse" x1="372.9995" y1="307.772" x2="372.9995" y2="318.6212" gradientTransform="matrix(1 0 0 -1 -282 464)">
		<stop  offset="0" style="stop-color:#000000;stop-opacity:0.36"/>
		<stop  offset="1" style="stop-color:#000000;stop-opacity:0"/>
	</linearGradient>
	<rect x="51" y="141.443" fill="url(#SVGID_25_)" width="80" height="15.557"/>
	
		<linearGradient id="SVGID_26_" gradientUnits="userSpaceOnUse" x1="374" y1="220.4033" x2="374" y2="238.5357" gradientTransform="matrix(1 0 0 1 -282 -41.1133)">
		<stop  offset="0" style="stop-color:#000000;stop-opacity:0.3"/>
		<stop  offset="1" style="stop-color:#000000;stop-opacity:0"/>
	</linearGradient>
	<rect x="48" y="178" fill="url(#SVGID_26_)" width="88" height="26"/>
	<g opacity="0.25">
		<g>
			<path fill="#231F20" d="M68.664,188.762c-1.049,0.006-2.062,0.427-2.804,1.169c-2.973,2.973,0.222,7.991,4.165,6.536
				C74.174,194.936,73.053,188.875,68.664,188.762z M57,182v22h23v-22H57z M77.907,194.061l-2.728,0.455
				c-0.143,0.55-0.383,1.066-0.654,1.562l1.603,2.244c-0.522,0.72-1.185,1.324-1.877,1.877l-2.244-1.604
				c-0.49,0.289-1.019,0.496-1.562,0.654l-0.454,2.729c-0.494,0.077-0.994,0.096-1.492,0.096c-0.388-0.004-0.773-0.049-1.159-0.096
				l-0.454-2.729c-0.551-0.143-1.066-0.383-1.562-0.654l-2.244,1.604c-0.721-0.523-1.323-1.186-1.878-1.877l1.603-2.244
				c-0.288-0.489-0.496-1.019-0.653-1.562l-2.729-0.455c-0.146-0.878-0.099-1.77,0-2.651l2.728-0.454
				c0.143-0.55,0.383-1.066,0.654-1.563l-1.603-2.244c0.523-0.721,1.185-1.323,1.878-1.877l2.243,1.603
				c0.49-0.289,1.019-0.496,1.562-0.654l0.455-2.729c0.517-0.084,1.042-0.094,1.564-0.093c0.364,0.004,0.726,0.049,1.087,0.093
				l0.454,2.729c0.551,0.143,1.065,0.383,1.562,0.654l2.244-1.603c0.721,0.522,1.324,1.185,1.878,1.877l-1.603,2.244
				c0.288,0.49,0.495,1.019,0.654,1.563l2.728,0.454C78.052,192.29,78.006,193.181,77.907,194.061z"/>
		</g>
	</g>
</g>
</svg>
