<?xml version="1.0" encoding="utf-8"?>
<!DOCTYPE svg PUBLIC "-//W3C//DTD SVG 1.1//EN" "http://www.w3.org/Graphics/SVG/1.1/DTD/svg11.dtd">
<svg version="1.1" id="Layer_1" xmlns="http://www.w3.org/2000/svg" xmlns:xlink="http://www.w3.org/1999/xlink" x="0px" y="0px"
	 width="128px" height="128px" viewBox="0 0 128 128" enable-background="new 0 0 128 128" xml:space="preserve">
<g>
	
		<linearGradient id="SVGID_1_" gradientUnits="userSpaceOnUse" x1="346" y1="-245.0283" x2="346" y2="-252.0047" gradientTransform="matrix(1 0 0 -1 -282 -244)">
		<stop  offset="0.5706" style="stop-color:#1C577D"/>
		<stop  offset="1" style="stop-color:#0B2947"/>
	</linearGradient>
	<path fill="url(#SVGID_1_)" d="M121,103c0,7.15-5.85,13-13,13H20c-7.15,0-13-5.85-13-13V15C7,7.85,12.85,2,20,2h88
		c7.15,0,13,5.85,13,13V103z"/>
</g>
<linearGradient id="SVGID_2_" gradientUnits="userSpaceOnUse" x1="628" y1="667" x2="628" y2="779" gradientTransform="matrix(1 0 0 1 -564 -664)">
	<stop  offset="0.5706" style="stop-color:#0B6BAA"/>
	<stop  offset="1" style="stop-color:#00509E"/>
</linearGradient>
<path fill="url(#SVGID_2_)" d="M108,115c6.583,0,12-5.417,12-12V15c0-6.583-5.417-12-12-12H20C13.417,3,8,8.417,8,15v88
	c0,6.583,5.417,12,12,12H108z"/>
<g opacity="0.8">
	<defs>
		<path id="SVGID_3_" opacity="0.8" d="M108,115c6.583,0,12-5.417,12-12V15c0-6.583-5.417-12-12-12H20C13.417,3,8,8.417,8,15v88
			c0,6.583,5.417,12,12,12H108z"/>
	</defs>
	<clipPath id="SVGID_4_">
		<use xlink:href="#SVGID_3_"  overflow="visible"/>
	</clipPath>
	<g opacity="0.85" clip-path="url(#SVGID_4_)">
		<g>
			<path opacity="0.2" d="M32.896,97.386l2.229-3.12c-0.076-0.095-0.155-0.186-0.232-0.278l-2.173,3.041
				C32.787,97.143,32.834,97.269,32.896,97.386z"/>
			<path opacity="0.2" d="M23.928,96.08c-1.575,0.009-3.094,0.641-4.208,1.755c-1.269,1.27-1.769,2.786-1.727,4.258
				c0.099-1.277,0.63-2.559,1.727-3.654c1.114-1.114,2.633-1.746,4.208-1.755c3.611,0.093,5.735,2.872,5.9,5.741
				C29.951,99.354,27.794,96.18,23.928,96.08z"/>
			<path opacity="0.2" d="M15.136,97.028l-2.177-3.047c-0.075,0.097-0.156,0.186-0.228,0.284l2.229,3.12
				C15.021,97.268,15.072,97.145,15.136,97.028z"/>
			<path opacity="0.2" d="M37.794,104.031l-4.094,0.681c-0.213,0.826-0.574,1.6-0.981,2.346l0.176,0.245
				c0.329-0.637,0.625-1.29,0.805-1.987l4.094-0.682c0.089-0.789,0.14-1.583,0.128-2.377
				C37.906,102.849,37.86,103.441,37.794,104.031z"/>
			<path opacity="0.2" d="M14.96,107.303l0.176-0.245c-0.432-0.735-0.743-1.53-0.981-2.346l-4.094-0.681
				c-0.087-0.532-0.119-1.066-0.128-1.602c-0.02,0.737,0.007,1.475,0.128,2.204l4.094,0.682
				C14.356,106.004,14.626,106.669,14.96,107.303z"/>
			<path opacity="0.2" d="M32.307,113.239l-3.366-2.404c-0.734,0.433-1.528,0.743-2.344,0.98l-0.681,4.094
				c-0.74,0.114-1.491,0.144-2.237,0.144c-0.583-0.006-1.162-0.073-1.739-0.144l-0.682-4.094c-0.825-0.214-1.599-0.574-2.344-0.98
				l-3.366,2.404c-0.984-0.714-1.817-1.602-2.585-2.538l-0.232,0.323c0.832,1.041,1.736,2.034,2.817,2.818l3.366-2.404
				c0.745,0.406,1.519,0.767,2.344,0.98l0.682,4.094c0.577,0.07,1.156,0.137,1.739,0.144c0.747,0,1.498-0.029,2.237-0.144
				l0.681-4.094c0.816-0.237,1.61-0.548,2.344-0.98l3.366,2.404c1.04-0.831,2.033-1.734,2.818-2.818l-0.228-0.318
				C34.15,111.661,33.252,112.484,32.307,113.239z"/>
		</g>
		<g>
			<path opacity="0.2" d="M58.865,114.129l2.229-3.12c-0.076-0.095-0.155-0.186-0.232-0.279l-2.173,3.042
				C58.756,113.886,58.803,114.011,58.865,114.129z"/>
			<path opacity="0.2" d="M49.897,112.823c-1.575,0.009-3.093,0.641-4.208,1.754c-1.269,1.27-1.769,2.786-1.727,4.259
				c0.099-1.277,0.63-2.559,1.727-3.655c1.114-1.113,2.633-1.745,4.208-1.754c3.611,0.093,5.735,2.872,5.9,5.741
				C55.92,116.098,53.763,112.923,49.897,112.823z"/>
			<path opacity="0.2" d="M41.104,113.771l-2.177-3.047c-0.075,0.097-0.156,0.186-0.228,0.284l2.229,3.12
				C40.99,114.01,41.041,113.887,41.104,113.771z"/>
			<path opacity="0.2" d="M63.763,120.774l-4.093,0.681c-0.213,0.826-0.574,1.6-0.981,2.345l0.176,0.246
				c0.329-0.637,0.625-1.29,0.805-1.987l4.093-0.682c0.089-0.789,0.14-1.584,0.128-2.377
				C63.875,119.592,63.829,120.185,63.763,120.774z"/>
			<path opacity="0.2" d="M40.929,124.046l0.176-0.246c-0.432-0.734-0.743-1.529-0.981-2.345l-4.094-0.681
				c-0.087-0.532-0.119-1.067-0.128-1.602c-0.02,0.737,0.008,1.475,0.128,2.204l4.094,0.682
				C40.325,122.747,40.596,123.412,40.929,124.046z"/>
			<path opacity="0.2" d="M58.276,129.982l-3.366-2.404c-0.734,0.433-1.528,0.743-2.344,0.98l-0.681,4.094
				c-0.74,0.113-1.491,0.144-2.237,0.144c-0.583-0.007-1.162-0.073-1.739-0.144l-0.682-4.094c-0.825-0.214-1.599-0.574-2.344-0.98
				l-3.366,2.404c-0.983-0.714-1.817-1.602-2.585-2.538l-0.232,0.323c0.832,1.041,1.736,2.034,2.817,2.818l3.366-2.404
				c0.745,0.406,1.519,0.767,2.344,0.98l0.682,4.094c0.577,0.07,1.156,0.137,1.739,0.144c0.747,0,1.498-0.03,2.237-0.144
				l0.681-4.094c0.816-0.237,1.61-0.548,2.344-0.98l3.366,2.404c1.04-0.831,2.033-1.734,2.818-2.818l-0.228-0.318
				C60.119,128.404,59.221,129.227,58.276,129.982z"/>
		</g>
		<g>
			<path opacity="0.2" d="M58.865-3.537l2.229-3.12c-0.076-0.095-0.155-0.186-0.232-0.279l-2.173,3.042
				C58.756-3.78,58.803-3.655,58.865-3.537z"/>
			<path opacity="0.2" d="M49.897-4.843c-1.575,0.008-3.093,0.641-4.208,1.754c-1.269,1.27-1.769,2.786-1.727,4.258
				c0.099-1.277,0.63-2.558,1.727-3.655c1.114-1.113,2.633-1.746,4.208-1.754c3.611,0.092,5.735,2.872,5.9,5.741
				C55.92-1.569,53.763-4.743,49.897-4.843z"/>
			<path opacity="0.2" d="M41.104-3.895l-2.177-3.047c-0.075,0.096-0.156,0.186-0.228,0.284l2.229,3.12
				C40.99-3.656,41.041-3.779,41.104-3.895z"/>
			<path opacity="0.2" d="M63.763,3.108l-4.093,0.681c-0.213,0.826-0.574,1.599-0.981,2.345l0.176,0.246
				c0.329-0.637,0.625-1.291,0.805-1.987l4.093-0.682c0.089-0.789,0.14-1.583,0.128-2.376C63.875,1.926,63.829,2.519,63.763,3.108z"
				/>
			<path opacity="0.2" d="M40.929,6.38l0.176-0.246c-0.432-0.735-0.743-1.529-0.981-2.345L36.03,3.108
				c-0.087-0.533-0.119-1.067-0.128-1.602c-0.02,0.737,0.008,1.474,0.128,2.204l4.094,0.682C40.325,5.081,40.596,5.746,40.929,6.38z
				"/>
			<path opacity="0.2" d="M58.276,12.316L54.91,9.912c-0.734,0.433-1.528,0.744-2.344,0.981l-0.681,4.094
				c-0.74,0.114-1.491,0.143-2.237,0.143c-0.583-0.006-1.162-0.073-1.739-0.143l-0.682-4.094c-0.825-0.214-1.599-0.575-2.344-0.981
				l-3.366,2.404c-0.983-0.714-1.817-1.602-2.585-2.538L38.7,10.102c0.832,1.041,1.736,2.034,2.817,2.818l3.366-2.404
				c0.745,0.406,1.519,0.767,2.344,0.981l0.682,4.094c0.577,0.07,1.156,0.137,1.739,0.143c0.747,0,1.498-0.029,2.237-0.143
				l0.681-4.094c0.816-0.237,1.61-0.548,2.344-0.981l3.366,2.404c1.04-0.831,2.033-1.734,2.818-2.818l-0.228-0.318
				C60.119,10.738,59.221,11.561,58.276,12.316z"/>
		</g>
		<g>
			<path opacity="0.2" d="M34.093,71.441l3.221-2.078c-0.035-0.116-0.076-0.23-0.113-0.347l-3.141,2.028
				C34.081,71.177,34.079,71.31,34.093,71.441z"/>
			<path opacity="0.2" d="M26.237,66.925c-1.467-0.572-3.112-0.544-4.559,0.081c-1.647,0.713-2.671,1.938-3.174,3.322
				c0.563-1.151,1.529-2.146,2.952-2.762c1.446-0.624,3.09-0.653,4.559-0.08c3.323,1.416,4.273,4.782,3.371,7.51
				C30.63,72.188,29.794,68.441,26.237,66.925z"/>
			<path opacity="0.2" d="M17.713,64.567l-0.902-3.634c-0.105,0.062-0.214,0.114-0.316,0.18l0.923,3.721
				C17.519,64.747,17.612,64.651,17.713,64.567z"/>
			<path opacity="0.2" d="M36.2,79.424l-4.057-0.874c-0.503,0.69-1.124,1.275-1.776,1.818l0.073,0.294
				c0.541-0.471,1.057-0.971,1.48-1.552l4.058,0.875c0.372-0.701,0.713-1.421,0.994-2.163C36.738,78.367,36.478,78.901,36.2,79.424z
				"/>
			<path opacity="0.2" d="M13.765,74.055l0.254-0.163c-0.13-0.843-0.128-1.696-0.048-2.542l-3.555-2.142
				c0.114-0.526,0.282-1.035,0.471-1.534c-0.29,0.677-0.536,1.372-0.693,2.095l3.555,2.142
				C13.682,72.624,13.688,73.343,13.765,74.055z"/>
			<path opacity="0.2" d="M27.706,85.964l-2.243-3.476c-0.842,0.132-1.695,0.128-2.541,0.049l-2.141,3.555
				c-0.73-0.166-1.439-0.415-2.133-0.691c-0.54-0.221-1.053-0.495-1.565-0.773l0.875-4.058c-0.688-0.502-1.276-1.122-1.819-1.775
				l-4.014,0.997c-0.652-1.026-1.099-2.159-1.469-3.312l-0.335,0.216c0.39,1.272,0.865,2.529,1.582,3.657l4.015-0.995
				c0.543,0.652,1.129,1.271,1.818,1.774l-0.875,4.059c0.512,0.277,1.025,0.553,1.565,0.773c0.694,0.274,1.403,0.523,2.133,0.691
				l2.141-3.558c0.846,0.081,1.698,0.084,2.541-0.046l2.243,3.474c1.272-0.389,2.529-0.864,3.658-1.581l-0.095-0.381
				C30,85.176,28.863,85.61,27.706,85.964z"/>
		</g>
		<g>
			<path opacity="0.2" d="M60.131,87.731l3.222-2.078c-0.035-0.116-0.077-0.23-0.113-0.346l-3.141,2.027
				C60.12,87.467,60.117,87.601,60.131,87.731z"/>
			<path opacity="0.2" d="M52.275,83.215c-1.467-0.571-3.112-0.544-4.558,0.082c-1.648,0.712-2.671,1.938-3.174,3.321
				c0.562-1.15,1.529-2.146,2.952-2.762c1.446-0.624,3.09-0.653,4.558-0.08c3.323,1.416,4.273,4.782,3.371,7.511
				C56.669,88.478,55.833,84.731,52.275,83.215z"/>
			<path opacity="0.2" d="M43.752,80.858l-0.902-3.636c-0.105,0.063-0.213,0.114-0.316,0.181l0.923,3.721
				C43.558,81.037,43.65,80.942,43.752,80.858z"/>
			<path opacity="0.2" d="M62.238,95.715l-4.057-0.875c-0.503,0.69-1.123,1.275-1.776,1.818l0.073,0.294
				c0.54-0.471,1.056-0.971,1.48-1.552l4.057,0.875c0.372-0.701,0.713-1.421,0.994-2.163C62.777,94.657,62.516,95.191,62.238,95.715
				z"/>
			<path opacity="0.2" d="M39.804,90.345l0.254-0.163c-0.13-0.842-0.127-1.696-0.048-2.542l-3.555-2.142
				c0.114-0.526,0.282-1.035,0.471-1.534c-0.29,0.678-0.536,1.372-0.693,2.096l3.555,2.141
				C39.721,88.914,39.728,89.633,39.804,90.345z"/>
			<path opacity="0.2" d="M53.744,102.254l-2.243-3.476c-0.842,0.132-1.695,0.129-2.541,0.049l-2.141,3.555
				c-0.729-0.166-1.438-0.415-2.133-0.691c-0.539-0.221-1.053-0.495-1.565-0.772l0.875-4.058c-0.688-0.503-1.276-1.122-1.819-1.775
				l-4.014,0.996c-0.652-1.026-1.099-2.159-1.469-3.312l-0.335,0.216c0.39,1.272,0.865,2.529,1.581,3.657l4.015-0.995
				c0.543,0.652,1.13,1.271,1.818,1.774l-0.875,4.059c0.512,0.277,1.026,0.553,1.565,0.773c0.694,0.274,1.403,0.523,2.133,0.691
				l2.141-3.558c0.847,0.081,1.699,0.084,2.541-0.046l2.243,3.474c1.273-0.389,2.529-0.864,3.658-1.581l-0.095-0.381
				C56.04,101.466,54.901,101.9,53.744,102.254z"/>
		</g>
		<g>
			<path opacity="0.2" d="M58.865,54.48l2.229-3.12c-0.076-0.094-0.155-0.186-0.232-0.279l-2.173,3.042
				C58.756,54.237,58.803,54.362,58.865,54.48z"/>
			<path opacity="0.2" d="M49.897,53.174c-1.575,0.009-3.093,0.641-4.208,1.754c-1.269,1.27-1.769,2.786-1.727,4.258
				c0.099-1.277,0.63-2.558,1.727-3.654c1.114-1.114,2.633-1.746,4.208-1.754c3.611,0.092,5.735,2.872,5.9,5.741
				C55.92,56.448,53.763,53.274,49.897,53.174z"/>
			<path opacity="0.2" d="M41.104,54.123l-2.177-3.047c-0.075,0.097-0.156,0.186-0.228,0.284l2.229,3.12
				C40.99,54.361,41.041,54.238,41.104,54.123z"/>
			<path opacity="0.2" d="M63.763,61.125l-4.093,0.681c-0.213,0.826-0.574,1.6-0.981,2.345l0.176,0.246
				c0.329-0.638,0.625-1.291,0.805-1.988l4.093-0.682c0.089-0.789,0.14-1.583,0.128-2.377
				C63.875,59.943,63.829,60.536,63.763,61.125z"/>
			<path opacity="0.2" d="M40.929,64.397l0.176-0.246c-0.432-0.735-0.743-1.529-0.981-2.345l-4.094-0.681
				c-0.087-0.532-0.119-1.067-0.128-1.602c-0.02,0.737,0.008,1.474,0.128,2.204l4.094,0.682
				C40.325,63.098,40.596,63.763,40.929,64.397z"/>
			<path opacity="0.2" d="M58.276,70.333l-3.366-2.404c-0.734,0.433-1.528,0.744-2.344,0.981l-0.681,4.094
				c-0.74,0.113-1.491,0.143-2.237,0.143c-0.583-0.006-1.162-0.073-1.739-0.143l-0.682-4.094c-0.825-0.215-1.599-0.575-2.344-0.981
				l-3.366,2.404c-0.983-0.714-1.817-1.602-2.585-2.538L38.7,68.119c0.832,1.04,1.736,2.034,2.817,2.817l3.366-2.404
				c0.745,0.406,1.519,0.767,2.344,0.981l0.682,4.094c0.577,0.069,1.156,0.137,1.739,0.143c0.747,0,1.498-0.029,2.237-0.143
				l0.681-4.094c0.816-0.238,1.61-0.549,2.344-0.981l3.366,2.404c1.04-0.83,2.033-1.733,2.818-2.817l-0.228-0.318
				C60.119,68.755,59.221,69.578,58.276,70.333z"/>
		</g>
		<g>
			<path opacity="0.2" d="M60.131,28.083l3.222-2.079c-0.035-0.115-0.077-0.23-0.113-0.346l-3.141,2.028
				C60.12,27.817,60.117,27.951,60.131,28.083z"/>
			<path opacity="0.2" d="M52.275,23.566c-1.467-0.572-3.112-0.544-4.558,0.082c-1.648,0.713-2.671,1.938-3.174,3.322
				c0.562-1.151,1.529-2.146,2.952-2.762c1.446-0.624,3.09-0.653,4.558-0.08c3.323,1.416,4.273,4.782,3.371,7.51
				C56.669,28.828,55.833,25.083,52.275,23.566z"/>
			<path opacity="0.2" d="M43.752,21.209l-0.902-3.636c-0.105,0.063-0.213,0.114-0.316,0.18l0.923,3.722
				C43.558,21.389,43.65,21.293,43.752,21.209z"/>
			<path opacity="0.2" d="M62.238,36.065l-4.057-0.875c-0.503,0.69-1.123,1.276-1.776,1.819l0.073,0.294
				c0.54-0.471,1.056-0.97,1.48-1.552l4.057,0.875c0.372-0.701,0.713-1.421,0.994-2.164C62.777,35.008,62.516,35.542,62.238,36.065z
				"/>
			<path opacity="0.2" d="M39.804,30.696l0.254-0.163c-0.13-0.842-0.127-1.696-0.048-2.542l-3.555-2.141
				c0.114-0.526,0.282-1.035,0.471-1.535c-0.29,0.678-0.536,1.373-0.693,2.096l3.555,2.141
				C39.721,29.265,39.728,29.984,39.804,30.696z"/>
			<path opacity="0.2" d="M53.744,42.605l-2.243-3.476c-0.842,0.132-1.695,0.128-2.541,0.049l-2.141,3.555
				c-0.729-0.167-1.438-0.416-2.133-0.691c-0.539-0.221-1.053-0.496-1.565-0.773l0.875-4.058c-0.688-0.503-1.276-1.122-1.819-1.775
				l-4.014,0.997c-0.652-1.027-1.099-2.159-1.469-3.313l-0.335,0.216c0.39,1.273,0.865,2.53,1.581,3.657l4.015-0.995
				c0.543,0.652,1.13,1.271,1.818,1.774l-0.875,4.059c0.512,0.277,1.026,0.553,1.565,0.773c0.694,0.274,1.403,0.524,2.133,0.691
				l2.141-3.557c0.847,0.081,1.699,0.084,2.541-0.047l2.243,3.475c1.273-0.389,2.529-0.864,3.658-1.582l-0.095-0.38
				C56.04,41.817,54.901,42.252,53.744,42.605z"/>
		</g>
		<g>
			<path opacity="0.2" d="M112.636,114.129l2.229-3.12c-0.076-0.095-0.155-0.186-0.231-0.279l-2.175,3.042
				C112.527,113.886,112.574,114.011,112.636,114.129z"/>
			<path opacity="0.2" d="M103.668,112.823c-1.574,0.009-3.093,0.641-4.207,1.754c-1.27,1.27-1.769,2.786-1.727,4.259
				c0.098-1.277,0.63-2.559,1.727-3.655c1.114-1.113,2.633-1.745,4.207-1.754c3.611,0.093,5.735,2.872,5.9,5.741
				C109.691,116.098,107.534,112.923,103.668,112.823z"/>
			<path opacity="0.2" d="M94.875,113.771l-2.176-3.047c-0.075,0.097-0.157,0.186-0.229,0.284l2.229,3.12
				C94.761,114.01,94.812,113.887,94.875,113.771z"/>
			<path opacity="0.2" d="M117.534,120.774l-4.093,0.681c-0.214,0.826-0.575,1.6-0.982,2.345l0.177,0.246
				c0.328-0.637,0.625-1.29,0.806-1.987l4.093-0.682c0.089-0.789,0.14-1.584,0.128-2.377
				C117.646,119.592,117.6,120.185,117.534,120.774z"/>
			<path opacity="0.2" d="M94.699,124.046l0.176-0.246c-0.431-0.734-0.742-1.529-0.979-2.345l-4.094-0.681
				c-0.088-0.532-0.12-1.067-0.128-1.602c-0.021,0.737,0.007,1.475,0.128,2.204l4.094,0.682
				C94.096,122.747,94.366,123.412,94.699,124.046z"/>
			<path opacity="0.2" d="M112.048,129.982l-3.366-2.404c-0.733,0.433-1.528,0.743-2.344,0.98l-0.681,4.094
				c-0.74,0.113-1.491,0.144-2.238,0.144c-0.583-0.007-1.162-0.073-1.739-0.144l-0.681-4.094c-0.825-0.214-1.6-0.574-2.345-0.98
				l-3.365,2.404c-0.984-0.714-1.818-1.602-2.586-2.538l-0.232,0.323c0.832,1.041,1.736,2.034,2.818,2.818l3.365-2.404
				c0.745,0.406,1.52,0.767,2.345,0.98l0.681,4.094c0.577,0.07,1.156,0.137,1.739,0.144c0.747,0,1.498-0.03,2.238-0.144l0.681-4.094
				c0.815-0.237,1.61-0.548,2.344-0.98l3.366,2.404c1.039-0.831,2.032-1.734,2.817-2.818l-0.228-0.318
				C113.892,128.404,112.992,129.227,112.048,129.982z"/>
		</g>
		<g>
			<path opacity="0.2" d="M112.636-3.537l2.229-3.12c-0.076-0.095-0.155-0.186-0.231-0.279l-2.175,3.042
				C112.527-3.78,112.574-3.655,112.636-3.537z"/>
			<path opacity="0.2" d="M103.668-4.843c-1.574,0.008-3.093,0.641-4.207,1.754c-1.27,1.27-1.769,2.786-1.727,4.258
				c0.098-1.277,0.63-2.558,1.727-3.655c1.114-1.113,2.633-1.746,4.207-1.754c3.611,0.092,5.735,2.872,5.9,5.741
				C109.691-1.569,107.534-4.743,103.668-4.843z"/>
			<path opacity="0.2" d="M94.875-3.895l-2.176-3.047c-0.075,0.096-0.157,0.186-0.229,0.284l2.229,3.12
				C94.761-3.656,94.812-3.779,94.875-3.895z"/>
			<path opacity="0.2" d="M117.534,3.108l-4.093,0.681c-0.214,0.826-0.575,1.599-0.982,2.345l0.177,0.246
				c0.328-0.637,0.625-1.291,0.806-1.987l4.093-0.682c0.089-0.789,0.14-1.583,0.128-2.376C117.646,1.926,117.6,2.519,117.534,3.108z
				"/>
			<path opacity="0.2" d="M94.699,6.38l0.176-0.246c-0.431-0.735-0.742-1.529-0.979-2.345l-4.094-0.681
				c-0.088-0.533-0.12-1.067-0.128-1.602c-0.021,0.737,0.007,1.474,0.128,2.204l4.094,0.682C94.096,5.081,94.366,5.746,94.699,6.38z
				"/>
			<path opacity="0.2" d="M112.048,12.316l-3.366-2.404c-0.733,0.433-1.528,0.744-2.344,0.981l-0.681,4.094
				c-0.74,0.114-1.491,0.143-2.238,0.143c-0.583-0.006-1.162-0.073-1.739-0.143l-0.681-4.094c-0.825-0.214-1.6-0.575-2.345-0.981
				l-3.365,2.404c-0.984-0.714-1.818-1.602-2.586-2.538l-0.232,0.324c0.832,1.041,1.736,2.034,2.818,2.818l3.365-2.404
				c0.745,0.406,1.52,0.767,2.345,0.981l0.681,4.094c0.577,0.07,1.156,0.137,1.739,0.143c0.747,0,1.498-0.029,2.238-0.143
				l0.681-4.094c0.815-0.237,1.61-0.548,2.344-0.981l3.366,2.404c1.039-0.831,2.032-1.734,2.817-2.818l-0.228-0.318
				C113.892,10.738,112.992,11.561,112.048,12.316z"/>
		</g>
		<g>
			<path opacity="0.2" d="M113.902,87.731l3.222-2.078c-0.034-0.116-0.076-0.23-0.112-0.346l-3.142,2.027
				C113.892,87.467,113.889,87.601,113.902,87.731z"/>
			<path opacity="0.2" d="M106.047,83.215c-1.468-0.571-3.112-0.544-4.558,0.082c-1.648,0.712-2.672,1.938-3.175,3.321
				c0.563-1.15,1.528-2.146,2.952-2.762c1.446-0.624,3.09-0.653,4.558-0.08c3.324,1.416,4.274,4.782,3.371,7.511
				C110.44,88.478,109.604,84.731,106.047,83.215z"/>
			<path opacity="0.2" d="M97.523,80.858l-0.902-3.636c-0.104,0.063-0.213,0.114-0.316,0.181l0.923,3.721
				C97.329,81.037,97.422,80.942,97.523,80.858z"/>
			<path opacity="0.2" d="M116.01,95.715l-4.058-0.875c-0.502,0.69-1.123,1.275-1.775,1.818l0.072,0.294
				c0.541-0.471,1.057-0.971,1.48-1.552l4.058,0.875c0.373-0.701,0.713-1.421,0.995-2.163
				C116.549,94.657,116.288,95.191,116.01,95.715z"/>
			<path opacity="0.2" d="M93.575,90.345l0.255-0.163c-0.132-0.842-0.129-1.696-0.049-2.542l-3.556-2.142
				c0.115-0.526,0.282-1.035,0.472-1.534c-0.291,0.678-0.537,1.372-0.694,2.096l3.556,2.141
				C93.492,88.914,93.499,89.633,93.575,90.345z"/>
			<path opacity="0.2" d="M107.515,102.254l-2.241-3.476c-0.843,0.132-1.695,0.129-2.541,0.049l-2.142,3.555
				c-0.729-0.166-1.439-0.415-2.133-0.691c-0.539-0.221-1.053-0.495-1.565-0.772l0.876-4.058c-0.688-0.503-1.275-1.122-1.818-1.775
				l-4.015,0.996c-0.652-1.026-1.099-2.159-1.469-3.312l-0.335,0.216c0.389,1.272,0.864,2.529,1.581,3.657l4.016-0.995
				c0.543,0.652,1.129,1.271,1.817,1.774l-0.875,4.059c0.513,0.277,1.025,0.553,1.564,0.773c0.694,0.274,1.404,0.523,2.134,0.691
				l2.14-3.558c0.847,0.081,1.699,0.084,2.542-0.046l2.242,3.474c1.273-0.389,2.53-0.864,3.658-1.581l-0.096-0.381
				C109.811,101.466,108.673,101.9,107.515,102.254z"/>
		</g>
		<g>
			<path opacity="0.2" d="M112.636,54.48l2.229-3.12c-0.076-0.094-0.155-0.186-0.231-0.279l-2.175,3.042
				C112.527,54.237,112.574,54.362,112.636,54.48z"/>
			<path opacity="0.2" d="M103.668,53.174c-1.574,0.009-3.093,0.641-4.207,1.754c-1.27,1.27-1.769,2.786-1.727,4.258
				c0.098-1.277,0.63-2.558,1.727-3.654c1.114-1.114,2.633-1.746,4.207-1.754c3.611,0.092,5.735,2.872,5.9,5.741
				C109.691,56.448,107.534,53.274,103.668,53.174z"/>
			<path opacity="0.2" d="M94.875,54.123l-2.176-3.047c-0.075,0.097-0.157,0.186-0.229,0.284l2.229,3.12
				C94.761,54.361,94.812,54.238,94.875,54.123z"/>
			<path opacity="0.2" d="M117.534,61.125l-4.093,0.681c-0.214,0.826-0.575,1.6-0.982,2.345l0.177,0.246
				c0.328-0.638,0.625-1.291,0.806-1.988l4.093-0.682c0.089-0.789,0.14-1.583,0.128-2.377
				C117.646,59.943,117.6,60.536,117.534,61.125z"/>
			<path opacity="0.2" d="M94.699,64.397l0.176-0.246c-0.431-0.735-0.742-1.529-0.979-2.345l-4.094-0.681
				c-0.088-0.532-0.12-1.067-0.128-1.602c-0.021,0.737,0.007,1.474,0.128,2.204l4.094,0.682
				C94.096,63.098,94.366,63.763,94.699,64.397z"/>
			<path opacity="0.2" d="M112.048,70.333l-3.366-2.404c-0.733,0.433-1.528,0.744-2.344,0.981l-0.681,4.094
				c-0.74,0.113-1.491,0.143-2.238,0.143c-0.583-0.006-1.162-0.073-1.739-0.143l-0.681-4.094c-0.825-0.215-1.6-0.575-2.345-0.981
				l-3.365,2.404c-0.984-0.714-1.818-1.602-2.586-2.538l-0.232,0.324c0.832,1.04,1.736,2.034,2.818,2.817l3.365-2.404
				c0.745,0.406,1.52,0.767,2.345,0.981l0.681,4.094c0.577,0.069,1.156,0.137,1.739,0.143c0.747,0,1.498-0.029,2.238-0.143
				l0.681-4.094c0.815-0.238,1.61-0.549,2.344-0.981l3.366,2.404c1.039-0.83,2.032-1.733,2.817-2.817l-0.228-0.318
				C113.892,68.755,112.992,69.578,112.048,70.333z"/>
		</g>
		<g>
			
				<linearGradient id="SVGID_5_" gradientUnits="userSpaceOnUse" x1="82.4219" y1="8.0625" x2="82.4219" y2="-3.1453" gradientTransform="matrix(0.9297 0.3684 -0.3684 0.9297 28.2714 -3.8952)">
				<stop  offset="0" style="stop-color:#FFFFFF"/>
				<stop  offset="1" style="stop-color:#DADADA"/>
			</linearGradient>
			<path opacity="0.2" fill="url(#SVGID_5_)" d="M109.344,16.22c0.505,0.206,0.985,0.469,1.463,0.73l-0.876,4.058
				c0.69,0.501,1.277,1.121,1.819,1.774l4.014-0.996c0.719,1.127,1.192,2.384,1.583,3.657l-3.477,2.243
				c0.132,0.843,0.129,1.695,0.05,2.541l3.554,2.143c-0.282,1.304-0.84,2.522-1.464,3.696l-4.058-0.875
				c-0.502,0.69-1.123,1.276-1.775,1.819l0.997,4.013c-1.128,0.719-2.386,1.194-3.659,1.583l-2.241-3.476
				c-0.843,0.132-1.695,0.128-2.541,0.049l-2.142,3.555c-0.729-0.167-1.439-0.416-2.133-0.691c-0.539-0.221-1.053-0.496-1.565-0.773
				l0.876-4.058c-0.688-0.503-1.275-1.122-1.818-1.775l-4.015,0.997c-0.717-1.128-1.192-2.384-1.582-3.658l3.477-2.242
				c-0.132-0.842-0.129-1.696-0.049-2.542l-3.556-2.141c0.284-1.304,0.84-2.523,1.465-3.696l4.057,0.874
				c0.504-0.689,1.124-1.274,1.776-1.817l-0.996-4.016c1.128-0.717,2.385-1.192,3.657-1.58l2.242,3.475
				c0.843-0.132,1.694-0.127,2.541-0.048l2.143-3.556C107.878,15.653,108.615,15.93,109.344,16.22L109.344,16.22z M106.047,23.566
				c-1.468-0.572-3.112-0.544-4.558,0.082c-5.79,2.503-4.106,11.268,2.196,11.417C110.319,35.224,112.105,26.148,106.047,23.566
				L106.047,23.566z"/>
			<g>
				<path opacity="0.2" d="M113.902,28.083l3.222-2.079c-0.034-0.115-0.076-0.23-0.112-0.346l-3.142,2.028
					C113.892,27.817,113.889,27.951,113.902,28.083z"/>
				<path opacity="0.2" d="M106.047,23.566c-1.468-0.572-3.112-0.544-4.558,0.082c-1.648,0.713-2.672,1.938-3.175,3.322
					c0.563-1.151,1.528-2.146,2.952-2.762c1.446-0.624,3.09-0.653,4.558-0.08c3.324,1.416,4.274,4.782,3.371,7.51
					C110.44,28.828,109.604,25.083,106.047,23.566z"/>
				<path opacity="0.2" d="M97.523,21.209l-0.902-3.636c-0.104,0.063-0.213,0.114-0.316,0.18l0.923,3.722
					C97.329,21.389,97.422,21.293,97.523,21.209z"/>
				<path opacity="0.2" d="M116.01,36.065l-4.058-0.875c-0.502,0.69-1.123,1.276-1.775,1.819l0.072,0.294
					c0.541-0.471,1.057-0.97,1.48-1.552l4.058,0.875c0.373-0.701,0.713-1.421,0.995-2.164
					C116.549,35.008,116.288,35.542,116.01,36.065z"/>
				<path opacity="0.2" d="M93.575,30.696l0.255-0.163c-0.132-0.842-0.129-1.696-0.049-2.542l-3.556-2.141
					c0.115-0.526,0.282-1.035,0.472-1.535c-0.291,0.678-0.537,1.373-0.694,2.096l3.556,2.141
					C93.492,29.265,93.499,29.984,93.575,30.696z"/>
			</g>
		</g>
		<g>
			<path opacity="0.2" d="M32.896,39.573l2.229-3.12c-0.076-0.094-0.155-0.186-0.232-0.279l-2.173,3.042
				C32.787,39.331,32.834,39.456,32.896,39.573z"/>
			<path opacity="0.2" d="M23.928,38.268c-1.575,0.008-3.094,0.641-4.208,1.754c-1.269,1.27-1.769,2.786-1.727,4.258
				c0.099-1.277,0.63-2.558,1.727-3.654c1.114-1.114,2.633-1.746,4.208-1.754c3.611,0.092,5.735,2.872,5.9,5.74
				C29.951,41.542,27.794,38.367,23.928,38.268z"/>
			<path opacity="0.2" d="M15.136,39.216l-2.177-3.047c-0.075,0.097-0.156,0.186-0.228,0.285l2.229,3.12
				C15.021,39.455,15.072,39.332,15.136,39.216z"/>
			<path opacity="0.2" d="M37.794,46.218l-4.094,0.681c-0.213,0.826-0.574,1.6-0.981,2.345l0.176,0.247
				c0.329-0.638,0.625-1.292,0.805-1.988l4.094-0.681c0.089-0.789,0.14-1.584,0.128-2.377C37.906,45.036,37.86,45.629,37.794,46.218
				z"/>
			<path opacity="0.2" d="M14.96,49.491l0.176-0.247c-0.432-0.735-0.743-1.529-0.981-2.345l-4.094-0.681
				c-0.087-0.532-0.119-1.066-0.128-1.601c-0.02,0.737,0.007,1.474,0.128,2.204l4.094,0.681
				C14.356,48.191,14.626,48.856,14.96,49.491z"/>
			<path opacity="0.2" d="M32.307,55.427l-3.366-2.404c-0.734,0.432-1.528,0.743-2.344,0.98l-0.681,4.094
				c-0.74,0.113-1.491,0.143-2.237,0.143c-0.583-0.007-1.162-0.073-1.739-0.143l-0.682-4.094c-0.825-0.214-1.599-0.575-2.344-0.98
				l-3.366,2.404c-0.984-0.714-1.817-1.602-2.585-2.539l-0.232,0.324c0.832,1.041,1.736,2.034,2.817,2.818l3.366-2.404
				c0.745,0.406,1.519,0.767,2.344,0.981l0.682,4.094c0.577,0.069,1.156,0.136,1.739,0.143c0.747,0,1.498-0.029,2.237-0.143
				l0.681-4.094c0.816-0.238,1.61-0.548,2.344-0.981l3.366,2.404c1.04-0.831,2.033-1.734,2.818-2.818l-0.228-0.318
				C34.15,53.849,33.252,54.671,32.307,55.427z"/>
		</g>
		<g>
			<path opacity="0.2" d="M34.093,13.628l3.221-2.078c-0.035-0.116-0.076-0.231-0.113-0.346l-3.141,2.028
				C34.081,13.364,34.079,13.497,34.093,13.628z"/>
			<path opacity="0.2" d="M26.237,9.112c-1.467-0.572-3.112-0.544-4.559,0.082c-1.647,0.713-2.671,1.938-3.174,3.321
				c0.563-1.15,1.529-2.146,2.952-2.761c1.446-0.624,3.09-0.653,4.559-0.08c3.323,1.417,4.273,4.782,3.371,7.51
				C30.63,14.375,29.794,10.628,26.237,9.112z"/>
			<path opacity="0.2" d="M17.713,6.754L16.812,3.12c-0.105,0.063-0.214,0.115-0.316,0.181l0.923,3.72
				C17.519,6.935,17.612,6.839,17.713,6.754z"/>
			<path opacity="0.2" d="M36.2,21.611l-4.057-0.875c-0.503,0.69-1.124,1.276-1.776,1.819l0.073,0.294
				c0.541-0.472,1.057-0.971,1.48-1.552l4.058,0.875c0.372-0.701,0.713-1.422,0.994-2.164C36.738,20.554,36.478,21.089,36.2,21.611z
				"/>
			<path opacity="0.2" d="M13.765,16.242l0.254-0.164c-0.13-0.842-0.128-1.696-0.048-2.542l-3.555-2.141
				c0.114-0.526,0.282-1.035,0.471-1.535c-0.29,0.678-0.536,1.372-0.693,2.096l3.555,2.141
				C13.682,14.812,13.688,15.53,13.765,16.242z"/>
			<path opacity="0.2" d="M27.706,28.15l-2.243-3.475c-0.842,0.131-1.695,0.128-2.541,0.048l-2.141,3.555
				c-0.73-0.167-1.439-0.415-2.133-0.691c-0.54-0.221-1.053-0.495-1.565-0.773l0.875-4.057c-0.688-0.503-1.276-1.123-1.819-1.775
				l-4.014,0.996c-0.652-1.026-1.099-2.159-1.469-3.313l-0.335,0.216c0.39,1.273,0.865,2.529,1.582,3.657l4.015-0.995
				c0.543,0.652,1.129,1.272,1.818,1.774l-0.875,4.059c0.512,0.277,1.025,0.552,1.565,0.773c0.694,0.275,1.403,0.524,2.133,0.691
				l2.141-3.556c0.846,0.08,1.698,0.083,2.541-0.047l2.243,3.476c1.272-0.39,2.529-0.865,3.658-1.582l-0.095-0.381
				C30,27.363,28.863,27.797,27.706,28.15z"/>
		</g>
		<g>
			<path opacity="0.2" d="M85.297,97.386l2.229-3.12c-0.076-0.095-0.155-0.186-0.233-0.278l-2.172,3.041
				C85.188,97.143,85.233,97.269,85.297,97.386z"/>
			<path opacity="0.2" d="M76.328,96.08c-1.574,0.009-3.094,0.641-4.208,1.755c-1.269,1.27-1.77,2.786-1.727,4.258
				c0.1-1.277,0.631-2.559,1.727-3.654c1.114-1.114,2.634-1.746,4.208-1.755c3.611,0.093,5.735,2.872,5.901,5.741
				C82.352,99.354,80.194,96.18,76.328,96.08z"/>
			<path opacity="0.2" d="M67.536,97.028l-2.177-3.047c-0.076,0.097-0.156,0.186-0.229,0.284l2.229,3.12
				C67.422,97.268,67.473,97.145,67.536,97.028z"/>
			<path opacity="0.2" d="M90.194,104.031l-4.094,0.681c-0.212,0.826-0.574,1.6-0.98,2.346l0.177,0.245
				c0.328-0.637,0.623-1.29,0.804-1.987l4.094-0.682c0.089-0.789,0.14-1.583,0.128-2.377
				C90.307,102.849,90.26,103.441,90.194,104.031z"/>
			<path opacity="0.2" d="M67.36,107.303l0.176-0.245c-0.433-0.735-0.743-1.53-0.981-2.346l-4.094-0.681
				c-0.087-0.532-0.119-1.066-0.127-1.602c-0.02,0.737,0.008,1.475,0.127,2.204l4.094,0.682
				C66.756,106.004,67.027,106.669,67.36,107.303z"/>
			<path opacity="0.2" d="M84.707,113.239l-3.365-2.404c-0.735,0.433-1.528,0.743-2.345,0.98l-0.682,4.094
				c-0.739,0.114-1.489,0.144-2.236,0.144c-0.582-0.006-1.161-0.073-1.739-0.144l-0.682-4.094c-0.825-0.214-1.6-0.574-2.344-0.98
				l-3.366,2.404c-0.983-0.714-1.815-1.602-2.586-2.538l-0.231,0.323c0.832,1.041,1.735,2.034,2.817,2.818l3.366-2.404
				c0.744,0.406,1.519,0.767,2.344,0.98l0.682,4.094c0.578,0.07,1.157,0.137,1.739,0.144c0.747,0,1.497-0.029,2.236-0.144
				l0.682-4.094c0.816-0.237,1.609-0.548,2.345-0.98l3.365,2.404c1.039-0.831,2.034-1.734,2.818-2.818l-0.229-0.318
				C86.55,111.661,85.652,112.484,84.707,113.239z"/>
		</g>
		<g>
			<path opacity="0.2" d="M86.493,71.441l3.222-2.078c-0.036-0.116-0.076-0.23-0.113-0.347l-3.141,2.028
				C86.481,71.177,86.478,71.31,86.493,71.441z"/>
			<path opacity="0.2" d="M78.636,66.925c-1.467-0.572-3.111-0.544-4.558,0.081c-1.647,0.713-2.671,1.938-3.174,3.322
				c0.562-1.151,1.529-2.146,2.952-2.762c1.445-0.624,3.09-0.653,4.558-0.08c3.323,1.416,4.273,4.782,3.372,7.51
				C83.03,72.188,82.193,68.441,78.636,66.925z"/>
			<path opacity="0.2" d="M70.113,64.567l-0.901-3.634c-0.106,0.062-0.214,0.114-0.317,0.18l0.924,3.721
				C69.918,64.747,70.012,64.651,70.113,64.567z"/>
			<path opacity="0.2" d="M88.599,79.424l-4.057-0.874c-0.502,0.69-1.123,1.275-1.776,1.818l0.074,0.294
				c0.54-0.471,1.057-0.971,1.48-1.552l4.057,0.875c0.373-0.701,0.714-1.421,0.994-2.163C89.138,78.367,88.877,78.901,88.599,79.424
				z"/>
			<path opacity="0.2" d="M66.165,74.055l0.253-0.163c-0.129-0.843-0.127-1.696-0.047-2.542l-3.555-2.142
				c0.113-0.526,0.282-1.035,0.471-1.534c-0.29,0.677-0.536,1.372-0.692,2.095l3.554,2.142
				C66.081,72.624,66.089,73.343,66.165,74.055z"/>
			<path opacity="0.2" d="M80.106,85.964l-2.244-3.476c-0.843,0.132-1.695,0.128-2.54,0.049l-2.142,3.555
				c-0.729-0.166-1.438-0.415-2.133-0.691c-0.54-0.221-1.053-0.495-1.564-0.773l0.875-4.058c-0.688-0.502-1.275-1.122-1.818-1.775
				l-4.015,0.997c-0.652-1.026-1.099-2.159-1.469-3.312l-0.335,0.216c0.391,1.272,0.866,2.529,1.582,3.657l4.016-0.995
				c0.543,0.652,1.129,1.271,1.817,1.774l-0.875,4.059c0.512,0.277,1.025,0.553,1.565,0.773c0.693,0.274,1.402,0.523,2.132,0.691
				l2.143-3.558c0.846,0.081,1.697,0.084,2.54-0.046l2.243,3.474c1.272-0.389,2.528-0.864,3.657-1.581l-0.094-0.381
				C82.401,85.176,81.262,85.61,80.106,85.964z"/>
		</g>
		<g>
			<path opacity="0.2" d="M85.297,39.573l2.229-3.12c-0.076-0.094-0.155-0.186-0.233-0.279l-2.172,3.042
				C85.188,39.331,85.233,39.456,85.297,39.573z"/>
			<path opacity="0.2" d="M76.328,38.268c-1.574,0.008-3.094,0.641-4.208,1.754c-1.269,1.27-1.77,2.786-1.727,4.258
				c0.1-1.277,0.631-2.558,1.727-3.654c1.114-1.114,2.634-1.746,4.208-1.754c3.611,0.092,5.735,2.872,5.901,5.74
				C82.352,41.542,80.194,38.367,76.328,38.268z"/>
			<path opacity="0.2" d="M67.536,39.216l-2.177-3.047c-0.076,0.097-0.156,0.186-0.229,0.285l2.229,3.12
				C67.422,39.455,67.473,39.332,67.536,39.216z"/>
			<path opacity="0.2" d="M90.194,46.218l-4.094,0.681c-0.212,0.826-0.574,1.6-0.98,2.345l0.177,0.247
				c0.328-0.638,0.623-1.292,0.804-1.988l4.094-0.681c0.089-0.789,0.14-1.584,0.128-2.377C90.307,45.036,90.26,45.629,90.194,46.218
				z"/>
			<path opacity="0.2" d="M67.36,49.491l0.176-0.247c-0.433-0.735-0.743-1.529-0.981-2.345l-4.094-0.681
				c-0.087-0.532-0.119-1.066-0.127-1.601c-0.02,0.737,0.008,1.474,0.127,2.204l4.094,0.681
				C66.756,48.191,67.027,48.856,67.36,49.491z"/>
			<path opacity="0.2" d="M84.707,55.427l-3.365-2.404c-0.735,0.432-1.528,0.743-2.345,0.98l-0.682,4.094
				c-0.739,0.113-1.489,0.143-2.236,0.143c-0.582-0.007-1.161-0.073-1.739-0.143l-0.682-4.094c-0.825-0.214-1.6-0.575-2.344-0.98
				l-3.366,2.404c-0.983-0.714-1.815-1.602-2.586-2.539l-0.231,0.324c0.832,1.041,1.735,2.034,2.817,2.818l3.366-2.404
				c0.744,0.406,1.519,0.767,2.344,0.981l0.682,4.094c0.578,0.069,1.157,0.136,1.739,0.143c0.747,0,1.497-0.029,2.236-0.143
				l0.682-4.094c0.816-0.238,1.609-0.548,2.345-0.981l3.365,2.404c1.039-0.831,2.034-1.734,2.818-2.818l-0.229-0.318
				C86.55,53.849,85.652,54.671,84.707,55.427z"/>
		</g>
		<g>
			<linearGradient id="SVGID_6_" gradientUnits="userSpaceOnUse" x1="63.7983" y1="87.0889" x2="63.7983" y2="28.8084">
				<stop  offset="0" style="stop-color:#FFFFFF;stop-opacity:0.18"/>
				<stop  offset="1" style="stop-color:#FFFFFF;stop-opacity:0.3"/>
			</linearGradient>
			<path fill="url(#SVGID_6_)" d="M33.701,104.712l4.094-0.681c0.148-1.322,0.218-2.659,0-3.977l-4.094-0.683
				c-0.237-0.815-0.549-1.608-0.981-2.344l2.405-3.366c-0.832-1.038-1.735-2.032-2.818-2.816l-3.366,2.405
				c-0.745-0.407-1.519-0.768-2.344-0.981l-0.681-4.094c-0.541-0.066-1.083-0.135-1.629-0.139c-0.784-0.002-1.572,0.013-2.347,0.139
				l-0.682,4.094c-0.815,0.238-1.609,0.549-2.344,0.981l-3.365-2.405c-1.04,0.831-2.033,1.734-2.817,2.816l2.405,3.366
				c-0.407,0.746-0.767,1.519-0.981,2.344l-4.094,0.683c-0.148,1.32-0.217,2.658,0,3.977l4.094,0.681
				c0.238,0.815,0.549,1.61,0.981,2.346l-2.405,3.364c0.832,1.04,1.736,2.033,2.817,2.817l3.366-2.404
				c0.745,0.406,1.519,0.767,2.344,0.98l0.682,4.094c0.577,0.07,1.156,0.138,1.739,0.144c0.747,0,1.498-0.029,2.237-0.144
				l0.681-4.094c0.816-0.237,1.61-0.548,2.344-0.98l3.366,2.404c1.04-0.83,2.033-1.734,2.818-2.817l-2.405-3.364
				C33.126,106.312,33.488,105.538,33.701,104.712z M25.969,107.641c-5.915,2.183-10.708-5.346-6.248-9.806
				c1.114-1.114,2.633-1.746,4.208-1.755C30.512,96.25,32.194,105.344,25.969,107.641z M59.669,116.115
				c-0.237-0.815-0.549-1.608-0.981-2.344l2.405-3.366c-0.831-1.038-1.735-2.032-2.818-2.816l-3.366,2.405
				c-0.745-0.407-1.519-0.769-2.344-0.981l-0.681-4.094c-0.541-0.066-1.083-0.135-1.629-0.139c-0.785-0.002-1.572,0.013-2.348,0.139
				l-0.682,4.094c-0.815,0.237-1.609,0.549-2.344,0.981l-3.365-2.405c-1.039,0.831-2.033,1.734-2.817,2.816l2.405,3.366
				c-0.407,0.746-0.767,1.519-0.981,2.344l-4.094,0.682c-0.148,1.321-0.217,2.659,0,3.978l4.094,0.681
				c0.238,0.815,0.549,1.61,0.981,2.345l-2.405,3.365c0.832,1.04,1.736,2.033,2.817,2.817l3.366-2.404
				c0.745,0.406,1.519,0.767,2.344,0.98l0.682,4.094c0.577,0.07,1.156,0.137,1.739,0.144c0.747,0,1.498-0.03,2.237-0.144
				l0.681-4.094c0.816-0.237,1.61-0.548,2.344-0.98l3.366,2.404c1.04-0.831,2.033-1.734,2.818-2.817l-2.405-3.365
				c0.407-0.745,0.768-1.519,0.981-2.345l4.093-0.681c0.148-1.322,0.219-2.659,0-3.978L59.669,116.115z M51.938,124.384
				c-5.915,2.183-10.708-5.346-6.248-9.807c1.114-1.113,2.633-1.745,4.208-1.754C56.481,112.993,58.163,122.086,51.938,124.384z
				 M40.124,3.789c0.238,0.815,0.549,1.61,0.981,2.345L38.7,9.499c0.832,1.04,1.736,2.033,2.817,2.817l3.366-2.404
				c0.745,0.406,1.519,0.767,2.344,0.981l0.682,4.094c0.577,0.07,1.156,0.137,1.739,0.143c0.747,0,1.498-0.029,2.237-0.143
				l0.681-4.094c0.816-0.237,1.61-0.548,2.344-0.981l3.366,2.404c1.04-0.831,2.033-1.734,2.818-2.817l-2.405-3.365
				c0.407-0.746,0.768-1.519,0.981-2.345l4.093-0.681c0.148-1.323,0.219-2.659,0-3.978l-4.093-0.682
				c-0.237-0.815-0.549-1.609-0.981-2.344l2.405-3.366c-0.831-1.039-1.735-2.032-2.818-2.817L54.91-7.672
				c-0.745-0.407-1.519-0.768-2.344-0.981l-0.681-4.094c-0.541-0.067-1.083-0.135-1.629-0.139c-0.785-0.002-1.572,0.013-2.348,0.139
				l-0.682,4.094c-0.815,0.237-1.609,0.548-2.344,0.981l-3.365-2.405c-1.039,0.832-2.033,1.735-2.817,2.817l2.405,3.366
				c-0.407,0.746-0.767,1.519-0.981,2.344L36.03-0.869c-0.148,1.321-0.217,2.659,0,3.978L40.124,3.789z M45.689-3.089
				c1.114-1.113,2.633-1.746,4.208-1.754c6.584,0.169,8.266,9.263,2.041,11.56C46.023,8.9,41.229,1.372,45.689-3.089z M32.143,78.55
				l4.057,0.874c0.624-1.174,1.181-2.391,1.464-3.695l-3.554-2.143c0.079-0.847,0.082-1.698-0.049-2.541l3.476-2.243
				c-0.39-1.272-0.864-2.529-1.582-3.657l-4.015,0.996c-0.542-0.653-1.128-1.272-1.818-1.774l0.875-4.058
				c-0.478-0.261-0.958-0.523-1.463-0.729c-0.729-0.291-1.466-0.568-2.234-0.736l-2.142,3.556c-0.846-0.08-1.698-0.083-2.542,0.047
				l-2.242-3.474c-1.273,0.389-2.53,0.864-3.657,1.58l0.996,4.015c-0.653,0.544-1.272,1.129-1.776,1.818l-4.057-0.874
				c-0.624,1.173-1.181,2.392-1.465,3.696l3.555,2.142c-0.08,0.846-0.082,1.699,0.048,2.542l-3.476,2.242
				c0.39,1.273,0.865,2.529,1.582,3.657l4.014-0.997c0.543,0.653,1.13,1.273,1.819,1.775l-0.875,4.058
				c0.512,0.278,1.025,0.553,1.565,0.773c0.694,0.276,1.403,0.525,2.133,0.691l2.141-3.555c0.846,0.079,1.698,0.083,2.541-0.049
				l2.243,3.476c1.272-0.389,2.529-0.863,3.658-1.582l-0.997-4.014C31.019,79.825,31.64,79.24,32.143,78.55z M23.875,78.423
				c-6.303-0.149-7.986-8.914-2.197-11.417c1.446-0.625,3.091-0.653,4.559-0.081C32.295,69.507,30.509,78.582,23.875,78.423z
				 M58.181,94.84l4.057,0.875c0.624-1.175,1.182-2.392,1.465-3.696l-3.555-2.143c0.079-0.847,0.082-1.698-0.049-2.541l3.476-2.243
				c-0.39-1.272-0.864-2.529-1.582-3.656l-4.015,0.995c-0.542-0.653-1.128-1.272-1.818-1.774l0.875-4.058
				c-0.478-0.261-0.958-0.523-1.463-0.729c-0.729-0.29-1.466-0.567-2.234-0.736l-2.142,3.557c-0.846-0.08-1.698-0.084-2.541,0.048
				l-2.242-3.475c-1.272,0.388-2.529,0.863-3.657,1.58l0.997,4.016c-0.653,0.543-1.273,1.128-1.776,1.817l-4.057-0.874
				c-0.625,1.173-1.181,2.392-1.465,3.696l3.555,2.142c-0.08,0.846-0.083,1.7,0.048,2.542l-3.475,2.242
				c0.39,1.273,0.865,2.529,1.582,3.657l4.014-0.996c0.543,0.653,1.131,1.272,1.819,1.775l-0.875,4.058
				c0.512,0.277,1.026,0.552,1.565,0.772c0.694,0.276,1.403,0.525,2.133,0.691l2.141-3.555c0.846,0.08,1.699,0.083,2.541-0.049
				l2.243,3.476c1.273-0.389,2.53-0.863,3.658-1.582l-0.997-4.014C57.058,96.115,57.678,95.53,58.181,94.84z M49.914,94.713
				c-6.303-0.149-7.986-8.913-2.197-11.416c1.446-0.626,3.091-0.653,4.558-0.082C58.334,85.797,56.547,94.872,49.914,94.713z
				 M36.03,57.148c-0.148,1.32-0.217,2.659,0,3.977l4.094,0.681c0.238,0.816,0.549,1.61,0.981,2.345L38.7,67.517
				c0.832,1.039,1.736,2.033,2.817,2.816l3.366-2.404c0.745,0.406,1.519,0.767,2.344,0.981l0.682,4.094
				c0.577,0.069,1.156,0.137,1.739,0.143c0.747,0,1.498-0.029,2.237-0.143l0.681-4.094c0.816-0.237,1.61-0.549,2.344-0.981
				l3.366,2.404c1.04-0.83,2.033-1.733,2.818-2.816l-2.405-3.365c0.407-0.746,0.768-1.519,0.981-2.345l4.093-0.681
				c0.148-1.323,0.219-2.659,0-3.977l-4.093-0.682c-0.237-0.815-0.549-1.609-0.981-2.344l2.405-3.366
				c-0.831-1.038-1.735-2.032-2.818-2.817l-3.366,2.405c-0.745-0.407-1.519-0.768-2.344-0.981l-0.681-4.094
				c-0.541-0.067-1.083-0.135-1.629-0.139c-0.785-0.002-1.572,0.013-2.348,0.139l-0.682,4.094c-0.815,0.238-1.609,0.548-2.344,0.981
				l-3.365-2.405c-1.039,0.832-2.033,1.735-2.817,2.817l2.405,3.366c-0.407,0.746-0.767,1.519-0.981,2.344L36.03,57.148z
				 M45.689,54.929c1.114-1.114,2.633-1.746,4.208-1.754c6.584,0.17,8.266,9.263,2.041,11.56
				C46.023,66.917,41.229,59.389,45.689,54.929z M38.164,36.433l4.014-0.997c0.543,0.653,1.131,1.272,1.819,1.775l-0.875,4.058
				c0.512,0.278,1.026,0.553,1.565,0.773c0.694,0.275,1.403,0.525,2.133,0.691l2.141-3.555c0.846,0.08,1.699,0.083,2.541-0.049
				l2.243,3.476c1.273-0.388,2.53-0.863,3.658-1.583l-0.997-4.013c0.653-0.543,1.273-1.128,1.776-1.819l4.057,0.875
				c0.624-1.174,1.182-2.392,1.465-3.696l-3.555-2.143c0.079-0.846,0.082-1.698-0.049-2.541l3.476-2.243
				c-0.39-1.272-0.864-2.529-1.582-3.657l-4.015,0.996c-0.542-0.653-1.128-1.273-1.818-1.774l0.875-4.058
				c-0.478-0.261-0.958-0.524-1.463-0.73c-0.729-0.291-1.466-0.567-2.234-0.736l-2.142,3.556c-0.846-0.08-1.698-0.084-2.541,0.048
				l-2.242-3.475c-1.272,0.388-2.529,0.863-3.657,1.58l0.997,4.016c-0.653,0.543-1.273,1.128-1.776,1.817l-4.057-0.874
				c-0.625,1.173-1.181,2.392-1.465,3.696l3.555,2.141c-0.08,0.847-0.083,1.7,0.048,2.542l-3.475,2.242
				C36.972,34.048,37.447,35.304,38.164,36.433z M47.717,23.647c1.446-0.625,3.091-0.653,4.558-0.082
				c6.059,2.583,4.272,11.658-2.361,11.499C43.611,34.915,41.928,26.15,47.717,23.647z M113.441,116.115
				c-0.237-0.815-0.549-1.608-0.982-2.344l2.406-3.366c-0.832-1.038-1.735-2.032-2.817-2.816l-3.366,2.405
				c-0.744-0.407-1.519-0.769-2.344-0.981l-0.681-4.094c-0.541-0.066-1.084-0.135-1.629-0.139c-0.785-0.002-1.573,0.013-2.349,0.139
				l-0.682,4.094c-0.815,0.237-1.609,0.549-2.345,0.981l-3.364-2.405c-1.039,0.831-2.034,1.734-2.818,2.816l2.404,3.366
				c-0.406,0.746-0.766,1.519-0.979,2.344l-4.094,0.682c-0.148,1.321-0.219,2.659,0,3.978l4.094,0.681
				c0.237,0.815,0.549,1.61,0.979,2.345l-2.404,3.365c0.832,1.04,1.736,2.033,2.818,2.817l3.365-2.404
				c0.745,0.406,1.52,0.767,2.345,0.98l0.681,4.094c0.577,0.07,1.156,0.137,1.739,0.144c0.747,0,1.498-0.03,2.238-0.144l0.681-4.094
				c0.815-0.237,1.61-0.548,2.344-0.98l3.366,2.404c1.039-0.831,2.032-1.734,2.817-2.817l-2.406-3.365
				c0.407-0.745,0.769-1.519,0.982-2.345l4.093-0.681c0.148-1.322,0.219-2.659,0-3.978L113.441,116.115z M105.709,124.384
				c-5.915,2.183-10.708-5.346-6.248-9.807c1.114-1.113,2.633-1.745,4.207-1.754C110.252,112.993,111.935,122.086,105.709,124.384z
				 M93.896,3.789c0.237,0.815,0.549,1.61,0.979,2.345l-2.404,3.365c0.832,1.04,1.736,2.033,2.818,2.817l3.365-2.404
				c0.745,0.406,1.52,0.767,2.345,0.981l0.681,4.094c0.577,0.07,1.156,0.137,1.739,0.143c0.747,0,1.498-0.029,2.238-0.143
				l0.681-4.094c0.815-0.237,1.61-0.548,2.344-0.981l3.366,2.404c1.039-0.831,2.032-1.734,2.817-2.817l-2.406-3.365
				c0.407-0.746,0.769-1.519,0.982-2.345l4.093-0.681c0.148-1.323,0.219-2.659,0-3.978l-4.093-0.682
				c-0.237-0.815-0.549-1.609-0.982-2.344l2.406-3.366c-0.832-1.039-1.735-2.032-2.817-2.817l-3.366,2.405
				c-0.744-0.407-1.519-0.768-2.344-0.981l-0.681-4.094c-0.541-0.067-1.084-0.135-1.629-0.139c-0.785-0.002-1.573,0.013-2.349,0.139
				l-0.682,4.094c-0.815,0.237-1.609,0.548-2.345,0.981l-3.364-2.405c-1.039,0.832-2.034,1.735-2.818,2.817l2.404,3.366
				c-0.406,0.746-0.766,1.519-0.979,2.344l-4.094,0.682c-0.148,1.321-0.219,2.659,0,3.978L93.896,3.789z M99.461-3.089
				c1.114-1.113,2.633-1.746,4.207-1.754c6.584,0.169,8.267,9.263,2.041,11.56C99.794,8.9,95.001,1.372,99.461-3.089z
				 M95.747,82.676l-4.057-0.874c-0.625,1.173-1.181,2.392-1.465,3.696l3.556,2.142c-0.08,0.846-0.083,1.7,0.049,2.542l-3.477,2.242
				c0.39,1.273,0.865,2.529,1.582,3.657l4.015-0.996c0.543,0.653,1.13,1.272,1.818,1.775l-0.876,4.058
				c0.513,0.277,1.026,0.552,1.565,0.772c0.693,0.276,1.403,0.525,2.133,0.691l2.142-3.555c0.846,0.08,1.698,0.083,2.541-0.049
				l2.241,3.476c1.273-0.389,2.531-0.863,3.659-1.582l-0.997-4.014c0.652-0.543,1.273-1.128,1.775-1.818l4.058,0.875
				c0.624-1.175,1.182-2.392,1.464-3.696l-3.554-2.143c0.079-0.847,0.082-1.698-0.05-2.541l3.477-2.243
				c-0.391-1.272-0.864-2.529-1.583-3.656l-4.014,0.995c-0.542-0.653-1.129-1.272-1.819-1.774l0.876-4.058
				c-0.478-0.261-0.958-0.523-1.463-0.729c-0.729-0.29-1.466-0.567-2.233-0.736l-2.143,3.557c-0.847-0.08-1.698-0.084-2.541,0.048
				l-2.242-3.475c-1.272,0.388-2.529,0.863-3.657,1.58l0.996,4.016C96.871,81.401,96.251,81.986,95.747,82.676z M101.489,83.297
				c1.445-0.626,3.09-0.653,4.558-0.082c6.059,2.582,4.272,11.657-2.361,11.498C97.383,94.563,95.699,85.8,101.489,83.297z
				 M113.441,56.466c-0.237-0.815-0.549-1.609-0.982-2.344l2.406-3.366c-0.832-1.038-1.735-2.032-2.817-2.817l-3.366,2.405
				c-0.744-0.407-1.519-0.768-2.344-0.981l-0.681-4.094c-0.541-0.067-1.084-0.135-1.629-0.139c-0.785-0.002-1.573,0.013-2.349,0.139
				l-0.682,4.094c-0.815,0.238-1.609,0.548-2.345,0.981l-3.364-2.405c-1.039,0.832-2.034,1.735-2.818,2.817l2.404,3.366
				c-0.406,0.746-0.766,1.519-0.979,2.344l-4.094,0.682c-0.148,1.32-0.219,2.659,0,3.977l4.094,0.681
				c0.237,0.816,0.549,1.61,0.979,2.345l-2.404,3.365c0.832,1.039,1.736,2.033,2.818,2.816l3.365-2.404
				c0.745,0.406,1.52,0.767,2.345,0.981l0.681,4.094c0.577,0.069,1.156,0.137,1.739,0.143c0.747,0,1.498-0.029,2.238-0.143
				l0.681-4.094c0.815-0.237,1.61-0.549,2.344-0.981l3.366,2.404c1.039-0.83,2.032-1.733,2.817-2.816l-2.406-3.365
				c0.407-0.746,0.769-1.519,0.982-2.345l4.093-0.681c0.148-1.323,0.219-2.659,0-3.977L113.441,56.466z M105.709,64.734
				c-5.915,2.183-10.708-5.345-6.248-9.806c1.114-1.114,2.633-1.746,4.207-1.754C110.252,53.344,111.935,62.438,105.709,64.734z
				 M96.671,41.831l0.875-4.059c-0.688-0.503-1.274-1.122-1.817-1.774l-4.016,0.995c-0.717-1.127-1.192-2.384-1.581-3.657
				l0.335-0.216c0.37,1.154,0.816,2.287,1.469,3.313l4.015-0.997c0.543,0.653,1.13,1.272,1.818,1.775l-0.876,4.058
				c0.513,0.278,1.026,0.553,1.565,0.773c0.693,0.275,1.403,0.525,2.133,0.691l2.142-3.555c0.846,0.08,1.698,0.083,2.541-0.049
				l2.241,3.476c1.158-0.353,2.296-0.788,3.341-1.401l0.096,0.38c-1.128,0.717-2.385,1.192-3.658,1.582l-2.242-3.475
				c-0.843,0.131-1.695,0.127-2.542,0.047l-2.14,3.557c-0.729-0.167-1.439-0.417-2.134-0.691
				C97.696,42.383,97.184,42.107,96.671,41.831z M14.155,46.899c0.238,0.816,0.549,1.61,0.981,2.345l-2.405,3.365
				c0.832,1.04,1.736,2.033,2.817,2.817l3.366-2.404c0.745,0.406,1.519,0.766,2.344,0.98l0.682,4.094
				c0.577,0.07,1.156,0.136,1.739,0.143c0.747,0,1.498-0.03,2.237-0.143l0.681-4.094c0.816-0.238,1.61-0.548,2.344-0.98l3.366,2.404
				c1.04-0.831,2.033-1.735,2.818-2.817l-2.405-3.365c0.407-0.745,0.768-1.519,0.981-2.345l4.094-0.681
				c0.148-1.322,0.218-2.658,0-3.977l-4.094-0.682c-0.237-0.816-0.549-1.609-0.981-2.344l2.405-3.366
				c-0.832-1.039-1.735-2.032-2.818-2.817l-3.366,2.405c-0.745-0.407-1.519-0.768-2.344-0.98l-0.681-4.094
				c-0.541-0.067-1.083-0.134-1.629-0.138c-0.784-0.003-1.572,0.012-2.347,0.138l-0.682,4.094c-0.815,0.238-1.609,0.548-2.344,0.98
				l-3.365-2.405c-1.04,0.831-2.033,1.735-2.817,2.817l2.405,3.366c-0.407,0.745-0.767,1.519-0.981,2.344l-4.094,0.682
				c-0.148,1.32-0.217,2.658,0,3.977L14.155,46.899z M19.721,40.022c1.114-1.114,2.633-1.746,4.208-1.754
				c6.584,0.169,8.266,9.263,2.041,11.56C20.054,52.01,15.26,44.482,19.721,40.022z M14.019,16.078l-3.476,2.242
				c0.39,1.274,0.865,2.53,1.582,3.658l4.014-0.996c0.543,0.653,1.13,1.272,1.819,1.775l-0.875,4.057
				c0.512,0.278,1.025,0.553,1.565,0.773c0.694,0.276,1.403,0.524,2.133,0.691l2.141-3.555c0.846,0.08,1.698,0.083,2.541-0.048
				l2.243,3.475c1.272-0.388,2.529-0.863,3.658-1.582l-0.997-4.013c0.653-0.543,1.273-1.129,1.776-1.819l4.057,0.875
				c0.624-1.174,1.181-2.391,1.464-3.696l-3.554-2.142c0.079-0.846,0.082-1.698-0.049-2.541l3.476-2.244
				c-0.39-1.272-0.864-2.529-1.582-3.657L31.94,8.328c-0.542-0.654-1.128-1.273-1.818-1.775l0.875-4.057
				c-0.478-0.261-0.958-0.523-1.463-0.729c-0.729-0.291-1.466-0.568-2.234-0.736l-2.142,3.555c-0.846-0.08-1.698-0.083-2.542,0.048
				l-2.242-3.475c-1.273,0.39-2.53,0.864-3.657,1.581l0.996,4.015c-0.653,0.544-1.272,1.129-1.776,1.818L11.88,7.699
				c-0.624,1.173-1.181,2.392-1.465,3.696l3.555,2.141C13.891,14.382,13.889,15.236,14.019,16.078z M21.678,9.193
				c1.446-0.625,3.091-0.653,4.559-0.082c6.059,2.583,4.272,11.657-2.361,11.499C17.572,20.46,15.889,11.697,21.678,9.193z
				 M86.101,104.712l4.094-0.681c0.148-1.322,0.218-2.659,0-3.977l-4.094-0.683c-0.238-0.815-0.549-1.608-0.98-2.344l2.405-3.366
				c-0.831-1.038-1.735-2.032-2.818-2.816l-3.365,2.405c-0.746-0.407-1.519-0.768-2.345-0.981l-0.682-4.094
				c-0.54-0.066-1.081-0.135-1.629-0.139c-0.783-0.002-1.571,0.013-2.347,0.139l-0.682,4.094c-0.815,0.238-1.61,0.549-2.344,0.981
				l-3.366-2.405c-1.04,0.831-2.032,1.734-2.817,2.816l2.405,3.366c-0.407,0.746-0.768,1.519-0.981,2.344l-4.094,0.683
				c-0.148,1.32-0.216,2.658,0,3.977l4.094,0.681c0.238,0.815,0.549,1.61,0.981,2.346l-2.405,3.364
				c0.832,1.04,1.735,2.033,2.817,2.817l3.366-2.404c0.744,0.406,1.519,0.767,2.344,0.98l0.682,4.094
				c0.578,0.07,1.157,0.138,1.739,0.144c0.747,0,1.497-0.029,2.236-0.144l0.682-4.094c0.816-0.237,1.609-0.548,2.345-0.98
				l3.365,2.404c1.039-0.83,2.034-1.734,2.818-2.817l-2.405-3.364C85.526,106.312,85.889,105.538,86.101,104.712z M78.369,107.641
				c-5.915,2.183-10.709-5.346-6.249-9.806c1.114-1.114,2.634-1.746,4.208-1.755C82.912,96.25,84.595,105.344,78.369,107.641z
				 M88.355,65.145l-4.016,0.996c-0.543-0.653-1.129-1.272-1.817-1.774l0.873-4.058c-0.477-0.261-0.956-0.523-1.462-0.729
				c-0.729-0.291-1.467-0.568-2.234-0.736l-2.142,3.556c-0.846-0.08-1.698-0.083-2.541,0.047l-2.242-3.474
				c-1.272,0.389-2.529,0.864-3.658,1.58l0.997,4.015c-0.653,0.544-1.272,1.129-1.775,1.818l-4.058-0.874
				c-0.624,1.173-1.181,2.392-1.464,3.696l3.555,2.142c-0.08,0.846-0.082,1.699,0.047,2.542l-3.474,2.242
				c0.389,1.273,0.864,2.529,1.581,3.657l4.015-0.997c0.543,0.653,1.13,1.273,1.818,1.775l-0.875,4.058
				c0.512,0.278,1.024,0.553,1.564,0.773c0.694,0.276,1.403,0.525,2.133,0.691l2.142-3.555c0.845,0.079,1.697,0.083,2.54-0.049
				l2.244,3.476c1.272-0.389,2.528-0.863,3.656-1.582l-0.997-4.014c0.653-0.543,1.274-1.128,1.776-1.818l4.057,0.874
				c0.625-1.174,1.182-2.391,1.466-3.695l-3.555-2.143c0.078-0.847,0.083-1.698-0.049-2.541l3.476-2.243
				C89.546,67.529,89.072,66.272,88.355,65.145z M76.275,78.423c-6.303-0.149-7.986-8.914-2.197-11.417
				c1.446-0.625,3.091-0.653,4.558-0.081C84.696,69.507,82.908,78.582,76.275,78.423z M90.194,46.218
				c0.148-1.322,0.218-2.658,0-3.977l-4.094-0.682c-0.238-0.816-0.549-1.609-0.98-2.344l2.405-3.366
				c-0.831-1.039-1.735-2.032-2.818-2.817l-3.365,2.405c-0.746-0.407-1.519-0.768-2.345-0.98l-0.682-4.094
				c-0.54-0.067-1.081-0.134-1.629-0.138c-0.783-0.003-1.571,0.012-2.347,0.138l-0.682,4.094c-0.815,0.238-1.61,0.548-2.344,0.98
				l-3.366-2.405c-1.04,0.831-2.032,1.735-2.817,2.817l2.405,3.366c-0.407,0.745-0.768,1.519-0.981,2.344l-4.094,0.682
				c-0.148,1.32-0.216,2.658,0,3.977l4.094,0.681c0.238,0.816,0.549,1.61,0.981,2.345l-2.405,3.365
				c0.832,1.04,1.735,2.033,2.817,2.817l3.366-2.404c0.744,0.406,1.519,0.766,2.344,0.98l0.682,4.094
				c0.578,0.07,1.157,0.136,1.739,0.143c0.747,0,1.497-0.03,2.236-0.143l0.682-4.094c0.816-0.238,1.609-0.548,2.345-0.98
				l3.365,2.404c1.039-0.831,2.034-1.735,2.818-2.817l-2.405-3.365c0.406-0.745,0.769-1.519,0.98-2.345L90.194,46.218z
				 M78.369,49.827c-5.915,2.183-10.709-5.345-6.249-9.805c1.114-1.114,2.634-1.746,4.208-1.754
				C82.912,38.437,84.595,47.531,78.369,49.827z M66.371,13.536c-0.08,0.846-0.082,1.7,0.047,2.542l-3.474,2.242
				c0.389,1.274,0.864,2.53,1.581,3.658l4.015-0.996c0.543,0.653,1.13,1.272,1.818,1.775l-0.875,4.057
				c0.512,0.278,1.024,0.553,1.564,0.773c0.694,0.276,1.403,0.524,2.133,0.691l2.142-3.555c0.845,0.08,1.697,0.083,2.54-0.048
				l2.244,3.475c1.272-0.388,2.528-0.863,3.656-1.582l-0.997-4.013c0.653-0.543,1.274-1.129,1.776-1.819l4.057,0.875
				c0.625-1.174,1.182-2.391,1.466-3.696l-3.555-2.142c0.078-0.846,0.083-1.698-0.049-2.541l3.476-2.244
				c-0.391-1.272-0.864-2.529-1.581-3.657L84.34,8.328c-0.543-0.654-1.129-1.273-1.817-1.775l0.873-4.057
				c-0.477-0.261-0.956-0.523-1.462-0.729c-0.729-0.291-1.467-0.568-2.234-0.736l-2.142,3.555c-0.846-0.08-1.698-0.083-2.541,0.048
				l-2.242-3.475c-1.272,0.39-2.529,0.864-3.658,1.581l0.997,4.015c-0.653,0.544-1.272,1.129-1.775,1.818L64.28,7.699
				c-0.624,1.173-1.181,2.392-1.464,3.696L66.371,13.536z M74.078,9.193c1.446-0.625,3.091-0.653,4.558-0.082
				c6.061,2.583,4.272,11.657-2.36,11.499C69.973,20.46,68.289,11.697,74.078,9.193z"/>
			<g>
				<path opacity="0.2" d="M86.493,13.628l3.222-2.078c-0.036-0.116-0.076-0.231-0.113-0.346l-3.141,2.028
					C86.481,13.364,86.478,13.497,86.493,13.628z"/>
				<path opacity="0.2" d="M78.636,9.112c-1.467-0.572-3.111-0.544-4.558,0.082c-1.647,0.713-2.671,1.938-3.174,3.321
					c0.562-1.15,1.529-2.146,2.952-2.761c1.445-0.624,3.09-0.653,4.558-0.08c3.323,1.417,4.273,4.782,3.372,7.51
					C83.03,14.375,82.193,10.628,78.636,9.112z"/>
				<path opacity="0.2" d="M70.113,6.754L69.212,3.12c-0.106,0.063-0.214,0.115-0.317,0.181l0.924,3.72
					C69.918,6.935,70.012,6.839,70.113,6.754z"/>
				<path opacity="0.2" d="M88.599,21.611l-4.057-0.875c-0.502,0.69-1.123,1.276-1.776,1.819l0.074,0.294
					c0.54-0.472,1.057-0.971,1.48-1.552l4.057,0.875c0.373-0.701,0.714-1.422,0.994-2.164
					C89.138,20.554,88.877,21.089,88.599,21.611z"/>
				<path opacity="0.2" d="M66.165,16.242l0.253-0.164c-0.129-0.842-0.127-1.696-0.047-2.542l-3.555-2.141
					c0.113-0.526,0.282-1.035,0.471-1.535c-0.29,0.678-0.536,1.372-0.692,2.096l3.554,2.141
					C66.081,14.812,66.089,15.53,66.165,16.242z"/>
				<path opacity="0.2" d="M80.106,28.15l-2.244-3.475c-0.843,0.131-1.695,0.128-2.54,0.048l-2.142,3.555
					c-0.729-0.167-1.438-0.415-2.133-0.691c-0.54-0.221-1.053-0.495-1.564-0.773l0.875-4.057c-0.688-0.503-1.275-1.123-1.818-1.775
					l-4.015,0.996c-0.652-1.026-1.099-2.159-1.469-3.313l-0.335,0.216c0.391,1.273,0.866,2.529,1.582,3.657l4.016-0.995
					c0.543,0.652,1.129,1.272,1.817,1.774l-0.875,4.059c0.512,0.277,1.025,0.552,1.565,0.773c0.693,0.275,1.402,0.524,2.132,0.691
					l2.143-3.556c0.846,0.08,1.697,0.083,2.54-0.047l2.243,3.476c1.272-0.39,2.528-0.865,3.657-1.582l-0.094-0.381
					C82.401,27.363,81.262,27.797,80.106,28.15z"/>
			</g>
		</g>
	</g>
</g>
<g opacity="0.27">
	<path fill="#FFFFFF" d="M108,4c6.064,0,11,4.935,11,11v88c0,6.064-4.936,11-11,11H20c-6.065,0-11-4.936-11-11V15
		C9,8.935,13.935,4,20,4H108 M108,3H20C13.417,3,8,8.417,8,15v88c0,6.583,5.417,12,12,12h88c6.583,0,12-5.417,12-12V15
		C120,8.417,114.583,3,108,3L108,3z"/>
</g>
<path opacity="0.4" enable-background="new    " d="M66.211,8.765c1.868,0.016,3.723,0.242,5.572,0.467l2.33,13.733
	c2.824,0.716,5.47,1.925,8.02,3.29l11.514-8.067c3.701,2.632,6.793,5.965,9.638,9.451l-0.738,2.25l-7.489,9.04
	c1.479,2.465,2.545,5.127,3.356,7.865l14.002,2.286c0.745,4.423-0.406,11.158-0.914,15.59l-13.088,0.036
	c-0.731,2.769-1.964,5.364-3.356,7.864l8.228,11.289l-0.738,2.25c-2.548,3.188-5.679,4.677-8.897,7.203l-11.514-8.068
	c-2.513,1.449-5.228,2.492-8.02,3.291l-2.33,13.732c-2.53,0.385-5.098,0.48-7.655,0.481c-1.992-0.022-3.972-0.245-5.947-0.481
	L55.85,88.535c-2.823-0.717-5.469-1.926-8.019-3.291L36.32,93.312c-3.286-2.338-6.322-4.145-8.9-7.203l-0.738-2.25l8.227-11.289
	c-1.477-2.465-2.542-5.127-3.355-7.864L18.465,64.67c-0.744-4.424-1.423-11.159-0.914-15.59l14.002-2.286
	c0.731-2.769,1.964-5.364,3.355-7.865l-7.488-9.04l-0.738-2.25c2.684-3.63,6.082-6.663,9.638-9.451l11.511,8.067
	c2.513-1.449,5.229-2.493,8.02-3.29l2.331-13.733C60.835,8.806,63.529,8.76,66.211,8.765L66.211,8.765z M64.982,35.75
	c-5.386,0.028-10.583,2.148-14.393,5.885C35.335,56.597,51.73,81.85,71.964,74.527C93.257,66.823,87.504,36.316,64.982,35.75
	L64.982,35.75z"/>
<linearGradient id="SVGID_7_" gradientUnits="userSpaceOnUse" x1="346.9824" y1="-284.502" x2="346.9824" y2="-322.101" gradientTransform="matrix(1 0 0 -1 -282 -244)">
	<stop  offset="0" style="stop-color:#FFFFFF"/>
	<stop  offset="1" style="stop-color:#DADADA"/>
</linearGradient>
<path fill="url(#SVGID_7_)" d="M66.188,11.015c1.832,0.016,3.65,0.242,5.465,0.467l2.285,13.733c2.771,0.716,5.364,1.925,7.865,3.29
	l11.29-8.067c3.63,2.632,6.663,5.965,9.452,9.451l-8.068,11.29c1.449,2.465,2.494,5.127,3.291,7.865L111.5,51.33
	c0.73,4.423,0.498,8.908,0,13.34l-13.732,2.286c-0.717,2.769-1.926,5.364-3.291,7.864l8.067,11.289
	c-2.632,3.631-5.965,6.664-9.451,9.453l-11.29-8.068c-2.465,1.449-5.127,2.492-7.865,3.291l-2.285,13.732
	c-2.48,0.385-5,0.48-7.506,0.481c-1.954-0.022-3.896-0.245-5.833-0.481l-2.286-13.732c-2.768-0.717-5.364-1.926-7.864-3.291
	l-11.29,8.068c-3.63-2.633-6.663-5.965-9.452-9.453l8.068-11.289c-1.449-2.465-2.493-5.127-3.291-7.864L18.465,64.67
	c-0.73-4.424-0.499-8.909,0-13.34l13.732-2.286c0.717-2.769,1.926-5.364,3.291-7.865l-8.068-11.29
	c2.632-3.63,5.965-6.663,9.452-9.451l11.289,8.067c2.465-1.449,5.128-2.493,7.865-3.29l2.286-13.733
	C60.915,11.056,63.557,11.01,66.188,11.015L66.188,11.015z M64.982,38c-5.282,0.028-10.377,2.148-14.114,5.885
	C35.906,58.847,51.986,84.1,71.829,76.777C92.712,69.073,87.07,38.566,64.982,38L64.982,38z"/>
<g opacity="0.16">
	<path d="M94.477,41.179v2c1.449,2.465,2.494,5.127,3.291,7.865L111.5,53.33c0.273,1.652,0.411,3.314,0.451,4.978
		c0.046-2.332-0.069-4.663-0.451-6.978l-13.732-2.286C97.109,46.531,95.797,43.281,94.477,41.179z"/>
	<path d="M34.874,75.68l-7.454,10.43c0.251,0.312,0.506,0.623,0.761,0.935l7.307-10.224C35.269,76.447,35.075,76.062,34.874,75.68z"
		/>
	<path d="M36.872,22.438l11.289,8.067c2.465-1.449,5.128-2.493,7.865-3.29l2.286-13.733c2.603-0.426,5.245-0.472,7.875-0.467
		c1.832,0.016,3.649,0.242,5.465,0.467l2.285,13.733c2.77,0.716,5.363,1.925,7.864,3.29l11.29-8.067
		c3.305,2.395,6.11,5.373,8.69,8.517l0.762-1.065c-2.789-3.486-5.821-6.819-9.452-9.451l-11.29,8.067
		c-2.501-1.365-5.096-2.574-7.864-3.29l-2.285-13.733c-1.814-0.225-3.633-0.451-5.465-0.467c-2.63-0.005-5.272,0.041-7.875,0.467
		l-2.286,13.733c-2.737,0.797-5.4,1.841-7.865,3.29l-11.289-8.067c-3.487,2.788-6.82,5.821-9.452,9.451l0.738,1.033
		C30.663,27.717,33.701,24.974,36.872,22.438z"/>
	<path d="M94.477,76.82l7.33,10.256c0.248-0.319,0.5-0.639,0.737-0.967L95.08,75.665C94.88,76.051,94.686,76.439,94.477,76.82z"/>
	<path d="M71.829,78.777c9.308-3.435,13.333-11.396,12.995-19.219c-0.379,7.146-4.481,14.078-12.995,17.219
		c-14.055,5.187-26.207-5.971-26.792-18.237C44.301,71.551,57.013,84.245,71.829,78.777z"/>
	<path d="M18.465,53.33l13.732-2.286c0.717-2.769,1.926-5.364,3.291-7.865v-2c-1.109,2.146-2.701,4.927-3.291,7.865L18.465,51.33
		c-0.312,2.774-0.52,5.57-0.452,8.359C18.054,57.565,18.227,55.441,18.465,53.33z"/>
</g>
<radialGradient id="SVGID_8_" cx="64.9258" cy="122.1729" r="53.9614" gradientTransform="matrix(1.1529 -0.0064 2.028674e-04 0.0645 -11.1184 114.7133)" gradientUnits="userSpaceOnUse">
	<stop  offset="0.1779" style="stop-color:#000000;stop-opacity:0.3"/>
	<stop  offset="1" style="stop-color:#000000;stop-opacity:0"/>
</radialGradient>
<ellipse fill="url(#SVGID_8_)" enable-background="new    " cx="63.759" cy="122.173" rx="63.497" ry="3.673"/>
<ellipse opacity="0.1" enable-background="new    " cx="64.925" cy="122.173" rx="47.04" ry="0.791"/>
<g>
	<g>
		<defs>
			<path id="SVGID_9_" d="M108,115c6.583,0,12-5.417,12-12V15c0-6.583-5.417-12-12-12H20C13.417,3,8,8.417,8,15v88
				c0,6.583,5.417,12,12,12H108z"/>
		</defs>
		<clipPath id="SVGID_10_">
			<use xlink:href="#SVGID_9_"  overflow="visible"/>
		</clipPath>
		
			<linearGradient id="SVGID_11_" gradientUnits="userSpaceOnUse" x1="346" y1="-253.5366" x2="346" y2="-308.9161" gradientTransform="matrix(1 0 0 -1 -282 -244)">
			<stop  offset="0.1963" style="stop-color:#FFFFFF;stop-opacity:0.16"/>
			<stop  offset="1" style="stop-color:#FFFFFF;stop-opacity:0.44"/>
		</linearGradient>
		<ellipse clip-path="url(#SVGID_10_)" fill="url(#SVGID_11_)" cx="64" cy="13.493" rx="73.546" ry="50.507"/>
	</g>
</g>
<g>
	<g>
		<defs>
			<path id="SVGID_12_" d="M108,115c6.583,0,12-5.417,12-12V15c0-6.583-5.417-12-12-12H20C13.417,3,8,8.417,8,15v88
				c0,6.583,5.417,12,12,12H108z"/>
		</defs>
		<clipPath id="SVGID_13_">
			<use xlink:href="#SVGID_12_"  overflow="visible"/>
		</clipPath>
		
			<radialGradient id="SVGID_14_" cx="347.0547" cy="-700.7842" r="69.8287" gradientTransform="matrix(1 0 0 -0.4191 -282 -293.8807)" gradientUnits="userSpaceOnUse">
			<stop  offset="0.1963" style="stop-color:#FFFFFF;stop-opacity:0.48"/>
			<stop  offset="1" style="stop-color:#FFFFFF;stop-opacity:0"/>
		</radialGradient>
		<ellipse clip-path="url(#SVGID_13_)" fill="url(#SVGID_14_)" cx="64" cy="3" rx="59.741" ry="35"/>
	</g>
	<g>
		<defs>
			<path id="SVGID_15_" d="M108,115c6.583,0,12-5.417,12-12V15c0-6.583-5.417-12-12-12H20C13.417,3,8,8.417,8,15v88
				c0,6.583,5.417,12,12,12H108z"/>
		</defs>
		<clipPath id="SVGID_16_">
			<use xlink:href="#SVGID_15_"  overflow="visible"/>
		</clipPath>
		
			<radialGradient id="SVGID_17_" cx="309.252" cy="1799.4824" r="77.1965" gradientTransform="matrix(1.2043 0.0099 -0.0022 0.1855 -303.2001 -220.9514)" gradientUnits="userSpaceOnUse">
			<stop  offset="0.1963" style="stop-color:#FFFFFF;stop-opacity:0.34"/>
			<stop  offset="1" style="stop-color:#FFFFFF;stop-opacity:0"/>
		</radialGradient>
		<ellipse clip-path="url(#SVGID_16_)" fill="url(#SVGID_17_)" cx="64" cy="114.508" rx="71.947" ry="15.492"/>
	</g>
</g>
<path opacity="0.35" fill="#FFFFFF" d="M108,3H20C13.417,3,8,8.417,8,15v2c0-6.583,5.417-12,12-12h88c6.583,0,12,5.417,12,12v-2
	C120,8.417,114.583,3,108,3z"/>
</svg>
